;TYPE=PLATED
;Layer: PTH_Through
;EasyEDA Pro v3.2.148, 2026-07-09 22:58:16
;Gerber Generator version 0.3
M48
METRIC,LZ,0000.00000
;Hole size 1 = 0.30500 METRIC
T01C0.30500
;Hole size 2 = 0.60000 METRIC
T02C0.60000
;Hole size 3 = 0.70002 METRIC
T03C0.70002
;Hole size 4 = 0.91440 METRIC
T04C0.91440
%
G05
G90
T01
X-75.2092Y35.18081
X-75.2092Y34.4188
X-70.358Y35.18081
X-70.358Y34.4188
X-77.7492Y33.7058
X-77.7492Y32.9438
X-67.818Y33.7058
X-67.818Y32.9438
X-60.96Y32.131
X-57.023Y32.131
X-75.93173Y32.5376
X-75.33635Y32.05534
X-70.1292Y32.5376
X-70.1292Y31.7756
X-63.5Y32.508
X-63.5Y31.746
X-53.6192Y32.508
X-53.6192Y31.746
X-44.958Y32.508
X-44.958Y31.746
X-39.3952Y32.508
X-27.686Y33.02
X-94.996Y26.797
X-83.947Y29.591
X-66.802Y30.734
X-51.308Y30.734
X-36.957Y30.988
X-19.939Y30.48
T02
X-126.24896Y33.15393G85X-127.14896Y33.15393
X-126.24897Y24.50391G85X-127.149Y24.50391
X-130.59903Y33.15399G85X-131.19903Y33.15399
X-130.59903Y24.50402G85X-131.19903Y24.50402
T03
X-51.58892Y21.27002G85X-51.58892Y19.47005
X-64.48908Y21.27002G85X-64.48908Y19.47005
X-20.85492Y21.27002G85X-20.85492Y19.47005
X-33.75508Y21.27002G85X-33.75508Y19.47005
X-36.22192Y21.27002G85X-36.22192Y19.47005
X-49.12208Y21.27002G85X-49.12208Y19.47005
X-66.95592Y21.27002G85X-66.95592Y19.47005
X-79.85608Y21.27002G85X-79.85608Y19.47005
T04
X-127.254Y21.082
X-124.714Y21.082
M30