;TYPE=PLATED
;Layer: PTH_Through_Via
;EasyEDA Pro v3.2.148, 2026-07-09 22:58:16
;Gerber Generator version 0.3
M48
METRIC,LZ,0000.00000
;Hole size 1 = 0.30500 METRIC
T01C0.30500
%
G05
G90
T01
X-75.2092Y35.18081
X-75.2092Y34.4188
X-70.358Y35.18081
X-70.358Y34.4188
X-77.7492Y33.7058
X-77.7492Y32.9438
X-67.818Y33.7058
X-67.818Y32.9438
X-60.96Y32.131
X-57.023Y32.131
X-75.93173Y32.5376
X-75.33635Y32.05534
X-70.1292Y32.5376
X-70.1292Y31.7756
X-63.5Y32.508
X-63.5Y31.746
X-53.6192Y32.508
X-53.6192Y31.746
X-44.958Y32.508
X-44.958Y31.746
X-39.3952Y32.508
X-27.686Y33.02
X-94.996Y26.797
X-83.947Y29.591
X-66.802Y30.734
X-51.308Y30.734
X-36.957Y30.988
X-19.939Y30.48
M30