G04 Layer: DrillDrawingLayer*
G04 EasyEDA Pro v3.2.148, 2026-07-09 22:58:16*
G04 Gerber Generator version 0.3*
G04 Scale: 100 percent, Rotated: No, Reflected: No*
G04 Dimensions in millimeters*
G04 Leading zeros omitted, absolute positions, 4 integers and 5 decimals*
G04 Generated by one-click*
G04 Object Configs: Pad,Via,Track,Text,Image,Dimension,BoardOutline,BoardCutout,CopperFilled,SolidRegion,FPCStiffener,Line,PlaneZone,ComponentProperty,ComponentSilkscreen,TearDrop*
G04 Layer Configs: 1,2,3,4,5,6,7,8,9,10,11,13,14,56*
G04 Copper Areas: 0*
%FSLAX45Y45*%
%MOMM*%
%AMIconRect*4,1,4,0.28,-0.28,-0.28,-0.28,-0.28,0.28,0.28,0.28,0.28,-0.28,0*4,0,4,0.233333,-0.233333,0.233333,0.233333,-0.233333,0.233333,-0.233333,-0.233333,0.233333,-0.233333,0*%
%AMIconTriangle*4,1,3,-0.339593,0.240473,0.339593,0.240473,0,-0.37884,-0.339593,0.240473,0*4,0,3,-0.265673,0.19404,0,-0.27342,0.266233,0.19404,-0.265673,0.19404,0*%
%AMIconStar6*4,1,12,0.12068,0.20888,0.298527,0.172713,0.241313,0,0.298527,-0.17206,0.12068,-0.208227,0,-0.344073,-0.120073,-0.208227,-0.298573,-0.17206,-0.240707,0,-0.298573,0.17206,-0.120073,0.20888,0,0.344073,0.12068,0.20888,0*4,0,12,-0.000467,0.273467,-0.090067,0.171733,-0.237533,0.136733,-0.193667,-0.007467,-0.237533,-0.1372,-0.090067,-0.171733,-0.000467,-0.273933,0.090067,-0.171733,0.237533,-0.1372,0.194133,0.007,0.237533,0.1372,0.090067,0.171267,-0.000467,0.273467,0*%
%AMIconStar4*4,1,8,-0.311733,0.311733,0,0.202533,0.311733,0.311733,0.202533,0,0.311733,-0.311733,0,-0.202533,-0.304407,-0.311733,-0.202533,0,-0.311733,0.311733,0*4,0,8,0.233333,-0.233333,0.1512,0,0.233333,0.233333,0,0.1512,-0.233333,0.233333,-0.1512,0,-0.233333,-0.233333,0,-0.1512,0.233333,-0.233333,0*%
%AMIconPlus*4,1,12,0.1736,-0.28,-0.1736,-0.28,-0.1736,-0.1736,-0.28,-0.1736,-0.28,0.1736,-0.1736,0.1736,-0.1736,0.28,0.1736,0.28,0.1736,0.1736,0.28,0.1736,0.28,-0.1736,0.1736,-0.1736,0.1736,-0.28,0*4,0,12,0.126933,-0.233333,0.126933,-0.126933,0.233333,-0.126933,0.233333,0.126933,0.126933,0.126933,0.126933,0.233333,-0.126933,0.233333,-0.126933,0.126933,-0.233333,0.126933,-0.233333,-0.126933,-0.126933,-0.126933,-0.126933,-0.233333,0.126933,-0.233333,0*%
%ADD10IconRect*%
%ADD11C,0.616X0.522667*%
%ADD12IconTriangle*%
%ADD13IconStar6*%
%ADD14IconStar4*%
%ADD15IconPlus*%
%ADD16C,0.2032*%
%ADD17C,0.254*%
G75*


G04 Drill Drawing Start*
G54D10*
G01X-12669898Y2450391D03*
G01X-12669896Y3315393D03*
G54D11*
G01X-13089903Y2450402D03*
G01X-13089903Y3315399D03*
G54D12*
G01X-12725400Y2108200D03*
G01X-12471400Y2108200D03*
G54D13*
G01X-12721907Y2593886D03*
G01X-12721907Y3171889D03*
G54D14*
G01X-7985608Y2037004D03*
G01X-6695592Y2037004D03*
G01X-6448908Y2037004D03*
G01X-5158892Y2037004D03*
G01X-4912208Y2037004D03*
G01X-3622192Y2037004D03*
G01X-3375508Y2037004D03*
G01X-2085492Y2037004D03*
G54D15*
G01X-9499600Y2679700D03*
G01X-8394700Y2959100D03*
G01X-7774920Y3294380D03*
G01X-7774920Y3370580D03*
G01X-7593173Y3253760D03*
G01X-7533635Y3205534D03*
G01X-7520920Y3441880D03*
G01X-7520920Y3518081D03*
G01X-7035800Y3441880D03*
G01X-7035800Y3518081D03*
G01X-7012920Y3177560D03*
G01X-7012920Y3253760D03*
G01X-6781800Y3294380D03*
G01X-6781800Y3370580D03*
G01X-6680200Y3073400D03*
G01X-6350000Y3174600D03*
G01X-6350000Y3250800D03*
G01X-6096000Y3213100D03*
G01X-5702300Y3213100D03*
G01X-5361920Y3174600D03*
G01X-5361920Y3250800D03*
G01X-5130800Y3073400D03*
G01X-4495800Y3174600D03*
G01X-4495800Y3250800D03*
G01X-3939520Y3250800D03*
G01X-3695700Y3098800D03*
G01X-2768600Y3302000D03*
G01X-1993900Y3048000D03*
G04 Drill Drawing End*

G04 Text Start*
G54D16*
G01X801846Y3486694D02*
G01X801846Y3366552D01*
G01X801846Y3486694D02*
G01X847566Y3366552D01*
G01X893286Y3486694D02*
G01X847566Y3366552D01*
G01X893286Y3486694D02*
G01X893286Y3366552D01*
G01X1009618Y3446562D02*
G01X1009618Y3366552D01*
G01X1009618Y3429544D02*
G01X998188Y3440974D01*
G01X986758Y3446562D01*
G01X969740Y3446562D01*
G01X958310Y3440974D01*
G01X946880Y3429544D01*
G01X941038Y3412272D01*
G01X941038Y3400842D01*
G01X946880Y3383824D01*
G01X958310Y3372394D01*
G01X969740Y3366552D01*
G01X986758Y3366552D01*
G01X998188Y3372394D01*
G01X1009618Y3383824D01*
G01X1057370Y3446562D02*
G01X1057370Y3366552D01*
G01X1057370Y3412272D02*
G01X1063212Y3429544D01*
G01X1074642Y3440974D01*
G01X1086072Y3446562D01*
G01X1103090Y3446562D01*
G01X1150842Y3486694D02*
G01X1150842Y3366552D01*
G01X1207992Y3446562D02*
G01X1150842Y3389412D01*
G01X1173702Y3412272D02*
G01X1213834Y3366552D01*
G01X2339126Y3457992D02*
G01X2333284Y3469422D01*
G01X2321854Y3480852D01*
G01X2310424Y3486694D01*
G01X2287564Y3486694D01*
G01X2276134Y3480852D01*
G01X2264704Y3469422D01*
G01X2259116Y3457992D01*
G01X2253274Y3440974D01*
G01X2253274Y3412272D01*
G01X2259116Y3395254D01*
G01X2264704Y3383824D01*
G01X2276134Y3372394D01*
G01X2287564Y3366552D01*
G01X2310424Y3366552D01*
G01X2321854Y3372394D01*
G01X2333284Y3383824D01*
G01X2339126Y3395254D01*
G01X2415580Y3446562D02*
G01X2404150Y3440974D01*
G01X2392720Y3429544D01*
G01X2386878Y3412272D01*
G01X2386878Y3400842D01*
G01X2392720Y3383824D01*
G01X2404150Y3372394D01*
G01X2415580Y3366552D01*
G01X2432598Y3366552D01*
G01X2444028Y3372394D01*
G01X2455458Y3383824D01*
G01X2461300Y3400842D01*
G01X2461300Y3412272D01*
G01X2455458Y3429544D01*
G01X2444028Y3440974D01*
G01X2432598Y3446562D01*
G01X2415580Y3446562D01*
G01X2509052Y3446562D02*
G01X2509052Y3389412D01*
G01X2514894Y3372394D01*
G01X2526324Y3366552D01*
G01X2543342Y3366552D01*
G01X2554772Y3372394D01*
G01X2572044Y3389412D01*
G01X2572044Y3446562D02*
G01X2572044Y3366552D01*
G01X2619796Y3446562D02*
G01X2619796Y3366552D01*
G01X2619796Y3423702D02*
G01X2637068Y3440974D01*
G01X2648498Y3446562D01*
G01X2665516Y3446562D01*
G01X2676946Y3440974D01*
G01X2682788Y3423702D01*
G01X2682788Y3366552D01*
G01X2747812Y3486694D02*
G01X2747812Y3389412D01*
G01X2753400Y3372394D01*
G01X2764830Y3366552D01*
G01X2776260Y3366552D01*
G01X2730540Y3446562D02*
G01X2770672Y3446562D01*
G01X3747447Y3469422D02*
G01X3736017Y3480852D01*
G01X3718999Y3486694D01*
G01X3696139Y3486694D01*
G01X3678867Y3480852D01*
G01X3667437Y3469422D01*
G01X3667437Y3457992D01*
G01X3673279Y3446562D01*
G01X3678867Y3440974D01*
G01X3690297Y3435132D01*
G01X3724587Y3423702D01*
G01X3736017Y3418114D01*
G01X3741859Y3412272D01*
G01X3747447Y3400842D01*
G01X3747447Y3383824D01*
G01X3736017Y3372394D01*
G01X3718999Y3366552D01*
G01X3696139Y3366552D01*
G01X3678867Y3372394D01*
G01X3667437Y3383824D01*
G01X3795199Y3486694D02*
G01X3801041Y3480852D01*
G01X3806629Y3486694D01*
G01X3801041Y3492282D01*
G01X3795199Y3486694D01*
G01X3801041Y3446562D02*
G01X3801041Y3366552D01*
G01X3917373Y3446562D02*
G01X3854381Y3366552D01*
G01X3854381Y3446562D02*
G01X3917373Y3446562D01*
G01X3854381Y3366552D02*
G01X3917373Y3366552D01*
G01X3965125Y3412272D02*
G01X4033705Y3412272D01*
G01X4033705Y3423702D01*
G01X4028117Y3435132D01*
G01X4022275Y3440974D01*
G01X4010845Y3446562D01*
G01X3993827Y3446562D01*
G01X3982397Y3440974D01*
G01X3970967Y3429544D01*
G01X3965125Y3412272D01*
G01X3965125Y3400842D01*
G01X3970967Y3383824D01*
G01X3982397Y3372394D01*
G01X3993827Y3366552D01*
G01X4010845Y3366552D01*
G01X4022275Y3372394D01*
G01X4033705Y3383824D01*
G01X7555561Y3486694D02*
G01X7555561Y3366552D01*
G01X7555561Y3486694D02*
G01X7607123Y3486694D01*
G01X7624141Y3480852D01*
G01X7629983Y3475264D01*
G01X7635571Y3463834D01*
G01X7635571Y3446562D01*
G01X7629983Y3435132D01*
G01X7624141Y3429544D01*
G01X7607123Y3423702D01*
G01X7555561Y3423702D01*
G01X7683323Y3486694D02*
G01X7683323Y3366552D01*
G01X7799655Y3446562D02*
G01X7799655Y3366552D01*
G01X7799655Y3429544D02*
G01X7788225Y3440974D01*
G01X7776795Y3446562D01*
G01X7759777Y3446562D01*
G01X7748347Y3440974D01*
G01X7736917Y3429544D01*
G01X7731075Y3412272D01*
G01X7731075Y3400842D01*
G01X7736917Y3383824D01*
G01X7748347Y3372394D01*
G01X7759777Y3366552D01*
G01X7776795Y3366552D01*
G01X7788225Y3372394D01*
G01X7799655Y3383824D01*
G01X7864679Y3486694D02*
G01X7864679Y3389412D01*
G01X7870267Y3372394D01*
G01X7881697Y3366552D01*
G01X7893127Y3366552D01*
G01X7847407Y3446562D02*
G01X7887539Y3446562D01*
G01X7940879Y3412272D02*
G01X8009459Y3412272D01*
G01X8009459Y3423702D01*
G01X8003871Y3435132D01*
G01X7998029Y3440974D01*
G01X7986599Y3446562D01*
G01X7969581Y3446562D01*
G01X7958151Y3440974D01*
G01X7946721Y3429544D01*
G01X7940879Y3412272D01*
G01X7940879Y3400842D01*
G01X7946721Y3383824D01*
G01X7958151Y3372394D01*
G01X7969581Y3366552D01*
G01X7986599Y3366552D01*
G01X7998029Y3372394D01*
G01X8009459Y3383824D01*
G01X8125791Y3486694D02*
G01X8125791Y3366552D01*
G01X8125791Y3429544D02*
G01X8114361Y3440974D01*
G01X8102931Y3446562D01*
G01X8085913Y3446562D01*
G01X8074483Y3440974D01*
G01X8063053Y3429544D01*
G01X8057211Y3412272D01*
G01X8057211Y3400842D01*
G01X8063053Y3383824D01*
G01X8074483Y3372394D01*
G01X8085913Y3366552D01*
G01X8102931Y3366552D01*
G01X8114361Y3372394D01*
G01X8125791Y3383824D01*
G01X9096978Y3469422D02*
G01X9085548Y3480852D01*
G01X9068530Y3486694D01*
G01X9045670Y3486694D01*
G01X9028398Y3480852D01*
G01X9016968Y3469422D01*
G01X9016968Y3457992D01*
G01X9022810Y3446562D01*
G01X9028398Y3440974D01*
G01X9039828Y3435132D01*
G01X9074118Y3423702D01*
G01X9085548Y3418114D01*
G01X9091390Y3412272D01*
G01X9096978Y3400842D01*
G01X9096978Y3383824D01*
G01X9085548Y3372394D01*
G01X9068530Y3366552D01*
G01X9045670Y3366552D01*
G01X9028398Y3372394D01*
G01X9016968Y3383824D01*
G01X9144730Y3486694D02*
G01X9144730Y3366552D01*
G01X9144730Y3423702D02*
G01X9162002Y3440974D01*
G01X9173432Y3446562D01*
G01X9190450Y3446562D01*
G01X9201880Y3440974D01*
G01X9207722Y3423702D01*
G01X9207722Y3366552D01*
G01X9324054Y3446562D02*
G01X9324054Y3366552D01*
G01X9324054Y3429544D02*
G01X9312624Y3440974D01*
G01X9301194Y3446562D01*
G01X9284176Y3446562D01*
G01X9272746Y3440974D01*
G01X9261316Y3429544D01*
G01X9255474Y3412272D01*
G01X9255474Y3400842D01*
G01X9261316Y3383824D01*
G01X9272746Y3372394D01*
G01X9284176Y3366552D01*
G01X9301194Y3366552D01*
G01X9312624Y3372394D01*
G01X9324054Y3383824D01*
G01X9371806Y3446562D02*
G01X9371806Y3326674D01*
G01X9371806Y3429544D02*
G01X9383236Y3440974D01*
G01X9394666Y3446562D01*
G01X9411938Y3446562D01*
G01X9423368Y3440974D01*
G01X9434798Y3429544D01*
G01X9440386Y3412272D01*
G01X9440386Y3400842D01*
G01X9434798Y3383824D01*
G01X9423368Y3372394D01*
G01X9411938Y3366552D01*
G01X9394666Y3366552D01*
G01X9383236Y3372394D01*
G01X9371806Y3383824D01*
G01X9488138Y3412272D02*
G01X9556718Y3412272D01*
G01X9556718Y3423702D01*
G01X9551130Y3435132D01*
G01X9545288Y3440974D01*
G01X9533858Y3446562D01*
G01X9516840Y3446562D01*
G01X9505410Y3440974D01*
G01X9493980Y3429544D01*
G01X9488138Y3412272D01*
G01X9488138Y3400842D01*
G01X9493980Y3383824D01*
G01X9505410Y3372394D01*
G01X9516840Y3366552D01*
G01X9533858Y3366552D01*
G01X9545288Y3372394D01*
G01X9556718Y3383824D01*
G01X10448149Y3486694D02*
G01X10493869Y3366552D01*
G01X10539589Y3486694D02*
G01X10493869Y3366552D01*
G01X10587341Y3486694D02*
G01X10593183Y3480852D01*
G01X10598771Y3486694D01*
G01X10593183Y3492282D01*
G01X10587341Y3486694D01*
G01X10593183Y3446562D02*
G01X10593183Y3366552D01*
G01X10715103Y3446562D02*
G01X10715103Y3366552D01*
G01X10715103Y3429544D02*
G01X10703673Y3440974D01*
G01X10692243Y3446562D01*
G01X10675225Y3446562D01*
G01X10663795Y3440974D01*
G01X10652365Y3429544D01*
G01X10646523Y3412272D01*
G01X10646523Y3400842D01*
G01X10652365Y3383824D01*
G01X10663795Y3372394D01*
G01X10675225Y3366552D01*
G01X10692243Y3366552D01*
G01X10703673Y3372394D01*
G01X10715103Y3383824D01*
G01X10865725Y3509554D02*
G01X10762855Y3326674D01*
G01X10913477Y3486694D02*
G01X10913477Y3366552D01*
G01X10913477Y3486694D02*
G01X10965039Y3486694D01*
G01X10982057Y3480852D01*
G01X10987899Y3475264D01*
G01X10993487Y3463834D01*
G01X10993487Y3446562D01*
G01X10987899Y3435132D01*
G01X10982057Y3429544D01*
G01X10965039Y3423702D01*
G01X10913477Y3423702D01*
G01X11109819Y3446562D02*
G01X11109819Y3366552D01*
G01X11109819Y3429544D02*
G01X11098389Y3440974D01*
G01X11086959Y3446562D01*
G01X11069941Y3446562D01*
G01X11058511Y3440974D01*
G01X11047081Y3429544D01*
G01X11041239Y3412272D01*
G01X11041239Y3400842D01*
G01X11047081Y3383824D01*
G01X11058511Y3372394D01*
G01X11069941Y3366552D01*
G01X11086959Y3366552D01*
G01X11098389Y3372394D01*
G01X11109819Y3383824D01*
G01X11226151Y3486694D02*
G01X11226151Y3366552D01*
G01X11226151Y3429544D02*
G01X11214721Y3440974D01*
G01X11203291Y3446562D01*
G01X11186273Y3446562D01*
G01X11174843Y3440974D01*
G01X11163413Y3429544D01*
G01X11157571Y3412272D01*
G01X11157571Y3400842D01*
G01X11163413Y3383824D01*
G01X11174843Y3372394D01*
G01X11186273Y3366552D01*
G01X11203291Y3366552D01*
G01X11214721Y3372394D01*
G01X11226151Y3383824D01*
G01X12117328Y3486694D02*
G01X12117328Y3366552D01*
G01X12117328Y3486694D02*
G01X12168890Y3486694D01*
G01X12185908Y3480852D01*
G01X12191750Y3475264D01*
G01X12197338Y3463834D01*
G01X12197338Y3446562D01*
G01X12191750Y3435132D01*
G01X12185908Y3429544D01*
G01X12168890Y3423702D01*
G01X12117328Y3423702D01*
G01X12313670Y3446562D02*
G01X12313670Y3366552D01*
G01X12313670Y3429544D02*
G01X12302240Y3440974D01*
G01X12290810Y3446562D01*
G01X12273792Y3446562D01*
G01X12262362Y3440974D01*
G01X12250932Y3429544D01*
G01X12245090Y3412272D01*
G01X12245090Y3400842D01*
G01X12250932Y3383824D01*
G01X12262362Y3372394D01*
G01X12273792Y3366552D01*
G01X12290810Y3366552D01*
G01X12302240Y3372394D01*
G01X12313670Y3383824D01*
G01X12430002Y3486694D02*
G01X12430002Y3366552D01*
G01X12430002Y3429544D02*
G01X12418572Y3440974D01*
G01X12407142Y3446562D01*
G01X12390124Y3446562D01*
G01X12378694Y3440974D01*
G01X12367264Y3429544D01*
G01X12361422Y3412272D01*
G01X12361422Y3400842D01*
G01X12367264Y3383824D01*
G01X12378694Y3372394D01*
G01X12390124Y3366552D01*
G01X12407142Y3366552D01*
G01X12418572Y3372394D01*
G01X12430002Y3383824D01*
G01X12685780Y3469422D02*
G01X12674350Y3480852D01*
G01X12657332Y3486694D01*
G01X12634472Y3486694D01*
G01X12617200Y3480852D01*
G01X12605770Y3469422D01*
G01X12605770Y3457992D01*
G01X12611612Y3446562D01*
G01X12617200Y3440974D01*
G01X12628630Y3435132D01*
G01X12662920Y3423702D01*
G01X12674350Y3418114D01*
G01X12680192Y3412272D01*
G01X12685780Y3400842D01*
G01X12685780Y3383824D01*
G01X12674350Y3372394D01*
G01X12657332Y3366552D01*
G01X12634472Y3366552D01*
G01X12617200Y3372394D01*
G01X12605770Y3383824D01*
G01X12733532Y3486694D02*
G01X12733532Y3366552D01*
G01X12733532Y3423702D02*
G01X12750804Y3440974D01*
G01X12762234Y3446562D01*
G01X12779252Y3446562D01*
G01X12790682Y3440974D01*
G01X12796524Y3423702D01*
G01X12796524Y3366552D01*
G01X12912856Y3446562D02*
G01X12912856Y3366552D01*
G01X12912856Y3429544D02*
G01X12901426Y3440974D01*
G01X12889996Y3446562D01*
G01X12872978Y3446562D01*
G01X12861548Y3440974D01*
G01X12850118Y3429544D01*
G01X12844276Y3412272D01*
G01X12844276Y3400842D01*
G01X12850118Y3383824D01*
G01X12861548Y3372394D01*
G01X12872978Y3366552D01*
G01X12889996Y3366552D01*
G01X12901426Y3372394D01*
G01X12912856Y3383824D01*
G01X12960608Y3446562D02*
G01X12960608Y3326674D01*
G01X12960608Y3429544D02*
G01X12972038Y3440974D01*
G01X12983468Y3446562D01*
G01X13000740Y3446562D01*
G01X13012170Y3440974D01*
G01X13023600Y3429544D01*
G01X13029188Y3412272D01*
G01X13029188Y3400842D01*
G01X13023600Y3383824D01*
G01X13012170Y3372394D01*
G01X13000740Y3366552D01*
G01X12983468Y3366552D01*
G01X12972038Y3372394D01*
G01X12960608Y3383824D01*
G01X13076940Y3412272D02*
G01X13145520Y3412272D01*
G01X13145520Y3423702D01*
G01X13139932Y3435132D01*
G01X13134090Y3440974D01*
G01X13122660Y3446562D01*
G01X13105642Y3446562D01*
G01X13094212Y3440974D01*
G01X13082782Y3429544D01*
G01X13076940Y3412272D01*
G01X13076940Y3400842D01*
G01X13082782Y3383824D01*
G01X13094212Y3372394D01*
G01X13105642Y3366552D01*
G01X13122660Y3366552D01*
G01X13134090Y3372394D01*
G01X13145520Y3383824D01*
G01X14036697Y3486694D02*
G01X14036697Y3366552D01*
G01X14036697Y3366552D02*
G01X14105277Y3366552D01*
G01X14221609Y3446562D02*
G01X14221609Y3366552D01*
G01X14221609Y3429544D02*
G01X14210179Y3440974D01*
G01X14198749Y3446562D01*
G01X14181731Y3446562D01*
G01X14170301Y3440974D01*
G01X14158871Y3429544D01*
G01X14153029Y3412272D01*
G01X14153029Y3400842D01*
G01X14158871Y3383824D01*
G01X14170301Y3372394D01*
G01X14181731Y3366552D01*
G01X14198749Y3366552D01*
G01X14210179Y3372394D01*
G01X14221609Y3383824D01*
G01X14275203Y3446562D02*
G01X14309493Y3366552D01*
G01X14343783Y3446562D02*
G01X14309493Y3366552D01*
G01X14298063Y3343692D01*
G01X14286633Y3332262D01*
G01X14275203Y3326674D01*
G01X14269361Y3326674D01*
G01X14391535Y3412272D02*
G01X14460115Y3412272D01*
G01X14460115Y3423702D01*
G01X14454527Y3435132D01*
G01X14448685Y3440974D01*
G01X14437255Y3446562D01*
G01X14420237Y3446562D01*
G01X14408807Y3440974D01*
G01X14397377Y3429544D01*
G01X14391535Y3412272D01*
G01X14391535Y3400842D01*
G01X14397377Y3383824D01*
G01X14408807Y3372394D01*
G01X14420237Y3366552D01*
G01X14437255Y3366552D01*
G01X14448685Y3372394D01*
G01X14460115Y3383824D01*
G01X14507867Y3446562D02*
G01X14507867Y3366552D01*
G01X14507867Y3412272D02*
G01X14513709Y3429544D01*
G01X14525139Y3440974D01*
G01X14536569Y3446562D01*
G01X14553587Y3446562D01*
G01X14729355Y3486694D02*
G01X14729355Y3366552D01*
G01X14729355Y3486694D02*
G01X14780917Y3486694D01*
G01X14797935Y3480852D01*
G01X14803777Y3475264D01*
G01X14809365Y3463834D01*
G01X14809365Y3446562D01*
G01X14803777Y3435132D01*
G01X14797935Y3429544D01*
G01X14780917Y3423702D01*
G01X14729355Y3423702D01*
G01X14925697Y3446562D02*
G01X14925697Y3366552D01*
G01X14925697Y3429544D02*
G01X14914267Y3440974D01*
G01X14902837Y3446562D01*
G01X14885819Y3446562D01*
G01X14874389Y3440974D01*
G01X14862959Y3429544D01*
G01X14857117Y3412272D01*
G01X14857117Y3400842D01*
G01X14862959Y3383824D01*
G01X14874389Y3372394D01*
G01X14885819Y3366552D01*
G01X14902837Y3366552D01*
G01X14914267Y3372394D01*
G01X14925697Y3383824D01*
G01X14973449Y3486694D02*
G01X14979291Y3480852D01*
G01X14984879Y3486694D01*
G01X14979291Y3492282D01*
G01X14973449Y3486694D01*
G01X14979291Y3446562D02*
G01X14979291Y3366552D01*
G01X15032631Y3446562D02*
G01X15032631Y3366552D01*
G01X15032631Y3412272D02*
G01X15038473Y3429544D01*
G01X15049903Y3440974D01*
G01X15061333Y3446562D01*
G01X15078351Y3446562D01*
G01X2259116Y2877421D02*
G01X2259116Y2883263D01*
G01X2264704Y2894693D01*
G01X2270546Y2900281D01*
G01X2281976Y2906123D01*
G01X2304836Y2906123D01*
G01X2316266Y2900281D01*
G01X2321854Y2894693D01*
G01X2327696Y2883263D01*
G01X2327696Y2871833D01*
G01X2321854Y2860403D01*
G01X2310424Y2843131D01*
G01X2253274Y2785981D01*
G01X2333284Y2785981D01*
G01X3673279Y2877421D02*
G01X3673279Y2883263D01*
G01X3678867Y2894693D01*
G01X3684709Y2900281D01*
G01X3696139Y2906123D01*
G01X3718999Y2906123D01*
G01X3730429Y2900281D01*
G01X3736017Y2894693D01*
G01X3741859Y2883263D01*
G01X3741859Y2871833D01*
G01X3736017Y2860403D01*
G01X3724587Y2843131D01*
G01X3667437Y2785981D01*
G01X3747447Y2785981D01*
G01X3806629Y2906123D02*
G01X3869621Y2906123D01*
G01X3835331Y2860403D01*
G01X3852349Y2860403D01*
G01X3863779Y2854561D01*
G01X3869621Y2848973D01*
G01X3875209Y2831701D01*
G01X3875209Y2820271D01*
G01X3869621Y2803253D01*
G01X3858191Y2791823D01*
G01X3840919Y2785981D01*
G01X3823901Y2785981D01*
G01X3806629Y2791823D01*
G01X3801041Y2797411D01*
G01X3795199Y2808841D01*
G01X3928803Y2814683D02*
G01X3922961Y2808841D01*
G01X3928803Y2803253D01*
G01X3934391Y2808841D01*
G01X3928803Y2814683D01*
G01X4050723Y2888851D02*
G01X4045135Y2900281D01*
G01X4027863Y2906123D01*
G01X4016433Y2906123D01*
G01X3999415Y2900281D01*
G01X3987985Y2883263D01*
G01X3982143Y2854561D01*
G01X3982143Y2826113D01*
G01X3987985Y2803253D01*
G01X3999415Y2791823D01*
G01X4016433Y2785981D01*
G01X4022275Y2785981D01*
G01X4039293Y2791823D01*
G01X4050723Y2803253D01*
G01X4056565Y2820271D01*
G01X4056565Y2826113D01*
G01X4050723Y2843131D01*
G01X4039293Y2854561D01*
G01X4022275Y2860403D01*
G01X4016433Y2860403D01*
G01X3999415Y2854561D01*
G01X3987985Y2843131D01*
G01X3982143Y2826113D01*
G01X4104317Y2865991D02*
G01X4167309Y2785981D01*
G01X4167309Y2865991D02*
G01X4104317Y2785981D01*
G01X4283641Y2906123D02*
G01X4226491Y2906123D01*
G01X4220903Y2854561D01*
G01X4226491Y2860403D01*
G01X4243763Y2865991D01*
G01X4260781Y2865991D01*
G01X4278053Y2860403D01*
G01X4289483Y2848973D01*
G01X4295071Y2831701D01*
G01X4295071Y2820271D01*
G01X4289483Y2803253D01*
G01X4278053Y2791823D01*
G01X4260781Y2785981D01*
G01X4243763Y2785981D01*
G01X4226491Y2791823D01*
G01X4220903Y2797411D01*
G01X4215061Y2808841D01*
G01X4417245Y2865991D02*
G01X4411403Y2848973D01*
G01X4399973Y2837543D01*
G01X4382955Y2831701D01*
G01X4377113Y2831701D01*
G01X4360095Y2837543D01*
G01X4348665Y2848973D01*
G01X4342823Y2865991D01*
G01X4342823Y2871833D01*
G01X4348665Y2888851D01*
G01X4360095Y2900281D01*
G01X4377113Y2906123D01*
G01X4382955Y2906123D01*
G01X4399973Y2900281D01*
G01X4411403Y2888851D01*
G01X4417245Y2865991D01*
G01X4417245Y2837543D01*
G01X4411403Y2808841D01*
G01X4399973Y2791823D01*
G01X4382955Y2785981D01*
G01X4371525Y2785981D01*
G01X4354253Y2791823D01*
G01X4348665Y2803253D01*
G01X4470839Y2814683D02*
G01X4464997Y2808841D01*
G01X4470839Y2803253D01*
G01X4476427Y2808841D01*
G01X4470839Y2814683D01*
G01X4524179Y2883263D02*
G01X4535609Y2888851D01*
G01X4552881Y2906123D01*
G01X4552881Y2785981D01*
G01X4600633Y2865991D02*
G01X4600633Y2785981D01*
G01X4600633Y2843131D02*
G01X4617905Y2860403D01*
G01X4629335Y2865991D01*
G01X4646353Y2865991D01*
G01X4657783Y2860403D01*
G01X4663625Y2843131D01*
G01X4663625Y2785981D01*
G01X4663625Y2843131D02*
G01X4680643Y2860403D01*
G01X4692073Y2865991D01*
G01X4709345Y2865991D01*
G01X4720775Y2860403D01*
G01X4726363Y2843131D01*
G01X4726363Y2785981D01*
G01X4774115Y2906123D02*
G01X4779957Y2900281D01*
G01X4785545Y2906123D01*
G01X4779957Y2911711D01*
G01X4774115Y2906123D01*
G01X4779957Y2865991D02*
G01X4779957Y2785981D01*
G01X4833297Y2906123D02*
G01X4833297Y2785981D01*
G01X4921181Y2928983D02*
G01X4909751Y2917553D01*
G01X4898321Y2900281D01*
G01X4886891Y2877421D01*
G01X4881049Y2848973D01*
G01X4881049Y2826113D01*
G01X4886891Y2797411D01*
G01X4898321Y2774551D01*
G01X4909751Y2757533D01*
G01X4921181Y2746103D01*
G01X5003223Y2906123D02*
G01X4986205Y2900281D01*
G01X4974775Y2883263D01*
G01X4968933Y2854561D01*
G01X4968933Y2837543D01*
G01X4974775Y2808841D01*
G01X4986205Y2791823D01*
G01X5003223Y2785981D01*
G01X5014653Y2785981D01*
G01X5031925Y2791823D01*
G01X5043355Y2808841D01*
G01X5048943Y2837543D01*
G01X5048943Y2854561D01*
G01X5043355Y2883263D01*
G01X5031925Y2900281D01*
G01X5014653Y2906123D01*
G01X5003223Y2906123D01*
G01X5102537Y2814683D02*
G01X5096695Y2808841D01*
G01X5102537Y2803253D01*
G01X5108125Y2808841D01*
G01X5102537Y2814683D01*
G01X5224457Y2888851D02*
G01X5218869Y2900281D01*
G01X5201597Y2906123D01*
G01X5190167Y2906123D01*
G01X5173149Y2900281D01*
G01X5161719Y2883263D01*
G01X5155877Y2854561D01*
G01X5155877Y2826113D01*
G01X5161719Y2803253D01*
G01X5173149Y2791823D01*
G01X5190167Y2785981D01*
G01X5196009Y2785981D01*
G01X5213027Y2791823D01*
G01X5224457Y2803253D01*
G01X5230299Y2820271D01*
G01X5230299Y2826113D01*
G01X5224457Y2843131D01*
G01X5213027Y2854561D01*
G01X5196009Y2860403D01*
G01X5190167Y2860403D01*
G01X5173149Y2854561D01*
G01X5161719Y2843131D01*
G01X5155877Y2826113D01*
G01X5312341Y2906123D02*
G01X5295323Y2900281D01*
G01X5283893Y2883263D01*
G01X5278051Y2854561D01*
G01X5278051Y2837543D01*
G01X5283893Y2808841D01*
G01X5295323Y2791823D01*
G01X5312341Y2785981D01*
G01X5323771Y2785981D01*
G01X5341043Y2791823D01*
G01X5352473Y2808841D01*
G01X5358061Y2837543D01*
G01X5358061Y2854561D01*
G01X5352473Y2883263D01*
G01X5341043Y2900281D01*
G01X5323771Y2906123D01*
G01X5312341Y2906123D01*
G01X5440103Y2906123D02*
G01X5423085Y2900281D01*
G01X5411655Y2883263D01*
G01X5405813Y2854561D01*
G01X5405813Y2837543D01*
G01X5411655Y2808841D01*
G01X5423085Y2791823D01*
G01X5440103Y2785981D01*
G01X5451533Y2785981D01*
G01X5468805Y2791823D01*
G01X5480235Y2808841D01*
G01X5485823Y2837543D01*
G01X5485823Y2854561D01*
G01X5480235Y2883263D01*
G01X5468805Y2900281D01*
G01X5451533Y2906123D01*
G01X5440103Y2906123D01*
G01X5533575Y2865991D02*
G01X5596567Y2785981D01*
G01X5596567Y2865991D02*
G01X5533575Y2785981D01*
G01X5644319Y2883263D02*
G01X5655749Y2888851D01*
G01X5673021Y2906123D01*
G01X5673021Y2785981D01*
G01X5726615Y2814683D02*
G01X5720773Y2808841D01*
G01X5726615Y2803253D01*
G01X5732203Y2808841D01*
G01X5726615Y2814683D01*
G01X5848535Y2906123D02*
G01X5791385Y2906123D01*
G01X5785797Y2854561D01*
G01X5791385Y2860403D01*
G01X5808657Y2865991D01*
G01X5825675Y2865991D01*
G01X5842947Y2860403D01*
G01X5854377Y2848973D01*
G01X5859965Y2831701D01*
G01X5859965Y2820271D01*
G01X5854377Y2803253D01*
G01X5842947Y2791823D01*
G01X5825675Y2785981D01*
G01X5808657Y2785981D01*
G01X5791385Y2791823D01*
G01X5785797Y2797411D01*
G01X5779955Y2808841D01*
G01X5942007Y2906123D02*
G01X5924989Y2900281D01*
G01X5913559Y2883263D01*
G01X5907717Y2854561D01*
G01X5907717Y2837543D01*
G01X5913559Y2808841D01*
G01X5924989Y2791823D01*
G01X5942007Y2785981D01*
G01X5953437Y2785981D01*
G01X5970709Y2791823D01*
G01X5982139Y2808841D01*
G01X5987727Y2837543D01*
G01X5987727Y2854561D01*
G01X5982139Y2883263D01*
G01X5970709Y2900281D01*
G01X5953437Y2906123D01*
G01X5942007Y2906123D01*
G01X6069769Y2906123D02*
G01X6052751Y2900281D01*
G01X6041321Y2883263D01*
G01X6035479Y2854561D01*
G01X6035479Y2837543D01*
G01X6041321Y2808841D01*
G01X6052751Y2791823D01*
G01X6069769Y2785981D01*
G01X6081199Y2785981D01*
G01X6098471Y2791823D01*
G01X6109901Y2808841D01*
G01X6115489Y2837543D01*
G01X6115489Y2854561D01*
G01X6109901Y2883263D01*
G01X6098471Y2900281D01*
G01X6081199Y2906123D01*
G01X6069769Y2906123D01*
G01X6163241Y2865991D02*
G01X6163241Y2785981D01*
G01X6163241Y2843131D02*
G01X6180513Y2860403D01*
G01X6191943Y2865991D01*
G01X6208961Y2865991D01*
G01X6220391Y2860403D01*
G01X6226233Y2843131D01*
G01X6226233Y2785981D01*
G01X6226233Y2843131D02*
G01X6243251Y2860403D01*
G01X6254681Y2865991D01*
G01X6271953Y2865991D01*
G01X6283383Y2860403D01*
G01X6288971Y2843131D01*
G01X6288971Y2785981D01*
G01X6336723Y2865991D02*
G01X6336723Y2785981D01*
G01X6336723Y2843131D02*
G01X6353995Y2860403D01*
G01X6365425Y2865991D01*
G01X6382443Y2865991D01*
G01X6393873Y2860403D01*
G01X6399715Y2843131D01*
G01X6399715Y2785981D01*
G01X6399715Y2843131D02*
G01X6416733Y2860403D01*
G01X6428163Y2865991D01*
G01X6445435Y2865991D01*
G01X6456865Y2860403D01*
G01X6462453Y2843131D01*
G01X6462453Y2785981D01*
G01X6510205Y2928983D02*
G01X6521635Y2917553D01*
G01X6533065Y2900281D01*
G01X6544495Y2877421D01*
G01X6550337Y2848973D01*
G01X6550337Y2826113D01*
G01X6544495Y2797411D01*
G01X6533065Y2774551D01*
G01X6521635Y2757533D01*
G01X6510205Y2746103D01*
G01X7555561Y2906123D02*
G01X7555561Y2785981D01*
G01X7555561Y2906123D02*
G01X7607123Y2906123D01*
G01X7624141Y2900281D01*
G01X7629983Y2894693D01*
G01X7635571Y2883263D01*
G01X7635571Y2865991D01*
G01X7629983Y2854561D01*
G01X7624141Y2848973D01*
G01X7607123Y2843131D01*
G01X7555561Y2843131D01*
G01X7723455Y2906123D02*
G01X7723455Y2785981D01*
G01X7683323Y2906123D02*
G01X7763333Y2906123D01*
G01X7811085Y2906123D02*
G01X7811085Y2785981D01*
G01X7891095Y2906123D02*
G01X7891095Y2785981D01*
G01X7811085Y2848973D02*
G01X7891095Y2848973D01*
G01X9096978Y2888851D02*
G01X9085548Y2900281D01*
G01X9068530Y2906123D01*
G01X9045670Y2906123D01*
G01X9028398Y2900281D01*
G01X9016968Y2888851D01*
G01X9016968Y2877421D01*
G01X9022810Y2865991D01*
G01X9028398Y2860403D01*
G01X9039828Y2854561D01*
G01X9074118Y2843131D01*
G01X9085548Y2837543D01*
G01X9091390Y2831701D01*
G01X9096978Y2820271D01*
G01X9096978Y2803253D01*
G01X9085548Y2791823D01*
G01X9068530Y2785981D01*
G01X9045670Y2785981D01*
G01X9028398Y2791823D01*
G01X9016968Y2803253D01*
G01X9144730Y2906123D02*
G01X9144730Y2785981D01*
G01X9221184Y2865991D02*
G01X9209754Y2860403D01*
G01X9198324Y2848973D01*
G01X9192482Y2831701D01*
G01X9192482Y2820271D01*
G01X9198324Y2803253D01*
G01X9209754Y2791823D01*
G01X9221184Y2785981D01*
G01X9238202Y2785981D01*
G01X9249632Y2791823D01*
G01X9261062Y2803253D01*
G01X9266904Y2820271D01*
G01X9266904Y2831701D01*
G01X9261062Y2848973D01*
G01X9249632Y2860403D01*
G01X9238202Y2865991D01*
G01X9221184Y2865991D01*
G01X9331928Y2906123D02*
G01X9331928Y2808841D01*
G01X9337516Y2791823D01*
G01X9348946Y2785981D01*
G01X9360376Y2785981D01*
G01X9314656Y2865991D02*
G01X9354788Y2865991D01*
G01X10448149Y2906123D02*
G01X10448149Y2785981D01*
G01X10448149Y2906123D02*
G01X10499711Y2906123D01*
G01X10516729Y2900281D01*
G01X10522571Y2894693D01*
G01X10528159Y2883263D01*
G01X10528159Y2865991D01*
G01X10522571Y2854561D01*
G01X10516729Y2848973D01*
G01X10499711Y2843131D01*
G01X10448149Y2843131D01*
G01X10644491Y2865991D02*
G01X10644491Y2785981D01*
G01X10644491Y2848973D02*
G01X10633061Y2860403D01*
G01X10621631Y2865991D01*
G01X10604613Y2865991D01*
G01X10593183Y2860403D01*
G01X10581753Y2848973D01*
G01X10575911Y2831701D01*
G01X10575911Y2820271D01*
G01X10581753Y2803253D01*
G01X10593183Y2791823D01*
G01X10604613Y2785981D01*
G01X10621631Y2785981D01*
G01X10633061Y2791823D01*
G01X10644491Y2803253D01*
G01X10760823Y2906123D02*
G01X10760823Y2785981D01*
G01X10760823Y2848973D02*
G01X10749393Y2860403D01*
G01X10737963Y2865991D01*
G01X10720945Y2865991D01*
G01X10709515Y2860403D01*
G01X10698085Y2848973D01*
G01X10692243Y2831701D01*
G01X10692243Y2820271D01*
G01X10698085Y2803253D01*
G01X10709515Y2791823D01*
G01X10720945Y2785981D01*
G01X10737963Y2785981D01*
G01X10749393Y2791823D01*
G01X10760823Y2803253D01*
G01X12151618Y2906123D02*
G01X12140188Y2900281D01*
G01X12128758Y2888851D01*
G01X12123170Y2877421D01*
G01X12117328Y2860403D01*
G01X12117328Y2831701D01*
G01X12123170Y2814683D01*
G01X12128758Y2803253D01*
G01X12140188Y2791823D01*
G01X12151618Y2785981D01*
G01X12174478Y2785981D01*
G01X12185908Y2791823D01*
G01X12197338Y2803253D01*
G01X12203180Y2814683D01*
G01X12208768Y2831701D01*
G01X12208768Y2860403D01*
G01X12203180Y2877421D01*
G01X12197338Y2888851D01*
G01X12185908Y2900281D01*
G01X12174478Y2906123D01*
G01X12151618Y2906123D01*
G01X12256520Y2865991D02*
G01X12290810Y2785981D01*
G01X12325100Y2865991D02*
G01X12290810Y2785981D01*
G01X12441432Y2865991D02*
G01X12441432Y2785981D01*
G01X12441432Y2848973D02*
G01X12430002Y2860403D01*
G01X12418572Y2865991D01*
G01X12401554Y2865991D01*
G01X12390124Y2860403D01*
G01X12378694Y2848973D01*
G01X12372852Y2831701D01*
G01X12372852Y2820271D01*
G01X12378694Y2803253D01*
G01X12390124Y2791823D01*
G01X12401554Y2785981D01*
G01X12418572Y2785981D01*
G01X12430002Y2791823D01*
G01X12441432Y2803253D01*
G01X12489184Y2906123D02*
G01X12489184Y2785981D01*
G01X14076829Y2906123D02*
G01X14076829Y2785981D01*
G01X14036697Y2906123D02*
G01X14116707Y2906123D01*
G01X14193161Y2865991D02*
G01X14181731Y2860403D01*
G01X14170301Y2848973D01*
G01X14164459Y2831701D01*
G01X14164459Y2820271D01*
G01X14170301Y2803253D01*
G01X14181731Y2791823D01*
G01X14193161Y2785981D01*
G01X14210179Y2785981D01*
G01X14221609Y2791823D01*
G01X14233039Y2803253D01*
G01X14238881Y2820271D01*
G01X14238881Y2831701D01*
G01X14233039Y2848973D01*
G01X14221609Y2860403D01*
G01X14210179Y2865991D01*
G01X14193161Y2865991D01*
G01X14286633Y2865991D02*
G01X14286633Y2746103D01*
G01X14286633Y2848973D02*
G01X14298063Y2860403D01*
G01X14309493Y2865991D01*
G01X14326765Y2865991D01*
G01X14338195Y2860403D01*
G01X14349625Y2848973D01*
G01X14355213Y2831701D01*
G01X14355213Y2820271D01*
G01X14349625Y2803253D01*
G01X14338195Y2791823D01*
G01X14326765Y2785981D01*
G01X14309493Y2785981D01*
G01X14298063Y2791823D01*
G01X14286633Y2803253D01*
G01X14530981Y2906123D02*
G01X14530981Y2785981D01*
G01X14530981Y2785981D02*
G01X14599561Y2785981D01*
G01X14715893Y2865991D02*
G01X14715893Y2785981D01*
G01X14715893Y2848973D02*
G01X14704463Y2860403D01*
G01X14693033Y2865991D01*
G01X14676015Y2865991D01*
G01X14664585Y2860403D01*
G01X14653155Y2848973D01*
G01X14647313Y2831701D01*
G01X14647313Y2820271D01*
G01X14653155Y2803253D01*
G01X14664585Y2791823D01*
G01X14676015Y2785981D01*
G01X14693033Y2785981D01*
G01X14704463Y2791823D01*
G01X14715893Y2803253D01*
G01X14769487Y2865991D02*
G01X14803777Y2785981D01*
G01X14838067Y2865991D02*
G01X14803777Y2785981D01*
G01X14792347Y2763121D01*
G01X14780917Y2751691D01*
G01X14769487Y2746103D01*
G01X14763645Y2746103D01*
G01X14885819Y2831701D02*
G01X14954399Y2831701D01*
G01X14954399Y2843131D01*
G01X14948811Y2854561D01*
G01X14942969Y2860403D01*
G01X14931539Y2865991D01*
G01X14914521Y2865991D01*
G01X14903091Y2860403D01*
G01X14891661Y2848973D01*
G01X14885819Y2831701D01*
G01X14885819Y2820271D01*
G01X14891661Y2803253D01*
G01X14903091Y2791823D01*
G01X14914521Y2785981D01*
G01X14931539Y2785981D01*
G01X14942969Y2791823D01*
G01X14954399Y2803253D01*
G01X15002151Y2865991D02*
G01X15002151Y2785981D01*
G01X15002151Y2831701D02*
G01X15007993Y2848973D01*
G01X15019423Y2860403D01*
G01X15030853Y2865991D01*
G01X15047871Y2865991D01*
G01X15095623Y2837543D02*
G01X15198493Y2837543D01*
G01X15246245Y2906123D02*
G01X15246245Y2785981D01*
G01X15246245Y2906123D02*
G01X15297807Y2906123D01*
G01X15314825Y2900281D01*
G01X15320667Y2894693D01*
G01X15326255Y2883263D01*
G01X15326255Y2871833D01*
G01X15320667Y2860403D01*
G01X15314825Y2854561D01*
G01X15297807Y2848973D01*
G01X15246245Y2848973D02*
G01X15297807Y2848973D01*
G01X15314825Y2843131D01*
G01X15320667Y2837543D01*
G01X15326255Y2826113D01*
G01X15326255Y2808841D01*
G01X15320667Y2797411D01*
G01X15314825Y2791823D01*
G01X15297807Y2785981D01*
G01X15246245Y2785981D01*
G01X15402709Y2865991D02*
G01X15391279Y2860403D01*
G01X15379849Y2848973D01*
G01X15374007Y2831701D01*
G01X15374007Y2820271D01*
G01X15379849Y2803253D01*
G01X15391279Y2791823D01*
G01X15402709Y2785981D01*
G01X15419727Y2785981D01*
G01X15431157Y2791823D01*
G01X15442587Y2803253D01*
G01X15448429Y2820271D01*
G01X15448429Y2831701D01*
G01X15442587Y2848973D01*
G01X15431157Y2860403D01*
G01X15419727Y2865991D01*
G01X15402709Y2865991D01*
G01X15513453Y2906123D02*
G01X15513453Y2808841D01*
G01X15519041Y2791823D01*
G01X15530471Y2785981D01*
G01X15541901Y2785981D01*
G01X15496181Y2865991D02*
G01X15536313Y2865991D01*
G01X15606925Y2906123D02*
G01X15606925Y2808841D01*
G01X15612513Y2791823D01*
G01X15623943Y2785981D01*
G01X15635373Y2785981D01*
G01X15589653Y2865991D02*
G01X15629785Y2865991D01*
G01X15711827Y2865991D02*
G01X15700397Y2860403D01*
G01X15688967Y2848973D01*
G01X15683125Y2831701D01*
G01X15683125Y2820271D01*
G01X15688967Y2803253D01*
G01X15700397Y2791823D01*
G01X15711827Y2785981D01*
G01X15728845Y2785981D01*
G01X15740275Y2791823D01*
G01X15751705Y2803253D01*
G01X15757547Y2820271D01*
G01X15757547Y2831701D01*
G01X15751705Y2848973D01*
G01X15740275Y2860403D01*
G01X15728845Y2865991D01*
G01X15711827Y2865991D01*
G01X15805299Y2865991D02*
G01X15805299Y2785981D01*
G01X15805299Y2843131D02*
G01X15822571Y2860403D01*
G01X15834001Y2865991D01*
G01X15851019Y2865991D01*
G01X15862449Y2860403D01*
G01X15868291Y2843131D01*
G01X15868291Y2785981D01*
G01X15868291Y2843131D02*
G01X15885309Y2860403D01*
G01X15896739Y2865991D01*
G01X15914011Y2865991D01*
G01X15925441Y2860403D01*
G01X15931029Y2843131D01*
G01X15931029Y2785981D01*
G01X16106797Y2906123D02*
G01X16106797Y2785981D01*
G01X16106797Y2785981D02*
G01X16175377Y2785981D01*
G01X16291709Y2865991D02*
G01X16291709Y2785981D01*
G01X16291709Y2848973D02*
G01X16280279Y2860403D01*
G01X16268849Y2865991D01*
G01X16251831Y2865991D01*
G01X16240401Y2860403D01*
G01X16228971Y2848973D01*
G01X16223129Y2831701D01*
G01X16223129Y2820271D01*
G01X16228971Y2803253D01*
G01X16240401Y2791823D01*
G01X16251831Y2785981D01*
G01X16268849Y2785981D01*
G01X16280279Y2791823D01*
G01X16291709Y2803253D01*
G01X16345303Y2865991D02*
G01X16379593Y2785981D01*
G01X16413883Y2865991D02*
G01X16379593Y2785981D01*
G01X16368163Y2763121D01*
G01X16356733Y2751691D01*
G01X16345303Y2746103D01*
G01X16339461Y2746103D01*
G01X16461635Y2831701D02*
G01X16530215Y2831701D01*
G01X16530215Y2843131D01*
G01X16524627Y2854561D01*
G01X16518785Y2860403D01*
G01X16507355Y2865991D01*
G01X16490337Y2865991D01*
G01X16478907Y2860403D01*
G01X16467477Y2848973D01*
G01X16461635Y2831701D01*
G01X16461635Y2820271D01*
G01X16467477Y2803253D01*
G01X16478907Y2791823D01*
G01X16490337Y2785981D01*
G01X16507355Y2785981D01*
G01X16518785Y2791823D01*
G01X16530215Y2803253D01*
G01X16577967Y2865991D02*
G01X16577967Y2785981D01*
G01X16577967Y2831701D02*
G01X16583809Y2848973D01*
G01X16595239Y2860403D01*
G01X16606669Y2865991D01*
G01X16623687Y2865991D01*
G01X2259116Y2296849D02*
G01X2259116Y2302691D01*
G01X2264704Y2314121D01*
G01X2270546Y2319709D01*
G01X2281976Y2325551D01*
G01X2304836Y2325551D01*
G01X2316266Y2319709D01*
G01X2321854Y2314121D01*
G01X2327696Y2302691D01*
G01X2327696Y2291261D01*
G01X2321854Y2279831D01*
G01X2310424Y2262559D01*
G01X2253274Y2205409D01*
G01X2333284Y2205409D01*
G01X3673279Y2296849D02*
G01X3673279Y2302691D01*
G01X3678867Y2314121D01*
G01X3684709Y2319709D01*
G01X3696139Y2325551D01*
G01X3718999Y2325551D01*
G01X3730429Y2319709D01*
G01X3736017Y2314121D01*
G01X3741859Y2302691D01*
G01X3741859Y2291261D01*
G01X3736017Y2279831D01*
G01X3724587Y2262559D01*
G01X3667437Y2205409D01*
G01X3747447Y2205409D01*
G01X3806629Y2325551D02*
G01X3869621Y2325551D01*
G01X3835331Y2279831D01*
G01X3852349Y2279831D01*
G01X3863779Y2273989D01*
G01X3869621Y2268401D01*
G01X3875209Y2251129D01*
G01X3875209Y2239699D01*
G01X3869621Y2222681D01*
G01X3858191Y2211251D01*
G01X3840919Y2205409D01*
G01X3823901Y2205409D01*
G01X3806629Y2211251D01*
G01X3801041Y2216839D01*
G01X3795199Y2228269D01*
G01X3928803Y2234111D02*
G01X3922961Y2228269D01*
G01X3928803Y2222681D01*
G01X3934391Y2228269D01*
G01X3928803Y2234111D01*
G01X4050723Y2308279D02*
G01X4045135Y2319709D01*
G01X4027863Y2325551D01*
G01X4016433Y2325551D01*
G01X3999415Y2319709D01*
G01X3987985Y2302691D01*
G01X3982143Y2273989D01*
G01X3982143Y2245541D01*
G01X3987985Y2222681D01*
G01X3999415Y2211251D01*
G01X4016433Y2205409D01*
G01X4022275Y2205409D01*
G01X4039293Y2211251D01*
G01X4050723Y2222681D01*
G01X4056565Y2239699D01*
G01X4056565Y2245541D01*
G01X4050723Y2262559D01*
G01X4039293Y2273989D01*
G01X4022275Y2279831D01*
G01X4016433Y2279831D01*
G01X3999415Y2273989D01*
G01X3987985Y2262559D01*
G01X3982143Y2245541D01*
G01X4104317Y2285419D02*
G01X4167309Y2205409D01*
G01X4167309Y2285419D02*
G01X4104317Y2205409D01*
G01X4272211Y2325551D02*
G01X4215061Y2245541D01*
G01X4300913Y2245541D01*
G01X4272211Y2325551D02*
G01X4272211Y2205409D01*
G01X4428675Y2325551D02*
G01X4371525Y2205409D01*
G01X4348665Y2325551D02*
G01X4428675Y2325551D01*
G01X4482269Y2234111D02*
G01X4476427Y2228269D01*
G01X4482269Y2222681D01*
G01X4487857Y2228269D01*
G01X4482269Y2234111D01*
G01X4541451Y2296849D02*
G01X4541451Y2302691D01*
G01X4547039Y2314121D01*
G01X4552881Y2319709D01*
G01X4564311Y2325551D01*
G01X4587171Y2325551D01*
G01X4598601Y2319709D01*
G01X4604189Y2314121D01*
G01X4610031Y2302691D01*
G01X4610031Y2291261D01*
G01X4604189Y2279831D01*
G01X4592759Y2262559D01*
G01X4535609Y2205409D01*
G01X4615619Y2205409D01*
G01X4663371Y2285419D02*
G01X4663371Y2205409D01*
G01X4663371Y2262559D02*
G01X4680643Y2279831D01*
G01X4692073Y2285419D01*
G01X4709091Y2285419D01*
G01X4720521Y2279831D01*
G01X4726363Y2262559D01*
G01X4726363Y2205409D01*
G01X4726363Y2262559D02*
G01X4743381Y2279831D01*
G01X4754811Y2285419D01*
G01X4772083Y2285419D01*
G01X4783513Y2279831D01*
G01X4789101Y2262559D01*
G01X4789101Y2205409D01*
G01X4836853Y2325551D02*
G01X4842695Y2319709D01*
G01X4848283Y2325551D01*
G01X4842695Y2331139D01*
G01X4836853Y2325551D01*
G01X4842695Y2285419D02*
G01X4842695Y2205409D01*
G01X4896035Y2325551D02*
G01X4896035Y2205409D01*
G01X4983919Y2348411D02*
G01X4972489Y2336981D01*
G01X4961059Y2319709D01*
G01X4949629Y2296849D01*
G01X4943787Y2268401D01*
G01X4943787Y2245541D01*
G01X4949629Y2216839D01*
G01X4961059Y2193979D01*
G01X4972489Y2176961D01*
G01X4983919Y2165531D01*
G01X5065961Y2325551D02*
G01X5048943Y2319709D01*
G01X5037513Y2302691D01*
G01X5031671Y2273989D01*
G01X5031671Y2256971D01*
G01X5037513Y2228269D01*
G01X5048943Y2211251D01*
G01X5065961Y2205409D01*
G01X5077391Y2205409D01*
G01X5094663Y2211251D01*
G01X5106093Y2228269D01*
G01X5111681Y2256971D01*
G01X5111681Y2273989D01*
G01X5106093Y2302691D01*
G01X5094663Y2319709D01*
G01X5077391Y2325551D01*
G01X5065961Y2325551D01*
G01X5165275Y2234111D02*
G01X5159433Y2228269D01*
G01X5165275Y2222681D01*
G01X5170863Y2228269D01*
G01X5165275Y2234111D01*
G01X5287195Y2308279D02*
G01X5281607Y2319709D01*
G01X5264335Y2325551D01*
G01X5252905Y2325551D01*
G01X5235887Y2319709D01*
G01X5224457Y2302691D01*
G01X5218615Y2273989D01*
G01X5218615Y2245541D01*
G01X5224457Y2222681D01*
G01X5235887Y2211251D01*
G01X5252905Y2205409D01*
G01X5258747Y2205409D01*
G01X5275765Y2211251D01*
G01X5287195Y2222681D01*
G01X5293037Y2239699D01*
G01X5293037Y2245541D01*
G01X5287195Y2262559D01*
G01X5275765Y2273989D01*
G01X5258747Y2279831D01*
G01X5252905Y2279831D01*
G01X5235887Y2273989D01*
G01X5224457Y2262559D01*
G01X5218615Y2245541D01*
G01X5375079Y2325551D02*
G01X5358061Y2319709D01*
G01X5346631Y2302691D01*
G01X5340789Y2273989D01*
G01X5340789Y2256971D01*
G01X5346631Y2228269D01*
G01X5358061Y2211251D01*
G01X5375079Y2205409D01*
G01X5386509Y2205409D01*
G01X5403781Y2211251D01*
G01X5415211Y2228269D01*
G01X5420799Y2256971D01*
G01X5420799Y2273989D01*
G01X5415211Y2302691D01*
G01X5403781Y2319709D01*
G01X5386509Y2325551D01*
G01X5375079Y2325551D01*
G01X5502841Y2325551D02*
G01X5485823Y2319709D01*
G01X5474393Y2302691D01*
G01X5468551Y2273989D01*
G01X5468551Y2256971D01*
G01X5474393Y2228269D01*
G01X5485823Y2211251D01*
G01X5502841Y2205409D01*
G01X5514271Y2205409D01*
G01X5531543Y2211251D01*
G01X5542973Y2228269D01*
G01X5548561Y2256971D01*
G01X5548561Y2273989D01*
G01X5542973Y2302691D01*
G01X5531543Y2319709D01*
G01X5514271Y2325551D01*
G01X5502841Y2325551D01*
G01X5596313Y2285419D02*
G01X5659305Y2205409D01*
G01X5659305Y2285419D02*
G01X5596313Y2205409D01*
G01X5707057Y2302691D02*
G01X5718487Y2308279D01*
G01X5735759Y2325551D01*
G01X5735759Y2205409D01*
G01X5789353Y2234111D02*
G01X5783511Y2228269D01*
G01X5789353Y2222681D01*
G01X5794941Y2228269D01*
G01X5789353Y2234111D01*
G01X5848535Y2296849D02*
G01X5848535Y2302691D01*
G01X5854123Y2314121D01*
G01X5859965Y2319709D01*
G01X5871395Y2325551D01*
G01X5894255Y2325551D01*
G01X5905685Y2319709D01*
G01X5911273Y2314121D01*
G01X5917115Y2302691D01*
G01X5917115Y2291261D01*
G01X5911273Y2279831D01*
G01X5899843Y2262559D01*
G01X5842693Y2205409D01*
G01X5922703Y2205409D01*
G01X6004745Y2325551D02*
G01X5987727Y2319709D01*
G01X5976297Y2302691D01*
G01X5970455Y2273989D01*
G01X5970455Y2256971D01*
G01X5976297Y2228269D01*
G01X5987727Y2211251D01*
G01X6004745Y2205409D01*
G01X6016175Y2205409D01*
G01X6033447Y2211251D01*
G01X6044877Y2228269D01*
G01X6050465Y2256971D01*
G01X6050465Y2273989D01*
G01X6044877Y2302691D01*
G01X6033447Y2319709D01*
G01X6016175Y2325551D01*
G01X6004745Y2325551D01*
G01X6132507Y2325551D02*
G01X6115489Y2319709D01*
G01X6104059Y2302691D01*
G01X6098217Y2273989D01*
G01X6098217Y2256971D01*
G01X6104059Y2228269D01*
G01X6115489Y2211251D01*
G01X6132507Y2205409D01*
G01X6143937Y2205409D01*
G01X6161209Y2211251D01*
G01X6172639Y2228269D01*
G01X6178227Y2256971D01*
G01X6178227Y2273989D01*
G01X6172639Y2302691D01*
G01X6161209Y2319709D01*
G01X6143937Y2325551D01*
G01X6132507Y2325551D01*
G01X6225979Y2285419D02*
G01X6225979Y2205409D01*
G01X6225979Y2262559D02*
G01X6243251Y2279831D01*
G01X6254681Y2285419D01*
G01X6271699Y2285419D01*
G01X6283129Y2279831D01*
G01X6288971Y2262559D01*
G01X6288971Y2205409D01*
G01X6288971Y2262559D02*
G01X6305989Y2279831D01*
G01X6317419Y2285419D01*
G01X6334691Y2285419D01*
G01X6346121Y2279831D01*
G01X6351709Y2262559D01*
G01X6351709Y2205409D01*
G01X6399461Y2285419D02*
G01X6399461Y2205409D01*
G01X6399461Y2262559D02*
G01X6416733Y2279831D01*
G01X6428163Y2285419D01*
G01X6445181Y2285419D01*
G01X6456611Y2279831D01*
G01X6462453Y2262559D01*
G01X6462453Y2205409D01*
G01X6462453Y2262559D02*
G01X6479471Y2279831D01*
G01X6490901Y2285419D01*
G01X6508173Y2285419D01*
G01X6519603Y2279831D01*
G01X6525191Y2262559D01*
G01X6525191Y2205409D01*
G01X6572943Y2348411D02*
G01X6584373Y2336981D01*
G01X6595803Y2319709D01*
G01X6607233Y2296849D01*
G01X6613075Y2268401D01*
G01X6613075Y2245541D01*
G01X6607233Y2216839D01*
G01X6595803Y2193979D01*
G01X6584373Y2176961D01*
G01X6572943Y2165531D01*
G01X7555561Y2325551D02*
G01X7555561Y2205409D01*
G01X7555561Y2325551D02*
G01X7607123Y2325551D01*
G01X7624141Y2319709D01*
G01X7629983Y2314121D01*
G01X7635571Y2302691D01*
G01X7635571Y2285419D01*
G01X7629983Y2273989D01*
G01X7624141Y2268401D01*
G01X7607123Y2262559D01*
G01X7555561Y2262559D01*
G01X7723455Y2325551D02*
G01X7723455Y2205409D01*
G01X7683323Y2325551D02*
G01X7763333Y2325551D01*
G01X7811085Y2325551D02*
G01X7811085Y2205409D01*
G01X7891095Y2325551D02*
G01X7891095Y2205409D01*
G01X7811085Y2268401D02*
G01X7891095Y2268401D01*
G01X9096978Y2308279D02*
G01X9085548Y2319709D01*
G01X9068530Y2325551D01*
G01X9045670Y2325551D01*
G01X9028398Y2319709D01*
G01X9016968Y2308279D01*
G01X9016968Y2296849D01*
G01X9022810Y2285419D01*
G01X9028398Y2279831D01*
G01X9039828Y2273989D01*
G01X9074118Y2262559D01*
G01X9085548Y2256971D01*
G01X9091390Y2251129D01*
G01X9096978Y2239699D01*
G01X9096978Y2222681D01*
G01X9085548Y2211251D01*
G01X9068530Y2205409D01*
G01X9045670Y2205409D01*
G01X9028398Y2211251D01*
G01X9016968Y2222681D01*
G01X9144730Y2325551D02*
G01X9144730Y2205409D01*
G01X9221184Y2285419D02*
G01X9209754Y2279831D01*
G01X9198324Y2268401D01*
G01X9192482Y2251129D01*
G01X9192482Y2239699D01*
G01X9198324Y2222681D01*
G01X9209754Y2211251D01*
G01X9221184Y2205409D01*
G01X9238202Y2205409D01*
G01X9249632Y2211251D01*
G01X9261062Y2222681D01*
G01X9266904Y2239699D01*
G01X9266904Y2251129D01*
G01X9261062Y2268401D01*
G01X9249632Y2279831D01*
G01X9238202Y2285419D01*
G01X9221184Y2285419D01*
G01X9331928Y2325551D02*
G01X9331928Y2228269D01*
G01X9337516Y2211251D01*
G01X9348946Y2205409D01*
G01X9360376Y2205409D01*
G01X9314656Y2285419D02*
G01X9354788Y2285419D01*
G01X10448149Y2325551D02*
G01X10448149Y2205409D01*
G01X10448149Y2325551D02*
G01X10499711Y2325551D01*
G01X10516729Y2319709D01*
G01X10522571Y2314121D01*
G01X10528159Y2302691D01*
G01X10528159Y2285419D01*
G01X10522571Y2273989D01*
G01X10516729Y2268401D01*
G01X10499711Y2262559D01*
G01X10448149Y2262559D01*
G01X10644491Y2285419D02*
G01X10644491Y2205409D01*
G01X10644491Y2268401D02*
G01X10633061Y2279831D01*
G01X10621631Y2285419D01*
G01X10604613Y2285419D01*
G01X10593183Y2279831D01*
G01X10581753Y2268401D01*
G01X10575911Y2251129D01*
G01X10575911Y2239699D01*
G01X10581753Y2222681D01*
G01X10593183Y2211251D01*
G01X10604613Y2205409D01*
G01X10621631Y2205409D01*
G01X10633061Y2211251D01*
G01X10644491Y2222681D01*
G01X10760823Y2325551D02*
G01X10760823Y2205409D01*
G01X10760823Y2268401D02*
G01X10749393Y2279831D01*
G01X10737963Y2285419D01*
G01X10720945Y2285419D01*
G01X10709515Y2279831D01*
G01X10698085Y2268401D01*
G01X10692243Y2251129D01*
G01X10692243Y2239699D01*
G01X10698085Y2222681D01*
G01X10709515Y2211251D01*
G01X10720945Y2205409D01*
G01X10737963Y2205409D01*
G01X10749393Y2211251D01*
G01X10760823Y2222681D01*
G01X12151618Y2325551D02*
G01X12140188Y2319709D01*
G01X12128758Y2308279D01*
G01X12123170Y2296849D01*
G01X12117328Y2279831D01*
G01X12117328Y2251129D01*
G01X12123170Y2234111D01*
G01X12128758Y2222681D01*
G01X12140188Y2211251D01*
G01X12151618Y2205409D01*
G01X12174478Y2205409D01*
G01X12185908Y2211251D01*
G01X12197338Y2222681D01*
G01X12203180Y2234111D01*
G01X12208768Y2251129D01*
G01X12208768Y2279831D01*
G01X12203180Y2296849D01*
G01X12197338Y2308279D01*
G01X12185908Y2319709D01*
G01X12174478Y2325551D01*
G01X12151618Y2325551D01*
G01X12256520Y2285419D02*
G01X12290810Y2205409D01*
G01X12325100Y2285419D02*
G01X12290810Y2205409D01*
G01X12441432Y2285419D02*
G01X12441432Y2205409D01*
G01X12441432Y2268401D02*
G01X12430002Y2279831D01*
G01X12418572Y2285419D01*
G01X12401554Y2285419D01*
G01X12390124Y2279831D01*
G01X12378694Y2268401D01*
G01X12372852Y2251129D01*
G01X12372852Y2239699D01*
G01X12378694Y2222681D01*
G01X12390124Y2211251D01*
G01X12401554Y2205409D01*
G01X12418572Y2205409D01*
G01X12430002Y2211251D01*
G01X12441432Y2222681D01*
G01X12489184Y2325551D02*
G01X12489184Y2205409D01*
G01X14076829Y2325551D02*
G01X14076829Y2205409D01*
G01X14036697Y2325551D02*
G01X14116707Y2325551D01*
G01X14193161Y2285419D02*
G01X14181731Y2279831D01*
G01X14170301Y2268401D01*
G01X14164459Y2251129D01*
G01X14164459Y2239699D01*
G01X14170301Y2222681D01*
G01X14181731Y2211251D01*
G01X14193161Y2205409D01*
G01X14210179Y2205409D01*
G01X14221609Y2211251D01*
G01X14233039Y2222681D01*
G01X14238881Y2239699D01*
G01X14238881Y2251129D01*
G01X14233039Y2268401D01*
G01X14221609Y2279831D01*
G01X14210179Y2285419D01*
G01X14193161Y2285419D01*
G01X14286633Y2285419D02*
G01X14286633Y2165531D01*
G01X14286633Y2268401D02*
G01X14298063Y2279831D01*
G01X14309493Y2285419D01*
G01X14326765Y2285419D01*
G01X14338195Y2279831D01*
G01X14349625Y2268401D01*
G01X14355213Y2251129D01*
G01X14355213Y2239699D01*
G01X14349625Y2222681D01*
G01X14338195Y2211251D01*
G01X14326765Y2205409D01*
G01X14309493Y2205409D01*
G01X14298063Y2211251D01*
G01X14286633Y2222681D01*
G01X14530981Y2325551D02*
G01X14530981Y2205409D01*
G01X14530981Y2205409D02*
G01X14599561Y2205409D01*
G01X14715893Y2285419D02*
G01X14715893Y2205409D01*
G01X14715893Y2268401D02*
G01X14704463Y2279831D01*
G01X14693033Y2285419D01*
G01X14676015Y2285419D01*
G01X14664585Y2279831D01*
G01X14653155Y2268401D01*
G01X14647313Y2251129D01*
G01X14647313Y2239699D01*
G01X14653155Y2222681D01*
G01X14664585Y2211251D01*
G01X14676015Y2205409D01*
G01X14693033Y2205409D01*
G01X14704463Y2211251D01*
G01X14715893Y2222681D01*
G01X14769487Y2285419D02*
G01X14803777Y2205409D01*
G01X14838067Y2285419D02*
G01X14803777Y2205409D01*
G01X14792347Y2182549D01*
G01X14780917Y2171119D01*
G01X14769487Y2165531D01*
G01X14763645Y2165531D01*
G01X14885819Y2251129D02*
G01X14954399Y2251129D01*
G01X14954399Y2262559D01*
G01X14948811Y2273989D01*
G01X14942969Y2279831D01*
G01X14931539Y2285419D01*
G01X14914521Y2285419D01*
G01X14903091Y2279831D01*
G01X14891661Y2268401D01*
G01X14885819Y2251129D01*
G01X14885819Y2239699D01*
G01X14891661Y2222681D01*
G01X14903091Y2211251D01*
G01X14914521Y2205409D01*
G01X14931539Y2205409D01*
G01X14942969Y2211251D01*
G01X14954399Y2222681D01*
G01X15002151Y2285419D02*
G01X15002151Y2205409D01*
G01X15002151Y2251129D02*
G01X15007993Y2268401D01*
G01X15019423Y2279831D01*
G01X15030853Y2285419D01*
G01X15047871Y2285419D01*
G01X15095623Y2256971D02*
G01X15198493Y2256971D01*
G01X15246245Y2325551D02*
G01X15246245Y2205409D01*
G01X15246245Y2325551D02*
G01X15297807Y2325551D01*
G01X15314825Y2319709D01*
G01X15320667Y2314121D01*
G01X15326255Y2302691D01*
G01X15326255Y2291261D01*
G01X15320667Y2279831D01*
G01X15314825Y2273989D01*
G01X15297807Y2268401D01*
G01X15246245Y2268401D02*
G01X15297807Y2268401D01*
G01X15314825Y2262559D01*
G01X15320667Y2256971D01*
G01X15326255Y2245541D01*
G01X15326255Y2228269D01*
G01X15320667Y2216839D01*
G01X15314825Y2211251D01*
G01X15297807Y2205409D01*
G01X15246245Y2205409D01*
G01X15402709Y2285419D02*
G01X15391279Y2279831D01*
G01X15379849Y2268401D01*
G01X15374007Y2251129D01*
G01X15374007Y2239699D01*
G01X15379849Y2222681D01*
G01X15391279Y2211251D01*
G01X15402709Y2205409D01*
G01X15419727Y2205409D01*
G01X15431157Y2211251D01*
G01X15442587Y2222681D01*
G01X15448429Y2239699D01*
G01X15448429Y2251129D01*
G01X15442587Y2268401D01*
G01X15431157Y2279831D01*
G01X15419727Y2285419D01*
G01X15402709Y2285419D01*
G01X15513453Y2325551D02*
G01X15513453Y2228269D01*
G01X15519041Y2211251D01*
G01X15530471Y2205409D01*
G01X15541901Y2205409D01*
G01X15496181Y2285419D02*
G01X15536313Y2285419D01*
G01X15606925Y2325551D02*
G01X15606925Y2228269D01*
G01X15612513Y2211251D01*
G01X15623943Y2205409D01*
G01X15635373Y2205409D01*
G01X15589653Y2285419D02*
G01X15629785Y2285419D01*
G01X15711827Y2285419D02*
G01X15700397Y2279831D01*
G01X15688967Y2268401D01*
G01X15683125Y2251129D01*
G01X15683125Y2239699D01*
G01X15688967Y2222681D01*
G01X15700397Y2211251D01*
G01X15711827Y2205409D01*
G01X15728845Y2205409D01*
G01X15740275Y2211251D01*
G01X15751705Y2222681D01*
G01X15757547Y2239699D01*
G01X15757547Y2251129D01*
G01X15751705Y2268401D01*
G01X15740275Y2279831D01*
G01X15728845Y2285419D01*
G01X15711827Y2285419D01*
G01X15805299Y2285419D02*
G01X15805299Y2205409D01*
G01X15805299Y2262559D02*
G01X15822571Y2279831D01*
G01X15834001Y2285419D01*
G01X15851019Y2285419D01*
G01X15862449Y2279831D01*
G01X15868291Y2262559D01*
G01X15868291Y2205409D01*
G01X15868291Y2262559D02*
G01X15885309Y2279831D01*
G01X15896739Y2285419D01*
G01X15914011Y2285419D01*
G01X15925441Y2279831D01*
G01X15931029Y2262559D01*
G01X15931029Y2205409D01*
G01X16106797Y2325551D02*
G01X16106797Y2205409D01*
G01X16106797Y2205409D02*
G01X16175377Y2205409D01*
G01X16291709Y2285419D02*
G01X16291709Y2205409D01*
G01X16291709Y2268401D02*
G01X16280279Y2279831D01*
G01X16268849Y2285419D01*
G01X16251831Y2285419D01*
G01X16240401Y2279831D01*
G01X16228971Y2268401D01*
G01X16223129Y2251129D01*
G01X16223129Y2239699D01*
G01X16228971Y2222681D01*
G01X16240401Y2211251D01*
G01X16251831Y2205409D01*
G01X16268849Y2205409D01*
G01X16280279Y2211251D01*
G01X16291709Y2222681D01*
G01X16345303Y2285419D02*
G01X16379593Y2205409D01*
G01X16413883Y2285419D02*
G01X16379593Y2205409D01*
G01X16368163Y2182549D01*
G01X16356733Y2171119D01*
G01X16345303Y2165531D01*
G01X16339461Y2165531D01*
G01X16461635Y2251129D02*
G01X16530215Y2251129D01*
G01X16530215Y2262559D01*
G01X16524627Y2273989D01*
G01X16518785Y2279831D01*
G01X16507355Y2285419D01*
G01X16490337Y2285419D01*
G01X16478907Y2279831D01*
G01X16467477Y2268401D01*
G01X16461635Y2251129D01*
G01X16461635Y2239699D01*
G01X16467477Y2222681D01*
G01X16478907Y2211251D01*
G01X16490337Y2205409D01*
G01X16507355Y2205409D01*
G01X16518785Y2211251D01*
G01X16530215Y2222681D01*
G01X16577967Y2285419D02*
G01X16577967Y2205409D01*
G01X16577967Y2251129D02*
G01X16583809Y2268401D01*
G01X16595239Y2279831D01*
G01X16606669Y2285419D01*
G01X16623687Y2285419D01*
G01X2259116Y1716278D02*
G01X2259116Y1722120D01*
G01X2264704Y1733550D01*
G01X2270546Y1739138D01*
G01X2281976Y1744980D01*
G01X2304836Y1744980D01*
G01X2316266Y1739138D01*
G01X2321854Y1733550D01*
G01X2327696Y1722120D01*
G01X2327696Y1710690D01*
G01X2321854Y1699260D01*
G01X2310424Y1681988D01*
G01X2253274Y1624838D01*
G01X2333284Y1624838D01*
G01X3678867Y1744980D02*
G01X3741859Y1744980D01*
G01X3707569Y1699260D01*
G01X3724587Y1699260D01*
G01X3736017Y1693418D01*
G01X3741859Y1687830D01*
G01X3747447Y1670558D01*
G01X3747447Y1659128D01*
G01X3741859Y1642110D01*
G01X3730429Y1630680D01*
G01X3713157Y1624838D01*
G01X3696139Y1624838D01*
G01X3678867Y1630680D01*
G01X3673279Y1636268D01*
G01X3667437Y1647698D01*
G01X3863779Y1727708D02*
G01X3858191Y1739138D01*
G01X3840919Y1744980D01*
G01X3829489Y1744980D01*
G01X3812471Y1739138D01*
G01X3801041Y1722120D01*
G01X3795199Y1693418D01*
G01X3795199Y1664970D01*
G01X3801041Y1642110D01*
G01X3812471Y1630680D01*
G01X3829489Y1624838D01*
G01X3835331Y1624838D01*
G01X3852349Y1630680D01*
G01X3863779Y1642110D01*
G01X3869621Y1659128D01*
G01X3869621Y1664970D01*
G01X3863779Y1681988D01*
G01X3852349Y1693418D01*
G01X3835331Y1699260D01*
G01X3829489Y1699260D01*
G01X3812471Y1693418D01*
G01X3801041Y1681988D01*
G01X3795199Y1664970D01*
G01X3923215Y1653540D02*
G01X3917373Y1647698D01*
G01X3923215Y1642110D01*
G01X3928803Y1647698D01*
G01X3923215Y1653540D01*
G01X4010845Y1744980D02*
G01X3993827Y1739138D01*
G01X3982397Y1722120D01*
G01X3976555Y1693418D01*
G01X3976555Y1676400D01*
G01X3982397Y1647698D01*
G01X3993827Y1630680D01*
G01X4010845Y1624838D01*
G01X4022275Y1624838D01*
G01X4039547Y1630680D01*
G01X4050977Y1647698D01*
G01X4056565Y1676400D01*
G01X4056565Y1693418D01*
G01X4050977Y1722120D01*
G01X4039547Y1739138D01*
G01X4022275Y1744980D01*
G01X4010845Y1744980D01*
G01X4104317Y1704848D02*
G01X4167309Y1624838D01*
G01X4167309Y1704848D02*
G01X4104317Y1624838D01*
G01X4226491Y1744980D02*
G01X4289483Y1744980D01*
G01X4255193Y1699260D01*
G01X4272211Y1699260D01*
G01X4283641Y1693418D01*
G01X4289483Y1687830D01*
G01X4295071Y1670558D01*
G01X4295071Y1659128D01*
G01X4289483Y1642110D01*
G01X4278053Y1630680D01*
G01X4260781Y1624838D01*
G01X4243763Y1624838D01*
G01X4226491Y1630680D01*
G01X4220903Y1636268D01*
G01X4215061Y1647698D01*
G01X4411403Y1727708D02*
G01X4405815Y1739138D01*
G01X4388543Y1744980D01*
G01X4377113Y1744980D01*
G01X4360095Y1739138D01*
G01X4348665Y1722120D01*
G01X4342823Y1693418D01*
G01X4342823Y1664970D01*
G01X4348665Y1642110D01*
G01X4360095Y1630680D01*
G01X4377113Y1624838D01*
G01X4382955Y1624838D01*
G01X4399973Y1630680D01*
G01X4411403Y1642110D01*
G01X4417245Y1659128D01*
G01X4417245Y1664970D01*
G01X4411403Y1681988D01*
G01X4399973Y1693418D01*
G01X4382955Y1699260D01*
G01X4377113Y1699260D01*
G01X4360095Y1693418D01*
G01X4348665Y1681988D01*
G01X4342823Y1664970D01*
G01X4470839Y1653540D02*
G01X4464997Y1647698D01*
G01X4470839Y1642110D01*
G01X4476427Y1647698D01*
G01X4470839Y1653540D01*
G01X4558469Y1744980D02*
G01X4541451Y1739138D01*
G01X4530021Y1722120D01*
G01X4524179Y1693418D01*
G01X4524179Y1676400D01*
G01X4530021Y1647698D01*
G01X4541451Y1630680D01*
G01X4558469Y1624838D01*
G01X4569899Y1624838D01*
G01X4587171Y1630680D01*
G01X4598601Y1647698D01*
G01X4604189Y1676400D01*
G01X4604189Y1693418D01*
G01X4598601Y1722120D01*
G01X4587171Y1739138D01*
G01X4569899Y1744980D01*
G01X4558469Y1744980D01*
G01X4651941Y1704848D02*
G01X4651941Y1624838D01*
G01X4651941Y1681988D02*
G01X4669213Y1699260D01*
G01X4680643Y1704848D01*
G01X4697661Y1704848D01*
G01X4709091Y1699260D01*
G01X4714933Y1681988D01*
G01X4714933Y1624838D01*
G01X4714933Y1681988D02*
G01X4731951Y1699260D01*
G01X4743381Y1704848D01*
G01X4760653Y1704848D01*
G01X4772083Y1699260D01*
G01X4777671Y1681988D01*
G01X4777671Y1624838D01*
G01X4825423Y1744980D02*
G01X4831265Y1739138D01*
G01X4836853Y1744980D01*
G01X4831265Y1750568D01*
G01X4825423Y1744980D01*
G01X4831265Y1704848D02*
G01X4831265Y1624838D01*
G01X4884605Y1744980D02*
G01X4884605Y1624838D01*
G01X4972489Y1767840D02*
G01X4961059Y1756410D01*
G01X4949629Y1739138D01*
G01X4938199Y1716278D01*
G01X4932357Y1687830D01*
G01X4932357Y1664970D01*
G01X4938199Y1636268D01*
G01X4949629Y1613408D01*
G01X4961059Y1596390D01*
G01X4972489Y1584960D01*
G01X5054531Y1744980D02*
G01X5037513Y1739138D01*
G01X5026083Y1722120D01*
G01X5020241Y1693418D01*
G01X5020241Y1676400D01*
G01X5026083Y1647698D01*
G01X5037513Y1630680D01*
G01X5054531Y1624838D01*
G01X5065961Y1624838D01*
G01X5083233Y1630680D01*
G01X5094663Y1647698D01*
G01X5100251Y1676400D01*
G01X5100251Y1693418D01*
G01X5094663Y1722120D01*
G01X5083233Y1739138D01*
G01X5065961Y1744980D01*
G01X5054531Y1744980D01*
G01X5153845Y1653540D02*
G01X5148003Y1647698D01*
G01X5153845Y1642110D01*
G01X5159433Y1647698D01*
G01X5153845Y1653540D01*
G01X5281607Y1704848D02*
G01X5275765Y1687830D01*
G01X5264335Y1676400D01*
G01X5247317Y1670558D01*
G01X5241475Y1670558D01*
G01X5224457Y1676400D01*
G01X5213027Y1687830D01*
G01X5207185Y1704848D01*
G01X5207185Y1710690D01*
G01X5213027Y1727708D01*
G01X5224457Y1739138D01*
G01X5241475Y1744980D01*
G01X5247317Y1744980D01*
G01X5264335Y1739138D01*
G01X5275765Y1727708D01*
G01X5281607Y1704848D01*
G01X5281607Y1676400D01*
G01X5275765Y1647698D01*
G01X5264335Y1630680D01*
G01X5247317Y1624838D01*
G01X5235887Y1624838D01*
G01X5218615Y1630680D01*
G01X5213027Y1642110D01*
G01X5329359Y1722120D02*
G01X5340789Y1727708D01*
G01X5358061Y1744980D01*
G01X5358061Y1624838D01*
G01X5462963Y1744980D02*
G01X5405813Y1664970D01*
G01X5491665Y1664970D01*
G01X5462963Y1744980D02*
G01X5462963Y1624838D01*
G01X5539417Y1704848D02*
G01X5602409Y1624838D01*
G01X5602409Y1704848D02*
G01X5539417Y1624838D01*
G01X5684451Y1744980D02*
G01X5667433Y1739138D01*
G01X5656003Y1722120D01*
G01X5650161Y1693418D01*
G01X5650161Y1676400D01*
G01X5656003Y1647698D01*
G01X5667433Y1630680D01*
G01X5684451Y1624838D01*
G01X5695881Y1624838D01*
G01X5713153Y1630680D01*
G01X5724583Y1647698D01*
G01X5730171Y1676400D01*
G01X5730171Y1693418D01*
G01X5724583Y1722120D01*
G01X5713153Y1739138D01*
G01X5695881Y1744980D01*
G01X5684451Y1744980D01*
G01X5783765Y1653540D02*
G01X5777923Y1647698D01*
G01X5783765Y1642110D01*
G01X5789353Y1647698D01*
G01X5783765Y1653540D01*
G01X5911527Y1704848D02*
G01X5905685Y1687830D01*
G01X5894255Y1676400D01*
G01X5877237Y1670558D01*
G01X5871395Y1670558D01*
G01X5854377Y1676400D01*
G01X5842947Y1687830D01*
G01X5837105Y1704848D01*
G01X5837105Y1710690D01*
G01X5842947Y1727708D01*
G01X5854377Y1739138D01*
G01X5871395Y1744980D01*
G01X5877237Y1744980D01*
G01X5894255Y1739138D01*
G01X5905685Y1727708D01*
G01X5911527Y1704848D01*
G01X5911527Y1676400D01*
G01X5905685Y1647698D01*
G01X5894255Y1630680D01*
G01X5877237Y1624838D01*
G01X5865807Y1624838D01*
G01X5848535Y1630680D01*
G01X5842947Y1642110D01*
G01X5959279Y1722120D02*
G01X5970709Y1727708D01*
G01X5987981Y1744980D01*
G01X5987981Y1624838D01*
G01X6092883Y1744980D02*
G01X6035733Y1664970D01*
G01X6121585Y1664970D01*
G01X6092883Y1744980D02*
G01X6092883Y1624838D01*
G01X6169337Y1704848D02*
G01X6169337Y1624838D01*
G01X6169337Y1681988D02*
G01X6186609Y1699260D01*
G01X6198039Y1704848D01*
G01X6215057Y1704848D01*
G01X6226487Y1699260D01*
G01X6232329Y1681988D01*
G01X6232329Y1624838D01*
G01X6232329Y1681988D02*
G01X6249347Y1699260D01*
G01X6260777Y1704848D01*
G01X6278049Y1704848D01*
G01X6289479Y1699260D01*
G01X6295067Y1681988D01*
G01X6295067Y1624838D01*
G01X6342819Y1704848D02*
G01X6342819Y1624838D01*
G01X6342819Y1681988D02*
G01X6360091Y1699260D01*
G01X6371521Y1704848D01*
G01X6388539Y1704848D01*
G01X6399969Y1699260D01*
G01X6405811Y1681988D01*
G01X6405811Y1624838D01*
G01X6405811Y1681988D02*
G01X6422829Y1699260D01*
G01X6434259Y1704848D01*
G01X6451531Y1704848D01*
G01X6462961Y1699260D01*
G01X6468549Y1681988D01*
G01X6468549Y1624838D01*
G01X6516301Y1767840D02*
G01X6527731Y1756410D01*
G01X6539161Y1739138D01*
G01X6550591Y1716278D01*
G01X6556433Y1687830D01*
G01X6556433Y1664970D01*
G01X6550591Y1636268D01*
G01X6539161Y1613408D01*
G01X6527731Y1596390D01*
G01X6516301Y1584960D01*
G01X7555561Y1744980D02*
G01X7555561Y1624838D01*
G01X7555561Y1744980D02*
G01X7607123Y1744980D01*
G01X7624141Y1739138D01*
G01X7629983Y1733550D01*
G01X7635571Y1722120D01*
G01X7635571Y1704848D01*
G01X7629983Y1693418D01*
G01X7624141Y1687830D01*
G01X7607123Y1681988D01*
G01X7555561Y1681988D01*
G01X7723455Y1744980D02*
G01X7723455Y1624838D01*
G01X7683323Y1744980D02*
G01X7763333Y1744980D01*
G01X7811085Y1744980D02*
G01X7811085Y1624838D01*
G01X7891095Y1744980D02*
G01X7891095Y1624838D01*
G01X7811085Y1687830D02*
G01X7891095Y1687830D01*
G01X9016968Y1744980D02*
G01X9016968Y1624838D01*
G01X9016968Y1744980D02*
G01X9068530Y1744980D01*
G01X9085548Y1739138D01*
G01X9091390Y1733550D01*
G01X9096978Y1722120D01*
G01X9096978Y1710690D01*
G01X9091390Y1699260D01*
G01X9085548Y1693418D01*
G01X9068530Y1687830D01*
G01X9016968Y1687830D01*
G01X9057100Y1687830D02*
G01X9096978Y1624838D01*
G01X9173432Y1704848D02*
G01X9162002Y1699260D01*
G01X9150572Y1687830D01*
G01X9144730Y1670558D01*
G01X9144730Y1659128D01*
G01X9150572Y1642110D01*
G01X9162002Y1630680D01*
G01X9173432Y1624838D01*
G01X9190450Y1624838D01*
G01X9201880Y1630680D01*
G01X9213310Y1642110D01*
G01X9219152Y1659128D01*
G01X9219152Y1670558D01*
G01X9213310Y1687830D01*
G01X9201880Y1699260D01*
G01X9190450Y1704848D01*
G01X9173432Y1704848D01*
G01X9266904Y1704848D02*
G01X9266904Y1647698D01*
G01X9272746Y1630680D01*
G01X9284176Y1624838D01*
G01X9301194Y1624838D01*
G01X9312624Y1630680D01*
G01X9329896Y1647698D01*
G01X9329896Y1704848D02*
G01X9329896Y1624838D01*
G01X9377648Y1704848D02*
G01X9377648Y1624838D01*
G01X9377648Y1681988D02*
G01X9394920Y1699260D01*
G01X9406350Y1704848D01*
G01X9423368Y1704848D01*
G01X9434798Y1699260D01*
G01X9440640Y1681988D01*
G01X9440640Y1624838D01*
G01X9556972Y1744980D02*
G01X9556972Y1624838D01*
G01X9556972Y1687830D02*
G01X9545542Y1699260D01*
G01X9534112Y1704848D01*
G01X9517094Y1704848D01*
G01X9505664Y1699260D01*
G01X9494234Y1687830D01*
G01X9488392Y1670558D01*
G01X9488392Y1659128D01*
G01X9494234Y1642110D01*
G01X9505664Y1630680D01*
G01X9517094Y1624838D01*
G01X9534112Y1624838D01*
G01X9545542Y1630680D01*
G01X9556972Y1642110D01*
G01X10448149Y1744980D02*
G01X10448149Y1624838D01*
G01X10448149Y1744980D02*
G01X10499711Y1744980D01*
G01X10516729Y1739138D01*
G01X10522571Y1733550D01*
G01X10528159Y1722120D01*
G01X10528159Y1704848D01*
G01X10522571Y1693418D01*
G01X10516729Y1687830D01*
G01X10499711Y1681988D01*
G01X10448149Y1681988D01*
G01X10644491Y1704848D02*
G01X10644491Y1624838D01*
G01X10644491Y1687830D02*
G01X10633061Y1699260D01*
G01X10621631Y1704848D01*
G01X10604613Y1704848D01*
G01X10593183Y1699260D01*
G01X10581753Y1687830D01*
G01X10575911Y1670558D01*
G01X10575911Y1659128D01*
G01X10581753Y1642110D01*
G01X10593183Y1630680D01*
G01X10604613Y1624838D01*
G01X10621631Y1624838D01*
G01X10633061Y1630680D01*
G01X10644491Y1642110D01*
G01X10760823Y1744980D02*
G01X10760823Y1624838D01*
G01X10760823Y1687830D02*
G01X10749393Y1699260D01*
G01X10737963Y1704848D01*
G01X10720945Y1704848D01*
G01X10709515Y1699260D01*
G01X10698085Y1687830D01*
G01X10692243Y1670558D01*
G01X10692243Y1659128D01*
G01X10698085Y1642110D01*
G01X10709515Y1630680D01*
G01X10720945Y1624838D01*
G01X10737963Y1624838D01*
G01X10749393Y1630680D01*
G01X10760823Y1642110D01*
G01X12117328Y1744980D02*
G01X12117328Y1624838D01*
G01X12117328Y1744980D02*
G01X12168890Y1744980D01*
G01X12185908Y1739138D01*
G01X12191750Y1733550D01*
G01X12197338Y1722120D01*
G01X12197338Y1710690D01*
G01X12191750Y1699260D01*
G01X12185908Y1693418D01*
G01X12168890Y1687830D01*
G01X12117328Y1687830D01*
G01X12157460Y1687830D02*
G01X12197338Y1624838D01*
G01X12273792Y1704848D02*
G01X12262362Y1699260D01*
G01X12250932Y1687830D01*
G01X12245090Y1670558D01*
G01X12245090Y1659128D01*
G01X12250932Y1642110D01*
G01X12262362Y1630680D01*
G01X12273792Y1624838D01*
G01X12290810Y1624838D01*
G01X12302240Y1630680D01*
G01X12313670Y1642110D01*
G01X12319512Y1659128D01*
G01X12319512Y1670558D01*
G01X12313670Y1687830D01*
G01X12302240Y1699260D01*
G01X12290810Y1704848D01*
G01X12273792Y1704848D01*
G01X12367264Y1704848D02*
G01X12367264Y1647698D01*
G01X12373106Y1630680D01*
G01X12384536Y1624838D01*
G01X12401554Y1624838D01*
G01X12412984Y1630680D01*
G01X12430256Y1647698D01*
G01X12430256Y1704848D02*
G01X12430256Y1624838D01*
G01X12478008Y1704848D02*
G01X12478008Y1624838D01*
G01X12478008Y1681988D02*
G01X12495280Y1699260D01*
G01X12506710Y1704848D01*
G01X12523728Y1704848D01*
G01X12535158Y1699260D01*
G01X12541000Y1681988D01*
G01X12541000Y1624838D01*
G01X12657332Y1744980D02*
G01X12657332Y1624838D01*
G01X12657332Y1687830D02*
G01X12645902Y1699260D01*
G01X12634472Y1704848D01*
G01X12617454Y1704848D01*
G01X12606024Y1699260D01*
G01X12594594Y1687830D01*
G01X12588752Y1670558D01*
G01X12588752Y1659128D01*
G01X12594594Y1642110D01*
G01X12606024Y1630680D01*
G01X12617454Y1624838D01*
G01X12634472Y1624838D01*
G01X12645902Y1630680D01*
G01X12657332Y1642110D01*
G01X14076829Y1744980D02*
G01X14076829Y1624838D01*
G01X14036697Y1744980D02*
G01X14116707Y1744980D01*
G01X14193161Y1704848D02*
G01X14181731Y1699260D01*
G01X14170301Y1687830D01*
G01X14164459Y1670558D01*
G01X14164459Y1659128D01*
G01X14170301Y1642110D01*
G01X14181731Y1630680D01*
G01X14193161Y1624838D01*
G01X14210179Y1624838D01*
G01X14221609Y1630680D01*
G01X14233039Y1642110D01*
G01X14238881Y1659128D01*
G01X14238881Y1670558D01*
G01X14233039Y1687830D01*
G01X14221609Y1699260D01*
G01X14210179Y1704848D01*
G01X14193161Y1704848D01*
G01X14286633Y1704848D02*
G01X14286633Y1584960D01*
G01X14286633Y1687830D02*
G01X14298063Y1699260D01*
G01X14309493Y1704848D01*
G01X14326765Y1704848D01*
G01X14338195Y1699260D01*
G01X14349625Y1687830D01*
G01X14355213Y1670558D01*
G01X14355213Y1659128D01*
G01X14349625Y1642110D01*
G01X14338195Y1630680D01*
G01X14326765Y1624838D01*
G01X14309493Y1624838D01*
G01X14298063Y1630680D01*
G01X14286633Y1642110D01*
G01X14530981Y1744980D02*
G01X14530981Y1624838D01*
G01X14530981Y1624838D02*
G01X14599561Y1624838D01*
G01X14715893Y1704848D02*
G01X14715893Y1624838D01*
G01X14715893Y1687830D02*
G01X14704463Y1699260D01*
G01X14693033Y1704848D01*
G01X14676015Y1704848D01*
G01X14664585Y1699260D01*
G01X14653155Y1687830D01*
G01X14647313Y1670558D01*
G01X14647313Y1659128D01*
G01X14653155Y1642110D01*
G01X14664585Y1630680D01*
G01X14676015Y1624838D01*
G01X14693033Y1624838D01*
G01X14704463Y1630680D01*
G01X14715893Y1642110D01*
G01X14769487Y1704848D02*
G01X14803777Y1624838D01*
G01X14838067Y1704848D02*
G01X14803777Y1624838D01*
G01X14792347Y1601978D01*
G01X14780917Y1590548D01*
G01X14769487Y1584960D01*
G01X14763645Y1584960D01*
G01X14885819Y1670558D02*
G01X14954399Y1670558D01*
G01X14954399Y1681988D01*
G01X14948811Y1693418D01*
G01X14942969Y1699260D01*
G01X14931539Y1704848D01*
G01X14914521Y1704848D01*
G01X14903091Y1699260D01*
G01X14891661Y1687830D01*
G01X14885819Y1670558D01*
G01X14885819Y1659128D01*
G01X14891661Y1642110D01*
G01X14903091Y1630680D01*
G01X14914521Y1624838D01*
G01X14931539Y1624838D01*
G01X14942969Y1630680D01*
G01X14954399Y1642110D01*
G01X15002151Y1704848D02*
G01X15002151Y1624838D01*
G01X15002151Y1670558D02*
G01X15007993Y1687830D01*
G01X15019423Y1699260D01*
G01X15030853Y1704848D01*
G01X15047871Y1704848D01*
G01X15095623Y1676400D02*
G01X15198493Y1676400D01*
G01X15246245Y1744980D02*
G01X15246245Y1624838D01*
G01X15246245Y1744980D02*
G01X15297807Y1744980D01*
G01X15314825Y1739138D01*
G01X15320667Y1733550D01*
G01X15326255Y1722120D01*
G01X15326255Y1710690D01*
G01X15320667Y1699260D01*
G01X15314825Y1693418D01*
G01X15297807Y1687830D01*
G01X15246245Y1687830D02*
G01X15297807Y1687830D01*
G01X15314825Y1681988D01*
G01X15320667Y1676400D01*
G01X15326255Y1664970D01*
G01X15326255Y1647698D01*
G01X15320667Y1636268D01*
G01X15314825Y1630680D01*
G01X15297807Y1624838D01*
G01X15246245Y1624838D01*
G01X15402709Y1704848D02*
G01X15391279Y1699260D01*
G01X15379849Y1687830D01*
G01X15374007Y1670558D01*
G01X15374007Y1659128D01*
G01X15379849Y1642110D01*
G01X15391279Y1630680D01*
G01X15402709Y1624838D01*
G01X15419727Y1624838D01*
G01X15431157Y1630680D01*
G01X15442587Y1642110D01*
G01X15448429Y1659128D01*
G01X15448429Y1670558D01*
G01X15442587Y1687830D01*
G01X15431157Y1699260D01*
G01X15419727Y1704848D01*
G01X15402709Y1704848D01*
G01X15513453Y1744980D02*
G01X15513453Y1647698D01*
G01X15519041Y1630680D01*
G01X15530471Y1624838D01*
G01X15541901Y1624838D01*
G01X15496181Y1704848D02*
G01X15536313Y1704848D01*
G01X15606925Y1744980D02*
G01X15606925Y1647698D01*
G01X15612513Y1630680D01*
G01X15623943Y1624838D01*
G01X15635373Y1624838D01*
G01X15589653Y1704848D02*
G01X15629785Y1704848D01*
G01X15711827Y1704848D02*
G01X15700397Y1699260D01*
G01X15688967Y1687830D01*
G01X15683125Y1670558D01*
G01X15683125Y1659128D01*
G01X15688967Y1642110D01*
G01X15700397Y1630680D01*
G01X15711827Y1624838D01*
G01X15728845Y1624838D01*
G01X15740275Y1630680D01*
G01X15751705Y1642110D01*
G01X15757547Y1659128D01*
G01X15757547Y1670558D01*
G01X15751705Y1687830D01*
G01X15740275Y1699260D01*
G01X15728845Y1704848D01*
G01X15711827Y1704848D01*
G01X15805299Y1704848D02*
G01X15805299Y1624838D01*
G01X15805299Y1681988D02*
G01X15822571Y1699260D01*
G01X15834001Y1704848D01*
G01X15851019Y1704848D01*
G01X15862449Y1699260D01*
G01X15868291Y1681988D01*
G01X15868291Y1624838D01*
G01X15868291Y1681988D02*
G01X15885309Y1699260D01*
G01X15896739Y1704848D01*
G01X15914011Y1704848D01*
G01X15925441Y1699260D01*
G01X15931029Y1681988D01*
G01X15931029Y1624838D01*
G01X16106797Y1744980D02*
G01X16106797Y1624838D01*
G01X16106797Y1624838D02*
G01X16175377Y1624838D01*
G01X16291709Y1704848D02*
G01X16291709Y1624838D01*
G01X16291709Y1687830D02*
G01X16280279Y1699260D01*
G01X16268849Y1704848D01*
G01X16251831Y1704848D01*
G01X16240401Y1699260D01*
G01X16228971Y1687830D01*
G01X16223129Y1670558D01*
G01X16223129Y1659128D01*
G01X16228971Y1642110D01*
G01X16240401Y1630680D01*
G01X16251831Y1624838D01*
G01X16268849Y1624838D01*
G01X16280279Y1630680D01*
G01X16291709Y1642110D01*
G01X16345303Y1704848D02*
G01X16379593Y1624838D01*
G01X16413883Y1704848D02*
G01X16379593Y1624838D01*
G01X16368163Y1601978D01*
G01X16356733Y1590548D01*
G01X16345303Y1584960D01*
G01X16339461Y1584960D01*
G01X16461635Y1670558D02*
G01X16530215Y1670558D01*
G01X16530215Y1681988D01*
G01X16524627Y1693418D01*
G01X16518785Y1699260D01*
G01X16507355Y1704848D01*
G01X16490337Y1704848D01*
G01X16478907Y1699260D01*
G01X16467477Y1687830D01*
G01X16461635Y1670558D01*
G01X16461635Y1659128D01*
G01X16467477Y1642110D01*
G01X16478907Y1630680D01*
G01X16490337Y1624838D01*
G01X16507355Y1624838D01*
G01X16518785Y1630680D01*
G01X16530215Y1642110D01*
G01X16577967Y1704848D02*
G01X16577967Y1624838D01*
G01X16577967Y1670558D02*
G01X16583809Y1687830D01*
G01X16595239Y1699260D01*
G01X16606669Y1704848D01*
G01X16623687Y1704848D01*
G01X2259116Y1135707D02*
G01X2259116Y1141549D01*
G01X2264704Y1152979D01*
G01X2270546Y1158567D01*
G01X2281976Y1164409D01*
G01X2304836Y1164409D01*
G01X2316266Y1158567D01*
G01X2321854Y1152979D01*
G01X2327696Y1141549D01*
G01X2327696Y1130119D01*
G01X2321854Y1118689D01*
G01X2310424Y1101417D01*
G01X2253274Y1044267D01*
G01X2333284Y1044267D01*
G01X3673279Y1135707D02*
G01X3673279Y1141549D01*
G01X3678867Y1152979D01*
G01X3684709Y1158567D01*
G01X3696139Y1164409D01*
G01X3718999Y1164409D01*
G01X3730429Y1158567D01*
G01X3736017Y1152979D01*
G01X3741859Y1141549D01*
G01X3741859Y1130119D01*
G01X3736017Y1118689D01*
G01X3724587Y1101417D01*
G01X3667437Y1044267D01*
G01X3747447Y1044267D01*
G01X3875209Y1164409D02*
G01X3818059Y1044267D01*
G01X3795199Y1164409D02*
G01X3875209Y1164409D01*
G01X3928803Y1072969D02*
G01X3922961Y1067127D01*
G01X3928803Y1061539D01*
G01X3934391Y1067127D01*
G01X3928803Y1072969D01*
G01X4050723Y1147137D02*
G01X4045135Y1158567D01*
G01X4027863Y1164409D01*
G01X4016433Y1164409D01*
G01X3999415Y1158567D01*
G01X3987985Y1141549D01*
G01X3982143Y1112847D01*
G01X3982143Y1084399D01*
G01X3987985Y1061539D01*
G01X3999415Y1050109D01*
G01X4016433Y1044267D01*
G01X4022275Y1044267D01*
G01X4039293Y1050109D01*
G01X4050723Y1061539D01*
G01X4056565Y1078557D01*
G01X4056565Y1084399D01*
G01X4050723Y1101417D01*
G01X4039293Y1112847D01*
G01X4022275Y1118689D01*
G01X4016433Y1118689D01*
G01X3999415Y1112847D01*
G01X3987985Y1101417D01*
G01X3982143Y1084399D01*
G01X4104317Y1124277D02*
G01X4104317Y1044267D01*
G01X4104317Y1101417D02*
G01X4121589Y1118689D01*
G01X4133019Y1124277D01*
G01X4150037Y1124277D01*
G01X4161467Y1118689D01*
G01X4167309Y1101417D01*
G01X4167309Y1044267D01*
G01X4167309Y1101417D02*
G01X4184327Y1118689D01*
G01X4195757Y1124277D01*
G01X4213029Y1124277D01*
G01X4224459Y1118689D01*
G01X4230047Y1101417D01*
G01X4230047Y1044267D01*
G01X4277799Y1164409D02*
G01X4283641Y1158567D01*
G01X4289229Y1164409D01*
G01X4283641Y1169997D01*
G01X4277799Y1164409D01*
G01X4283641Y1124277D02*
G01X4283641Y1044267D01*
G01X4336981Y1164409D02*
G01X4336981Y1044267D01*
G01X4424865Y1187269D02*
G01X4413435Y1175839D01*
G01X4402005Y1158567D01*
G01X4390575Y1135707D01*
G01X4384733Y1107259D01*
G01X4384733Y1084399D01*
G01X4390575Y1055697D01*
G01X4402005Y1032837D01*
G01X4413435Y1015819D01*
G01X4424865Y1004389D01*
G01X4506907Y1164409D02*
G01X4489889Y1158567D01*
G01X4478459Y1141549D01*
G01X4472617Y1112847D01*
G01X4472617Y1095829D01*
G01X4478459Y1067127D01*
G01X4489889Y1050109D01*
G01X4506907Y1044267D01*
G01X4518337Y1044267D01*
G01X4535609Y1050109D01*
G01X4547039Y1067127D01*
G01X4552627Y1095829D01*
G01X4552627Y1112847D01*
G01X4547039Y1141549D01*
G01X4535609Y1158567D01*
G01X4518337Y1164409D01*
G01X4506907Y1164409D01*
G01X4606221Y1072969D02*
G01X4600379Y1067127D01*
G01X4606221Y1061539D01*
G01X4611809Y1067127D01*
G01X4606221Y1072969D01*
G01X4739571Y1164409D02*
G01X4682421Y1044267D01*
G01X4659561Y1164409D02*
G01X4739571Y1164409D01*
G01X4821613Y1164409D02*
G01X4804595Y1158567D01*
G01X4793165Y1141549D01*
G01X4787323Y1112847D01*
G01X4787323Y1095829D01*
G01X4793165Y1067127D01*
G01X4804595Y1050109D01*
G01X4821613Y1044267D01*
G01X4833043Y1044267D01*
G01X4850315Y1050109D01*
G01X4861745Y1067127D01*
G01X4867333Y1095829D01*
G01X4867333Y1112847D01*
G01X4861745Y1141549D01*
G01X4850315Y1158567D01*
G01X4833043Y1164409D01*
G01X4821613Y1164409D01*
G01X4949375Y1164409D02*
G01X4932357Y1158567D01*
G01X4920927Y1141549D01*
G01X4915085Y1112847D01*
G01X4915085Y1095829D01*
G01X4920927Y1067127D01*
G01X4932357Y1050109D01*
G01X4949375Y1044267D01*
G01X4960805Y1044267D01*
G01X4978077Y1050109D01*
G01X4989507Y1067127D01*
G01X4995095Y1095829D01*
G01X4995095Y1112847D01*
G01X4989507Y1141549D01*
G01X4978077Y1158567D01*
G01X4960805Y1164409D01*
G01X4949375Y1164409D01*
G01X5042847Y1124277D02*
G01X5042847Y1044267D01*
G01X5042847Y1101417D02*
G01X5060119Y1118689D01*
G01X5071549Y1124277D01*
G01X5088567Y1124277D01*
G01X5099997Y1118689D01*
G01X5105839Y1101417D01*
G01X5105839Y1044267D01*
G01X5105839Y1101417D02*
G01X5122857Y1118689D01*
G01X5134287Y1124277D01*
G01X5151559Y1124277D01*
G01X5162989Y1118689D01*
G01X5168577Y1101417D01*
G01X5168577Y1044267D01*
G01X5216329Y1124277D02*
G01X5216329Y1044267D01*
G01X5216329Y1101417D02*
G01X5233601Y1118689D01*
G01X5245031Y1124277D01*
G01X5262049Y1124277D01*
G01X5273479Y1118689D01*
G01X5279321Y1101417D01*
G01X5279321Y1044267D01*
G01X5279321Y1101417D02*
G01X5296339Y1118689D01*
G01X5307769Y1124277D01*
G01X5325041Y1124277D01*
G01X5336471Y1118689D01*
G01X5342059Y1101417D01*
G01X5342059Y1044267D01*
G01X5389811Y1187269D02*
G01X5401241Y1175839D01*
G01X5412671Y1158567D01*
G01X5424101Y1135707D01*
G01X5429943Y1107259D01*
G01X5429943Y1084399D01*
G01X5424101Y1055697D01*
G01X5412671Y1032837D01*
G01X5401241Y1015819D01*
G01X5389811Y1004389D01*
G01X7555561Y1164409D02*
G01X7555561Y1044267D01*
G01X7555561Y1164409D02*
G01X7635571Y1044267D01*
G01X7635571Y1164409D02*
G01X7635571Y1044267D01*
G01X7683323Y1164409D02*
G01X7683323Y1044267D01*
G01X7683323Y1164409D02*
G01X7734885Y1164409D01*
G01X7751903Y1158567D01*
G01X7757745Y1152979D01*
G01X7763333Y1141549D01*
G01X7763333Y1124277D01*
G01X7757745Y1112847D01*
G01X7751903Y1107259D01*
G01X7734885Y1101417D01*
G01X7683323Y1101417D01*
G01X7851217Y1164409D02*
G01X7851217Y1044267D01*
G01X7811085Y1164409D02*
G01X7891095Y1164409D01*
G01X7938847Y1164409D02*
G01X7938847Y1044267D01*
G01X8018857Y1164409D02*
G01X8018857Y1044267D01*
G01X7938847Y1107259D02*
G01X8018857Y1107259D01*
G01X9016968Y1164409D02*
G01X9016968Y1044267D01*
G01X9016968Y1164409D02*
G01X9068530Y1164409D01*
G01X9085548Y1158567D01*
G01X9091390Y1152979D01*
G01X9096978Y1141549D01*
G01X9096978Y1130119D01*
G01X9091390Y1118689D01*
G01X9085548Y1112847D01*
G01X9068530Y1107259D01*
G01X9016968Y1107259D01*
G01X9057100Y1107259D02*
G01X9096978Y1044267D01*
G01X9173432Y1124277D02*
G01X9162002Y1118689D01*
G01X9150572Y1107259D01*
G01X9144730Y1089987D01*
G01X9144730Y1078557D01*
G01X9150572Y1061539D01*
G01X9162002Y1050109D01*
G01X9173432Y1044267D01*
G01X9190450Y1044267D01*
G01X9201880Y1050109D01*
G01X9213310Y1061539D01*
G01X9219152Y1078557D01*
G01X9219152Y1089987D01*
G01X9213310Y1107259D01*
G01X9201880Y1118689D01*
G01X9190450Y1124277D01*
G01X9173432Y1124277D01*
G01X9266904Y1124277D02*
G01X9266904Y1067127D01*
G01X9272746Y1050109D01*
G01X9284176Y1044267D01*
G01X9301194Y1044267D01*
G01X9312624Y1050109D01*
G01X9329896Y1067127D01*
G01X9329896Y1124277D02*
G01X9329896Y1044267D01*
G01X9377648Y1124277D02*
G01X9377648Y1044267D01*
G01X9377648Y1101417D02*
G01X9394920Y1118689D01*
G01X9406350Y1124277D01*
G01X9423368Y1124277D01*
G01X9434798Y1118689D01*
G01X9440640Y1101417D01*
G01X9440640Y1044267D01*
G01X9556972Y1164409D02*
G01X9556972Y1044267D01*
G01X9556972Y1107259D02*
G01X9545542Y1118689D01*
G01X9534112Y1124277D01*
G01X9517094Y1124277D01*
G01X9505664Y1118689D01*
G01X9494234Y1107259D01*
G01X9488392Y1089987D01*
G01X9488392Y1078557D01*
G01X9494234Y1061539D01*
G01X9505664Y1050109D01*
G01X9517094Y1044267D01*
G01X9534112Y1044267D01*
G01X9545542Y1050109D01*
G01X9556972Y1061539D01*
G01X10448149Y1164409D02*
G01X10493869Y1044267D01*
G01X10539589Y1164409D02*
G01X10493869Y1044267D01*
G01X10587341Y1164409D02*
G01X10593183Y1158567D01*
G01X10598771Y1164409D01*
G01X10593183Y1169997D01*
G01X10587341Y1164409D01*
G01X10593183Y1124277D02*
G01X10593183Y1044267D01*
G01X10715103Y1124277D02*
G01X10715103Y1044267D01*
G01X10715103Y1107259D02*
G01X10703673Y1118689D01*
G01X10692243Y1124277D01*
G01X10675225Y1124277D01*
G01X10663795Y1118689D01*
G01X10652365Y1107259D01*
G01X10646523Y1089987D01*
G01X10646523Y1078557D01*
G01X10652365Y1061539D01*
G01X10663795Y1050109D01*
G01X10675225Y1044267D01*
G01X10692243Y1044267D01*
G01X10703673Y1050109D01*
G01X10715103Y1061539D01*
G01X14076829Y1164409D02*
G01X14076829Y1044267D01*
G01X14036697Y1164409D02*
G01X14116707Y1164409D01*
G01X14193161Y1124277D02*
G01X14181731Y1118689D01*
G01X14170301Y1107259D01*
G01X14164459Y1089987D01*
G01X14164459Y1078557D01*
G01X14170301Y1061539D01*
G01X14181731Y1050109D01*
G01X14193161Y1044267D01*
G01X14210179Y1044267D01*
G01X14221609Y1050109D01*
G01X14233039Y1061539D01*
G01X14238881Y1078557D01*
G01X14238881Y1089987D01*
G01X14233039Y1107259D01*
G01X14221609Y1118689D01*
G01X14210179Y1124277D01*
G01X14193161Y1124277D01*
G01X14286633Y1124277D02*
G01X14286633Y1004389D01*
G01X14286633Y1107259D02*
G01X14298063Y1118689D01*
G01X14309493Y1124277D01*
G01X14326765Y1124277D01*
G01X14338195Y1118689D01*
G01X14349625Y1107259D01*
G01X14355213Y1089987D01*
G01X14355213Y1078557D01*
G01X14349625Y1061539D01*
G01X14338195Y1050109D01*
G01X14326765Y1044267D01*
G01X14309493Y1044267D01*
G01X14298063Y1050109D01*
G01X14286633Y1061539D01*
G01X14530981Y1164409D02*
G01X14530981Y1044267D01*
G01X14530981Y1044267D02*
G01X14599561Y1044267D01*
G01X14715893Y1124277D02*
G01X14715893Y1044267D01*
G01X14715893Y1107259D02*
G01X14704463Y1118689D01*
G01X14693033Y1124277D01*
G01X14676015Y1124277D01*
G01X14664585Y1118689D01*
G01X14653155Y1107259D01*
G01X14647313Y1089987D01*
G01X14647313Y1078557D01*
G01X14653155Y1061539D01*
G01X14664585Y1050109D01*
G01X14676015Y1044267D01*
G01X14693033Y1044267D01*
G01X14704463Y1050109D01*
G01X14715893Y1061539D01*
G01X14769487Y1124277D02*
G01X14803777Y1044267D01*
G01X14838067Y1124277D02*
G01X14803777Y1044267D01*
G01X14792347Y1021407D01*
G01X14780917Y1009977D01*
G01X14769487Y1004389D01*
G01X14763645Y1004389D01*
G01X14885819Y1089987D02*
G01X14954399Y1089987D01*
G01X14954399Y1101417D01*
G01X14948811Y1112847D01*
G01X14942969Y1118689D01*
G01X14931539Y1124277D01*
G01X14914521Y1124277D01*
G01X14903091Y1118689D01*
G01X14891661Y1107259D01*
G01X14885819Y1089987D01*
G01X14885819Y1078557D01*
G01X14891661Y1061539D01*
G01X14903091Y1050109D01*
G01X14914521Y1044267D01*
G01X14931539Y1044267D01*
G01X14942969Y1050109D01*
G01X14954399Y1061539D01*
G01X15002151Y1124277D02*
G01X15002151Y1044267D01*
G01X15002151Y1089987D02*
G01X15007993Y1107259D01*
G01X15019423Y1118689D01*
G01X15030853Y1124277D01*
G01X15047871Y1124277D01*
G01X15095623Y1095829D02*
G01X15198493Y1095829D01*
G01X15246245Y1164409D02*
G01X15246245Y1044267D01*
G01X15246245Y1164409D02*
G01X15297807Y1164409D01*
G01X15314825Y1158567D01*
G01X15320667Y1152979D01*
G01X15326255Y1141549D01*
G01X15326255Y1130119D01*
G01X15320667Y1118689D01*
G01X15314825Y1112847D01*
G01X15297807Y1107259D01*
G01X15246245Y1107259D02*
G01X15297807Y1107259D01*
G01X15314825Y1101417D01*
G01X15320667Y1095829D01*
G01X15326255Y1084399D01*
G01X15326255Y1067127D01*
G01X15320667Y1055697D01*
G01X15314825Y1050109D01*
G01X15297807Y1044267D01*
G01X15246245Y1044267D01*
G01X15402709Y1124277D02*
G01X15391279Y1118689D01*
G01X15379849Y1107259D01*
G01X15374007Y1089987D01*
G01X15374007Y1078557D01*
G01X15379849Y1061539D01*
G01X15391279Y1050109D01*
G01X15402709Y1044267D01*
G01X15419727Y1044267D01*
G01X15431157Y1050109D01*
G01X15442587Y1061539D01*
G01X15448429Y1078557D01*
G01X15448429Y1089987D01*
G01X15442587Y1107259D01*
G01X15431157Y1118689D01*
G01X15419727Y1124277D01*
G01X15402709Y1124277D01*
G01X15513453Y1164409D02*
G01X15513453Y1067127D01*
G01X15519041Y1050109D01*
G01X15530471Y1044267D01*
G01X15541901Y1044267D01*
G01X15496181Y1124277D02*
G01X15536313Y1124277D01*
G01X15606925Y1164409D02*
G01X15606925Y1067127D01*
G01X15612513Y1050109D01*
G01X15623943Y1044267D01*
G01X15635373Y1044267D01*
G01X15589653Y1124277D02*
G01X15629785Y1124277D01*
G01X15711827Y1124277D02*
G01X15700397Y1118689D01*
G01X15688967Y1107259D01*
G01X15683125Y1089987D01*
G01X15683125Y1078557D01*
G01X15688967Y1061539D01*
G01X15700397Y1050109D01*
G01X15711827Y1044267D01*
G01X15728845Y1044267D01*
G01X15740275Y1050109D01*
G01X15751705Y1061539D01*
G01X15757547Y1078557D01*
G01X15757547Y1089987D01*
G01X15751705Y1107259D01*
G01X15740275Y1118689D01*
G01X15728845Y1124277D01*
G01X15711827Y1124277D01*
G01X15805299Y1124277D02*
G01X15805299Y1044267D01*
G01X15805299Y1101417D02*
G01X15822571Y1118689D01*
G01X15834001Y1124277D01*
G01X15851019Y1124277D01*
G01X15862449Y1118689D01*
G01X15868291Y1101417D01*
G01X15868291Y1044267D01*
G01X15868291Y1101417D02*
G01X15885309Y1118689D01*
G01X15896739Y1124277D01*
G01X15914011Y1124277D01*
G01X15925441Y1118689D01*
G01X15931029Y1101417D01*
G01X15931029Y1044267D01*
G01X16106797Y1164409D02*
G01X16106797Y1044267D01*
G01X16106797Y1044267D02*
G01X16175377Y1044267D01*
G01X16291709Y1124277D02*
G01X16291709Y1044267D01*
G01X16291709Y1107259D02*
G01X16280279Y1118689D01*
G01X16268849Y1124277D01*
G01X16251831Y1124277D01*
G01X16240401Y1118689D01*
G01X16228971Y1107259D01*
G01X16223129Y1089987D01*
G01X16223129Y1078557D01*
G01X16228971Y1061539D01*
G01X16240401Y1050109D01*
G01X16251831Y1044267D01*
G01X16268849Y1044267D01*
G01X16280279Y1050109D01*
G01X16291709Y1061539D01*
G01X16345303Y1124277D02*
G01X16379593Y1044267D01*
G01X16413883Y1124277D02*
G01X16379593Y1044267D01*
G01X16368163Y1021407D01*
G01X16356733Y1009977D01*
G01X16345303Y1004389D01*
G01X16339461Y1004389D01*
G01X16461635Y1089987D02*
G01X16530215Y1089987D01*
G01X16530215Y1101417D01*
G01X16524627Y1112847D01*
G01X16518785Y1118689D01*
G01X16507355Y1124277D01*
G01X16490337Y1124277D01*
G01X16478907Y1118689D01*
G01X16467477Y1107259D01*
G01X16461635Y1089987D01*
G01X16461635Y1078557D01*
G01X16467477Y1061539D01*
G01X16478907Y1050109D01*
G01X16490337Y1044267D01*
G01X16507355Y1044267D01*
G01X16518785Y1050109D01*
G01X16530215Y1061539D01*
G01X16577967Y1124277D02*
G01X16577967Y1044267D01*
G01X16577967Y1089987D02*
G01X16583809Y1107259D01*
G01X16595239Y1118689D01*
G01X16606669Y1124277D01*
G01X16623687Y1124277D01*
G01X2281976Y583837D02*
G01X2264704Y577995D01*
G01X2259116Y566565D01*
G01X2259116Y555135D01*
G01X2264704Y543705D01*
G01X2276134Y538117D01*
G01X2298994Y532275D01*
G01X2316266Y526687D01*
G01X2327696Y515257D01*
G01X2333284Y503827D01*
G01X2333284Y486555D01*
G01X2327696Y475125D01*
G01X2321854Y469537D01*
G01X2304836Y463695D01*
G01X2281976Y463695D01*
G01X2264704Y469537D01*
G01X2259116Y475125D01*
G01X2253274Y486555D01*
G01X2253274Y503827D01*
G01X2259116Y515257D01*
G01X2270546Y526687D01*
G01X2287564Y532275D01*
G01X2310424Y538117D01*
G01X2321854Y543705D01*
G01X2327696Y555135D01*
G01X2327696Y566565D01*
G01X2321854Y577995D01*
G01X2304836Y583837D01*
G01X2281976Y583837D01*
G01X3673279Y555135D02*
G01X3673279Y560977D01*
G01X3678867Y572407D01*
G01X3684709Y577995D01*
G01X3696139Y583837D01*
G01X3718999Y583837D01*
G01X3730429Y577995D01*
G01X3736017Y572407D01*
G01X3741859Y560977D01*
G01X3741859Y549547D01*
G01X3736017Y538117D01*
G01X3724587Y520845D01*
G01X3667437Y463695D01*
G01X3747447Y463695D01*
G01X3875209Y583837D02*
G01X3818059Y463695D01*
G01X3795199Y583837D02*
G01X3875209Y583837D01*
G01X3928803Y492397D02*
G01X3922961Y486555D01*
G01X3928803Y480967D01*
G01X3934391Y486555D01*
G01X3928803Y492397D01*
G01X4050723Y566565D02*
G01X4045135Y577995D01*
G01X4027863Y583837D01*
G01X4016433Y583837D01*
G01X3999415Y577995D01*
G01X3987985Y560977D01*
G01X3982143Y532275D01*
G01X3982143Y503827D01*
G01X3987985Y480967D01*
G01X3999415Y469537D01*
G01X4016433Y463695D01*
G01X4022275Y463695D01*
G01X4039293Y469537D01*
G01X4050723Y480967D01*
G01X4056565Y497985D01*
G01X4056565Y503827D01*
G01X4050723Y520845D01*
G01X4039293Y532275D01*
G01X4022275Y538117D01*
G01X4016433Y538117D01*
G01X3999415Y532275D01*
G01X3987985Y520845D01*
G01X3982143Y503827D01*
G01X4104317Y543705D02*
G01X4167309Y463695D01*
G01X4167309Y543705D02*
G01X4104317Y463695D01*
G01X4289483Y543705D02*
G01X4283641Y526687D01*
G01X4272211Y515257D01*
G01X4255193Y509415D01*
G01X4249351Y509415D01*
G01X4232333Y515257D01*
G01X4220903Y526687D01*
G01X4215061Y543705D01*
G01X4215061Y549547D01*
G01X4220903Y566565D01*
G01X4232333Y577995D01*
G01X4249351Y583837D01*
G01X4255193Y583837D01*
G01X4272211Y577995D01*
G01X4283641Y566565D01*
G01X4289483Y543705D01*
G01X4289483Y515257D01*
G01X4283641Y486555D01*
G01X4272211Y469537D01*
G01X4255193Y463695D01*
G01X4243763Y463695D01*
G01X4226491Y469537D01*
G01X4220903Y480967D01*
G01X4365937Y583837D02*
G01X4348665Y577995D01*
G01X4343077Y566565D01*
G01X4343077Y555135D01*
G01X4348665Y543705D01*
G01X4360095Y538117D01*
G01X4382955Y532275D01*
G01X4400227Y526687D01*
G01X4411657Y515257D01*
G01X4417245Y503827D01*
G01X4417245Y486555D01*
G01X4411657Y475125D01*
G01X4405815Y469537D01*
G01X4388797Y463695D01*
G01X4365937Y463695D01*
G01X4348665Y469537D01*
G01X4343077Y475125D01*
G01X4337235Y486555D01*
G01X4337235Y503827D01*
G01X4343077Y515257D01*
G01X4354507Y526687D01*
G01X4371525Y532275D01*
G01X4394385Y538117D01*
G01X4405815Y543705D01*
G01X4411657Y555135D01*
G01X4411657Y566565D01*
G01X4405815Y577995D01*
G01X4388797Y583837D01*
G01X4365937Y583837D01*
G01X4470839Y492397D02*
G01X4464997Y486555D01*
G01X4470839Y480967D01*
G01X4476427Y486555D01*
G01X4470839Y492397D01*
G01X4581329Y583837D02*
G01X4524179Y503827D01*
G01X4610031Y503827D01*
G01X4581329Y583837D02*
G01X4581329Y463695D01*
G01X4657783Y543705D02*
G01X4657783Y463695D01*
G01X4657783Y520845D02*
G01X4675055Y538117D01*
G01X4686485Y543705D01*
G01X4703503Y543705D01*
G01X4714933Y538117D01*
G01X4720775Y520845D01*
G01X4720775Y463695D01*
G01X4720775Y520845D02*
G01X4737793Y538117D01*
G01X4749223Y543705D01*
G01X4766495Y543705D01*
G01X4777925Y538117D01*
G01X4783513Y520845D01*
G01X4783513Y463695D01*
G01X4831265Y583837D02*
G01X4837107Y577995D01*
G01X4842695Y583837D01*
G01X4837107Y589425D01*
G01X4831265Y583837D01*
G01X4837107Y543705D02*
G01X4837107Y463695D01*
G01X4890447Y583837D02*
G01X4890447Y463695D01*
G01X4978331Y606697D02*
G01X4966901Y595267D01*
G01X4955471Y577995D01*
G01X4944041Y555135D01*
G01X4938199Y526687D01*
G01X4938199Y503827D01*
G01X4944041Y475125D01*
G01X4955471Y452265D01*
G01X4966901Y435247D01*
G01X4978331Y423817D01*
G01X5060373Y583837D02*
G01X5043355Y577995D01*
G01X5031925Y560977D01*
G01X5026083Y532275D01*
G01X5026083Y515257D01*
G01X5031925Y486555D01*
G01X5043355Y469537D01*
G01X5060373Y463695D01*
G01X5071803Y463695D01*
G01X5089075Y469537D01*
G01X5100505Y486555D01*
G01X5106093Y515257D01*
G01X5106093Y532275D01*
G01X5100505Y560977D01*
G01X5089075Y577995D01*
G01X5071803Y583837D01*
G01X5060373Y583837D01*
G01X5159687Y492397D02*
G01X5153845Y486555D01*
G01X5159687Y480967D01*
G01X5165275Y486555D01*
G01X5159687Y492397D01*
G01X5293037Y583837D02*
G01X5235887Y463695D01*
G01X5213027Y583837D02*
G01X5293037Y583837D01*
G01X5375079Y583837D02*
G01X5358061Y577995D01*
G01X5346631Y560977D01*
G01X5340789Y532275D01*
G01X5340789Y515257D01*
G01X5346631Y486555D01*
G01X5358061Y469537D01*
G01X5375079Y463695D01*
G01X5386509Y463695D01*
G01X5403781Y469537D01*
G01X5415211Y486555D01*
G01X5420799Y515257D01*
G01X5420799Y532275D01*
G01X5415211Y560977D01*
G01X5403781Y577995D01*
G01X5386509Y583837D01*
G01X5375079Y583837D01*
G01X5502841Y583837D02*
G01X5485823Y577995D01*
G01X5474393Y560977D01*
G01X5468551Y532275D01*
G01X5468551Y515257D01*
G01X5474393Y486555D01*
G01X5485823Y469537D01*
G01X5502841Y463695D01*
G01X5514271Y463695D01*
G01X5531543Y469537D01*
G01X5542973Y486555D01*
G01X5548561Y515257D01*
G01X5548561Y532275D01*
G01X5542973Y560977D01*
G01X5531543Y577995D01*
G01X5514271Y583837D01*
G01X5502841Y583837D01*
G01X5596313Y543705D02*
G01X5659305Y463695D01*
G01X5659305Y543705D02*
G01X5596313Y463695D01*
G01X5712899Y555135D02*
G01X5712899Y560977D01*
G01X5718487Y572407D01*
G01X5724329Y577995D01*
G01X5735759Y583837D01*
G01X5758619Y583837D01*
G01X5770049Y577995D01*
G01X5775637Y572407D01*
G01X5781479Y560977D01*
G01X5781479Y549547D01*
G01X5775637Y538117D01*
G01X5764207Y520845D01*
G01X5707057Y463695D01*
G01X5787067Y463695D01*
G01X5840661Y492397D02*
G01X5834819Y486555D01*
G01X5840661Y480967D01*
G01X5846249Y486555D01*
G01X5840661Y492397D01*
G01X5962581Y583837D02*
G01X5905431Y583837D01*
G01X5899843Y532275D01*
G01X5905431Y538117D01*
G01X5922703Y543705D01*
G01X5939721Y543705D01*
G01X5956993Y538117D01*
G01X5968423Y526687D01*
G01X5974011Y509415D01*
G01X5974011Y497985D01*
G01X5968423Y480967D01*
G01X5956993Y469537D01*
G01X5939721Y463695D01*
G01X5922703Y463695D01*
G01X5905431Y469537D01*
G01X5899843Y475125D01*
G01X5894001Y486555D01*
G01X6056053Y583837D02*
G01X6039035Y577995D01*
G01X6027605Y560977D01*
G01X6021763Y532275D01*
G01X6021763Y515257D01*
G01X6027605Y486555D01*
G01X6039035Y469537D01*
G01X6056053Y463695D01*
G01X6067483Y463695D01*
G01X6084755Y469537D01*
G01X6096185Y486555D01*
G01X6101773Y515257D01*
G01X6101773Y532275D01*
G01X6096185Y560977D01*
G01X6084755Y577995D01*
G01X6067483Y583837D01*
G01X6056053Y583837D01*
G01X6183815Y583837D02*
G01X6166797Y577995D01*
G01X6155367Y560977D01*
G01X6149525Y532275D01*
G01X6149525Y515257D01*
G01X6155367Y486555D01*
G01X6166797Y469537D01*
G01X6183815Y463695D01*
G01X6195245Y463695D01*
G01X6212517Y469537D01*
G01X6223947Y486555D01*
G01X6229535Y515257D01*
G01X6229535Y532275D01*
G01X6223947Y560977D01*
G01X6212517Y577995D01*
G01X6195245Y583837D01*
G01X6183815Y583837D01*
G01X6277287Y543705D02*
G01X6277287Y463695D01*
G01X6277287Y520845D02*
G01X6294559Y538117D01*
G01X6305989Y543705D01*
G01X6323007Y543705D01*
G01X6334437Y538117D01*
G01X6340279Y520845D01*
G01X6340279Y463695D01*
G01X6340279Y520845D02*
G01X6357297Y538117D01*
G01X6368727Y543705D01*
G01X6385999Y543705D01*
G01X6397429Y538117D01*
G01X6403017Y520845D01*
G01X6403017Y463695D01*
G01X6450769Y543705D02*
G01X6450769Y463695D01*
G01X6450769Y520845D02*
G01X6468041Y538117D01*
G01X6479471Y543705D01*
G01X6496489Y543705D01*
G01X6507919Y538117D01*
G01X6513761Y520845D01*
G01X6513761Y463695D01*
G01X6513761Y520845D02*
G01X6530779Y538117D01*
G01X6542209Y543705D01*
G01X6559481Y543705D01*
G01X6570911Y538117D01*
G01X6576499Y520845D01*
G01X6576499Y463695D01*
G01X6624251Y606697D02*
G01X6635681Y595267D01*
G01X6647111Y577995D01*
G01X6658541Y555135D01*
G01X6664383Y526687D01*
G01X6664383Y503827D01*
G01X6658541Y475125D01*
G01X6647111Y452265D01*
G01X6635681Y435247D01*
G01X6624251Y423817D01*
G01X7555561Y583837D02*
G01X7555561Y463695D01*
G01X7555561Y583837D02*
G01X7607123Y583837D01*
G01X7624141Y577995D01*
G01X7629983Y572407D01*
G01X7635571Y560977D01*
G01X7635571Y543705D01*
G01X7629983Y532275D01*
G01X7624141Y526687D01*
G01X7607123Y520845D01*
G01X7555561Y520845D01*
G01X7723455Y583837D02*
G01X7723455Y463695D01*
G01X7683323Y583837D02*
G01X7763333Y583837D01*
G01X7811085Y583837D02*
G01X7811085Y463695D01*
G01X7891095Y583837D02*
G01X7891095Y463695D01*
G01X7811085Y526687D02*
G01X7891095Y526687D01*
G01X9096978Y566565D02*
G01X9085548Y577995D01*
G01X9068530Y583837D01*
G01X9045670Y583837D01*
G01X9028398Y577995D01*
G01X9016968Y566565D01*
G01X9016968Y555135D01*
G01X9022810Y543705D01*
G01X9028398Y538117D01*
G01X9039828Y532275D01*
G01X9074118Y520845D01*
G01X9085548Y515257D01*
G01X9091390Y509415D01*
G01X9096978Y497985D01*
G01X9096978Y480967D01*
G01X9085548Y469537D01*
G01X9068530Y463695D01*
G01X9045670Y463695D01*
G01X9028398Y469537D01*
G01X9016968Y480967D01*
G01X9144730Y583837D02*
G01X9144730Y463695D01*
G01X9221184Y543705D02*
G01X9209754Y538117D01*
G01X9198324Y526687D01*
G01X9192482Y509415D01*
G01X9192482Y497985D01*
G01X9198324Y480967D01*
G01X9209754Y469537D01*
G01X9221184Y463695D01*
G01X9238202Y463695D01*
G01X9249632Y469537D01*
G01X9261062Y480967D01*
G01X9266904Y497985D01*
G01X9266904Y509415D01*
G01X9261062Y526687D01*
G01X9249632Y538117D01*
G01X9238202Y543705D01*
G01X9221184Y543705D01*
G01X9331928Y583837D02*
G01X9331928Y486555D01*
G01X9337516Y469537D01*
G01X9348946Y463695D01*
G01X9360376Y463695D01*
G01X9314656Y543705D02*
G01X9354788Y543705D01*
G01X10448149Y583837D02*
G01X10448149Y463695D01*
G01X10448149Y583837D02*
G01X10499711Y583837D01*
G01X10516729Y577995D01*
G01X10522571Y572407D01*
G01X10528159Y560977D01*
G01X10528159Y543705D01*
G01X10522571Y532275D01*
G01X10516729Y526687D01*
G01X10499711Y520845D01*
G01X10448149Y520845D01*
G01X10644491Y543705D02*
G01X10644491Y463695D01*
G01X10644491Y526687D02*
G01X10633061Y538117D01*
G01X10621631Y543705D01*
G01X10604613Y543705D01*
G01X10593183Y538117D01*
G01X10581753Y526687D01*
G01X10575911Y509415D01*
G01X10575911Y497985D01*
G01X10581753Y480967D01*
G01X10593183Y469537D01*
G01X10604613Y463695D01*
G01X10621631Y463695D01*
G01X10633061Y469537D01*
G01X10644491Y480967D01*
G01X10760823Y583837D02*
G01X10760823Y463695D01*
G01X10760823Y526687D02*
G01X10749393Y538117D01*
G01X10737963Y543705D01*
G01X10720945Y543705D01*
G01X10709515Y538117D01*
G01X10698085Y526687D01*
G01X10692243Y509415D01*
G01X10692243Y497985D01*
G01X10698085Y480967D01*
G01X10709515Y469537D01*
G01X10720945Y463695D01*
G01X10737963Y463695D01*
G01X10749393Y469537D01*
G01X10760823Y480967D01*
G01X12151618Y583837D02*
G01X12140188Y577995D01*
G01X12128758Y566565D01*
G01X12123170Y555135D01*
G01X12117328Y538117D01*
G01X12117328Y509415D01*
G01X12123170Y492397D01*
G01X12128758Y480967D01*
G01X12140188Y469537D01*
G01X12151618Y463695D01*
G01X12174478Y463695D01*
G01X12185908Y469537D01*
G01X12197338Y480967D01*
G01X12203180Y492397D01*
G01X12208768Y509415D01*
G01X12208768Y538117D01*
G01X12203180Y555135D01*
G01X12197338Y566565D01*
G01X12185908Y577995D01*
G01X12174478Y583837D01*
G01X12151618Y583837D01*
G01X12256520Y543705D02*
G01X12290810Y463695D01*
G01X12325100Y543705D02*
G01X12290810Y463695D01*
G01X12441432Y543705D02*
G01X12441432Y463695D01*
G01X12441432Y526687D02*
G01X12430002Y538117D01*
G01X12418572Y543705D01*
G01X12401554Y543705D01*
G01X12390124Y538117D01*
G01X12378694Y526687D01*
G01X12372852Y509415D01*
G01X12372852Y497985D01*
G01X12378694Y480967D01*
G01X12390124Y469537D01*
G01X12401554Y463695D01*
G01X12418572Y463695D01*
G01X12430002Y469537D01*
G01X12441432Y480967D01*
G01X12489184Y583837D02*
G01X12489184Y463695D01*
G01X14076829Y583837D02*
G01X14076829Y463695D01*
G01X14036697Y583837D02*
G01X14116707Y583837D01*
G01X14193161Y543705D02*
G01X14181731Y538117D01*
G01X14170301Y526687D01*
G01X14164459Y509415D01*
G01X14164459Y497985D01*
G01X14170301Y480967D01*
G01X14181731Y469537D01*
G01X14193161Y463695D01*
G01X14210179Y463695D01*
G01X14221609Y469537D01*
G01X14233039Y480967D01*
G01X14238881Y497985D01*
G01X14238881Y509415D01*
G01X14233039Y526687D01*
G01X14221609Y538117D01*
G01X14210179Y543705D01*
G01X14193161Y543705D01*
G01X14286633Y543705D02*
G01X14286633Y423817D01*
G01X14286633Y526687D02*
G01X14298063Y538117D01*
G01X14309493Y543705D01*
G01X14326765Y543705D01*
G01X14338195Y538117D01*
G01X14349625Y526687D01*
G01X14355213Y509415D01*
G01X14355213Y497985D01*
G01X14349625Y480967D01*
G01X14338195Y469537D01*
G01X14326765Y463695D01*
G01X14309493Y463695D01*
G01X14298063Y469537D01*
G01X14286633Y480967D01*
G01X14530981Y583837D02*
G01X14530981Y463695D01*
G01X14530981Y463695D02*
G01X14599561Y463695D01*
G01X14715893Y543705D02*
G01X14715893Y463695D01*
G01X14715893Y526687D02*
G01X14704463Y538117D01*
G01X14693033Y543705D01*
G01X14676015Y543705D01*
G01X14664585Y538117D01*
G01X14653155Y526687D01*
G01X14647313Y509415D01*
G01X14647313Y497985D01*
G01X14653155Y480967D01*
G01X14664585Y469537D01*
G01X14676015Y463695D01*
G01X14693033Y463695D01*
G01X14704463Y469537D01*
G01X14715893Y480967D01*
G01X14769487Y543705D02*
G01X14803777Y463695D01*
G01X14838067Y543705D02*
G01X14803777Y463695D01*
G01X14792347Y440835D01*
G01X14780917Y429405D01*
G01X14769487Y423817D01*
G01X14763645Y423817D01*
G01X14885819Y509415D02*
G01X14954399Y509415D01*
G01X14954399Y520845D01*
G01X14948811Y532275D01*
G01X14942969Y538117D01*
G01X14931539Y543705D01*
G01X14914521Y543705D01*
G01X14903091Y538117D01*
G01X14891661Y526687D01*
G01X14885819Y509415D01*
G01X14885819Y497985D01*
G01X14891661Y480967D01*
G01X14903091Y469537D01*
G01X14914521Y463695D01*
G01X14931539Y463695D01*
G01X14942969Y469537D01*
G01X14954399Y480967D01*
G01X15002151Y543705D02*
G01X15002151Y463695D01*
G01X15002151Y509415D02*
G01X15007993Y526687D01*
G01X15019423Y538117D01*
G01X15030853Y543705D01*
G01X15047871Y543705D01*
G01X15095623Y515257D02*
G01X15198493Y515257D01*
G01X15246245Y583837D02*
G01X15246245Y463695D01*
G01X15246245Y583837D02*
G01X15297807Y583837D01*
G01X15314825Y577995D01*
G01X15320667Y572407D01*
G01X15326255Y560977D01*
G01X15326255Y549547D01*
G01X15320667Y538117D01*
G01X15314825Y532275D01*
G01X15297807Y526687D01*
G01X15246245Y526687D02*
G01X15297807Y526687D01*
G01X15314825Y520845D01*
G01X15320667Y515257D01*
G01X15326255Y503827D01*
G01X15326255Y486555D01*
G01X15320667Y475125D01*
G01X15314825Y469537D01*
G01X15297807Y463695D01*
G01X15246245Y463695D01*
G01X15402709Y543705D02*
G01X15391279Y538117D01*
G01X15379849Y526687D01*
G01X15374007Y509415D01*
G01X15374007Y497985D01*
G01X15379849Y480967D01*
G01X15391279Y469537D01*
G01X15402709Y463695D01*
G01X15419727Y463695D01*
G01X15431157Y469537D01*
G01X15442587Y480967D01*
G01X15448429Y497985D01*
G01X15448429Y509415D01*
G01X15442587Y526687D01*
G01X15431157Y538117D01*
G01X15419727Y543705D01*
G01X15402709Y543705D01*
G01X15513453Y583837D02*
G01X15513453Y486555D01*
G01X15519041Y469537D01*
G01X15530471Y463695D01*
G01X15541901Y463695D01*
G01X15496181Y543705D02*
G01X15536313Y543705D01*
G01X15606925Y583837D02*
G01X15606925Y486555D01*
G01X15612513Y469537D01*
G01X15623943Y463695D01*
G01X15635373Y463695D01*
G01X15589653Y543705D02*
G01X15629785Y543705D01*
G01X15711827Y543705D02*
G01X15700397Y538117D01*
G01X15688967Y526687D01*
G01X15683125Y509415D01*
G01X15683125Y497985D01*
G01X15688967Y480967D01*
G01X15700397Y469537D01*
G01X15711827Y463695D01*
G01X15728845Y463695D01*
G01X15740275Y469537D01*
G01X15751705Y480967D01*
G01X15757547Y497985D01*
G01X15757547Y509415D01*
G01X15751705Y526687D01*
G01X15740275Y538117D01*
G01X15728845Y543705D01*
G01X15711827Y543705D01*
G01X15805299Y543705D02*
G01X15805299Y463695D01*
G01X15805299Y520845D02*
G01X15822571Y538117D01*
G01X15834001Y543705D01*
G01X15851019Y543705D01*
G01X15862449Y538117D01*
G01X15868291Y520845D01*
G01X15868291Y463695D01*
G01X15868291Y520845D02*
G01X15885309Y538117D01*
G01X15896739Y543705D01*
G01X15914011Y543705D01*
G01X15925441Y538117D01*
G01X15931029Y520845D01*
G01X15931029Y463695D01*
G01X16106797Y583837D02*
G01X16106797Y463695D01*
G01X16106797Y463695D02*
G01X16175377Y463695D01*
G01X16291709Y543705D02*
G01X16291709Y463695D01*
G01X16291709Y526687D02*
G01X16280279Y538117D01*
G01X16268849Y543705D01*
G01X16251831Y543705D01*
G01X16240401Y538117D01*
G01X16228971Y526687D01*
G01X16223129Y509415D01*
G01X16223129Y497985D01*
G01X16228971Y480967D01*
G01X16240401Y469537D01*
G01X16251831Y463695D01*
G01X16268849Y463695D01*
G01X16280279Y469537D01*
G01X16291709Y480967D01*
G01X16345303Y543705D02*
G01X16379593Y463695D01*
G01X16413883Y543705D02*
G01X16379593Y463695D01*
G01X16368163Y440835D01*
G01X16356733Y429405D01*
G01X16345303Y423817D01*
G01X16339461Y423817D01*
G01X16461635Y509415D02*
G01X16530215Y509415D01*
G01X16530215Y520845D01*
G01X16524627Y532275D01*
G01X16518785Y538117D01*
G01X16507355Y543705D01*
G01X16490337Y543705D01*
G01X16478907Y538117D01*
G01X16467477Y526687D01*
G01X16461635Y509415D01*
G01X16461635Y497985D01*
G01X16467477Y480967D01*
G01X16478907Y469537D01*
G01X16490337Y463695D01*
G01X16507355Y463695D01*
G01X16518785Y469537D01*
G01X16530215Y480967D01*
G01X16577967Y543705D02*
G01X16577967Y463695D01*
G01X16577967Y509415D02*
G01X16583809Y526687D01*
G01X16595239Y538117D01*
G01X16606669Y543705D01*
G01X16623687Y543705D01*
G01X2259116Y-25436D02*
G01X2259116Y-19594D01*
G01X2264704Y-8164D01*
G01X2270546Y-2576D01*
G01X2281976Y3266D01*
G01X2304836Y3266D01*
G01X2316266Y-2576D01*
G01X2321854Y-8164D01*
G01X2327696Y-19594D01*
G01X2327696Y-31024D01*
G01X2321854Y-42454D01*
G01X2310424Y-59726D01*
G01X2253274Y-116876D01*
G01X2333284Y-116876D01*
G01X2409738Y3266D02*
G01X2392466Y-2576D01*
G01X2386878Y-14006D01*
G01X2386878Y-25436D01*
G01X2392466Y-36866D01*
G01X2403896Y-42454D01*
G01X2426756Y-48296D01*
G01X2444028Y-53884D01*
G01X2455458Y-65314D01*
G01X2461046Y-76744D01*
G01X2461046Y-94016D01*
G01X2455458Y-105446D01*
G01X2449616Y-111034D01*
G01X2432598Y-116876D01*
G01X2409738Y-116876D01*
G01X2392466Y-111034D01*
G01X2386878Y-105446D01*
G01X2381036Y-94016D01*
G01X2381036Y-76744D01*
G01X2386878Y-65314D01*
G01X2398308Y-53884D01*
G01X2415326Y-48296D01*
G01X2438186Y-42454D01*
G01X2449616Y-36866D01*
G01X2455458Y-25436D01*
G01X2455458Y-14006D01*
G01X2449616Y-2576D01*
G01X2432598Y3266D01*
G01X2409738Y3266D01*
G01X3667437Y-19594D02*
G01X3678867Y-14006D01*
G01X3696139Y3266D01*
G01X3696139Y-116876D01*
G01X3749733Y-25436D02*
G01X3749733Y-19594D01*
G01X3755321Y-8164D01*
G01X3761163Y-2576D01*
G01X3772593Y3266D01*
G01X3795453Y3266D01*
G01X3806883Y-2576D01*
G01X3812471Y-8164D01*
G01X3818313Y-19594D01*
G01X3818313Y-31024D01*
G01X3812471Y-42454D01*
G01X3801041Y-59726D01*
G01X3743891Y-116876D01*
G01X3823901Y-116876D01*
G01X3877495Y-88174D02*
G01X3871653Y-94016D01*
G01X3877495Y-99604D01*
G01X3883083Y-94016D01*
G01X3877495Y-88174D01*
G01X3965125Y3266D02*
G01X3948107Y-2576D01*
G01X3936677Y-19594D01*
G01X3930835Y-48296D01*
G01X3930835Y-65314D01*
G01X3936677Y-94016D01*
G01X3948107Y-111034D01*
G01X3965125Y-116876D01*
G01X3976555Y-116876D01*
G01X3993827Y-111034D01*
G01X4005257Y-94016D01*
G01X4010845Y-65314D01*
G01X4010845Y-48296D01*
G01X4005257Y-19594D01*
G01X3993827Y-2576D01*
G01X3976555Y3266D01*
G01X3965125Y3266D01*
G01X4058597Y-36866D02*
G01X4058597Y-116876D01*
G01X4058597Y-59726D02*
G01X4075869Y-42454D01*
G01X4087299Y-36866D01*
G01X4104317Y-36866D01*
G01X4115747Y-42454D01*
G01X4121589Y-59726D01*
G01X4121589Y-116876D01*
G01X4121589Y-59726D02*
G01X4138607Y-42454D01*
G01X4150037Y-36866D01*
G01X4167309Y-36866D01*
G01X4178739Y-42454D01*
G01X4184327Y-59726D01*
G01X4184327Y-116876D01*
G01X4232079Y3266D02*
G01X4237921Y-2576D01*
G01X4243509Y3266D01*
G01X4237921Y8854D01*
G01X4232079Y3266D01*
G01X4237921Y-36866D02*
G01X4237921Y-116876D01*
G01X4291261Y3266D02*
G01X4291261Y-116876D01*
G01X4379145Y26126D02*
G01X4367715Y14696D01*
G01X4356285Y-2576D01*
G01X4344855Y-25436D01*
G01X4339013Y-53884D01*
G01X4339013Y-76744D01*
G01X4344855Y-105446D01*
G01X4356285Y-128306D01*
G01X4367715Y-145324D01*
G01X4379145Y-156754D01*
G01X4461187Y3266D02*
G01X4444169Y-2576D01*
G01X4432739Y-19594D01*
G01X4426897Y-48296D01*
G01X4426897Y-65314D01*
G01X4432739Y-94016D01*
G01X4444169Y-111034D01*
G01X4461187Y-116876D01*
G01X4472617Y-116876D01*
G01X4489889Y-111034D01*
G01X4501319Y-94016D01*
G01X4506907Y-65314D01*
G01X4506907Y-48296D01*
G01X4501319Y-19594D01*
G01X4489889Y-2576D01*
G01X4472617Y3266D01*
G01X4461187Y3266D01*
G01X4560501Y-88174D02*
G01X4554659Y-94016D01*
G01X4560501Y-99604D01*
G01X4566089Y-94016D01*
G01X4560501Y-88174D01*
G01X4625271Y3266D02*
G01X4688263Y3266D01*
G01X4653973Y-42454D01*
G01X4670991Y-42454D01*
G01X4682421Y-48296D01*
G01X4688263Y-53884D01*
G01X4693851Y-71156D01*
G01X4693851Y-82586D01*
G01X4688263Y-99604D01*
G01X4676833Y-111034D01*
G01X4659561Y-116876D01*
G01X4642543Y-116876D01*
G01X4625271Y-111034D01*
G01X4619683Y-105446D01*
G01X4613841Y-94016D01*
G01X4775893Y3266D02*
G01X4758875Y-2576D01*
G01X4747445Y-19594D01*
G01X4741603Y-48296D01*
G01X4741603Y-65314D01*
G01X4747445Y-94016D01*
G01X4758875Y-111034D01*
G01X4775893Y-116876D01*
G01X4787323Y-116876D01*
G01X4804595Y-111034D01*
G01X4816025Y-94016D01*
G01X4821613Y-65314D01*
G01X4821613Y-48296D01*
G01X4816025Y-19594D01*
G01X4804595Y-2576D01*
G01X4787323Y3266D01*
G01X4775893Y3266D01*
G01X4937945Y3266D02*
G01X4880795Y3266D01*
G01X4875207Y-48296D01*
G01X4880795Y-42454D01*
G01X4898067Y-36866D01*
G01X4915085Y-36866D01*
G01X4932357Y-42454D01*
G01X4943787Y-53884D01*
G01X4949375Y-71156D01*
G01X4949375Y-82586D01*
G01X4943787Y-99604D01*
G01X4932357Y-111034D01*
G01X4915085Y-116876D01*
G01X4898067Y-116876D01*
G01X4880795Y-111034D01*
G01X4875207Y-105446D01*
G01X4869365Y-94016D01*
G01X4997127Y-36866D02*
G01X4997127Y-116876D01*
G01X4997127Y-59726D02*
G01X5014399Y-42454D01*
G01X5025829Y-36866D01*
G01X5042847Y-36866D01*
G01X5054277Y-42454D01*
G01X5060119Y-59726D01*
G01X5060119Y-116876D01*
G01X5060119Y-59726D02*
G01X5077137Y-42454D01*
G01X5088567Y-36866D01*
G01X5105839Y-36866D01*
G01X5117269Y-42454D01*
G01X5122857Y-59726D01*
G01X5122857Y-116876D01*
G01X5170609Y-36866D02*
G01X5170609Y-116876D01*
G01X5170609Y-59726D02*
G01X5187881Y-42454D01*
G01X5199311Y-36866D01*
G01X5216329Y-36866D01*
G01X5227759Y-42454D01*
G01X5233601Y-59726D01*
G01X5233601Y-116876D01*
G01X5233601Y-59726D02*
G01X5250619Y-42454D01*
G01X5262049Y-36866D01*
G01X5279321Y-36866D01*
G01X5290751Y-42454D01*
G01X5296339Y-59726D01*
G01X5296339Y-116876D01*
G01X5344091Y26126D02*
G01X5355521Y14696D01*
G01X5366951Y-2576D01*
G01X5378381Y-25436D01*
G01X5384223Y-53884D01*
G01X5384223Y-76744D01*
G01X5378381Y-105446D01*
G01X5366951Y-128306D01*
G01X5355521Y-145324D01*
G01X5344091Y-156754D01*
G01X7555561Y3266D02*
G01X7555561Y-116876D01*
G01X7555561Y3266D02*
G01X7607123Y3266D01*
G01X7624141Y-2576D01*
G01X7629983Y-8164D01*
G01X7635571Y-19594D01*
G01X7635571Y-36866D01*
G01X7629983Y-48296D01*
G01X7624141Y-53884D01*
G01X7607123Y-59726D01*
G01X7555561Y-59726D01*
G01X7723455Y3266D02*
G01X7723455Y-116876D01*
G01X7683323Y3266D02*
G01X7763333Y3266D01*
G01X7811085Y3266D02*
G01X7811085Y-116876D01*
G01X7891095Y3266D02*
G01X7891095Y-116876D01*
G01X7811085Y-53884D02*
G01X7891095Y-53884D01*
G01X9016968Y3266D02*
G01X9016968Y-116876D01*
G01X9016968Y3266D02*
G01X9068530Y3266D01*
G01X9085548Y-2576D01*
G01X9091390Y-8164D01*
G01X9096978Y-19594D01*
G01X9096978Y-31024D01*
G01X9091390Y-42454D01*
G01X9085548Y-48296D01*
G01X9068530Y-53884D01*
G01X9016968Y-53884D01*
G01X9057100Y-53884D02*
G01X9096978Y-116876D01*
G01X9173432Y-36866D02*
G01X9162002Y-42454D01*
G01X9150572Y-53884D01*
G01X9144730Y-71156D01*
G01X9144730Y-82586D01*
G01X9150572Y-99604D01*
G01X9162002Y-111034D01*
G01X9173432Y-116876D01*
G01X9190450Y-116876D01*
G01X9201880Y-111034D01*
G01X9213310Y-99604D01*
G01X9219152Y-82586D01*
G01X9219152Y-71156D01*
G01X9213310Y-53884D01*
G01X9201880Y-42454D01*
G01X9190450Y-36866D01*
G01X9173432Y-36866D01*
G01X9266904Y-36866D02*
G01X9266904Y-94016D01*
G01X9272746Y-111034D01*
G01X9284176Y-116876D01*
G01X9301194Y-116876D01*
G01X9312624Y-111034D01*
G01X9329896Y-94016D01*
G01X9329896Y-36866D02*
G01X9329896Y-116876D01*
G01X9377648Y-36866D02*
G01X9377648Y-116876D01*
G01X9377648Y-59726D02*
G01X9394920Y-42454D01*
G01X9406350Y-36866D01*
G01X9423368Y-36866D01*
G01X9434798Y-42454D01*
G01X9440640Y-59726D01*
G01X9440640Y-116876D01*
G01X9556972Y3266D02*
G01X9556972Y-116876D01*
G01X9556972Y-53884D02*
G01X9545542Y-42454D01*
G01X9534112Y-36866D01*
G01X9517094Y-36866D01*
G01X9505664Y-42454D01*
G01X9494234Y-53884D01*
G01X9488392Y-71156D01*
G01X9488392Y-82586D01*
G01X9494234Y-99604D01*
G01X9505664Y-111034D01*
G01X9517094Y-116876D01*
G01X9534112Y-116876D01*
G01X9545542Y-111034D01*
G01X9556972Y-99604D01*
G01X10448149Y3266D02*
G01X10493869Y-116876D01*
G01X10539589Y3266D02*
G01X10493869Y-116876D01*
G01X10587341Y3266D02*
G01X10593183Y-2576D01*
G01X10598771Y3266D01*
G01X10593183Y8854D01*
G01X10587341Y3266D01*
G01X10593183Y-36866D02*
G01X10593183Y-116876D01*
G01X10715103Y-36866D02*
G01X10715103Y-116876D01*
G01X10715103Y-53884D02*
G01X10703673Y-42454D01*
G01X10692243Y-36866D01*
G01X10675225Y-36866D01*
G01X10663795Y-42454D01*
G01X10652365Y-53884D01*
G01X10646523Y-71156D01*
G01X10646523Y-82586D01*
G01X10652365Y-99604D01*
G01X10663795Y-111034D01*
G01X10675225Y-116876D01*
G01X10692243Y-116876D01*
G01X10703673Y-111034D01*
G01X10715103Y-99604D01*
G01X14076829Y3266D02*
G01X14076829Y-116876D01*
G01X14036697Y3266D02*
G01X14116707Y3266D01*
G01X14193161Y-36866D02*
G01X14181731Y-42454D01*
G01X14170301Y-53884D01*
G01X14164459Y-71156D01*
G01X14164459Y-82586D01*
G01X14170301Y-99604D01*
G01X14181731Y-111034D01*
G01X14193161Y-116876D01*
G01X14210179Y-116876D01*
G01X14221609Y-111034D01*
G01X14233039Y-99604D01*
G01X14238881Y-82586D01*
G01X14238881Y-71156D01*
G01X14233039Y-53884D01*
G01X14221609Y-42454D01*
G01X14210179Y-36866D01*
G01X14193161Y-36866D01*
G01X14286633Y-36866D02*
G01X14286633Y-156754D01*
G01X14286633Y-53884D02*
G01X14298063Y-42454D01*
G01X14309493Y-36866D01*
G01X14326765Y-36866D01*
G01X14338195Y-42454D01*
G01X14349625Y-53884D01*
G01X14355213Y-71156D01*
G01X14355213Y-82586D01*
G01X14349625Y-99604D01*
G01X14338195Y-111034D01*
G01X14326765Y-116876D01*
G01X14309493Y-116876D01*
G01X14298063Y-111034D01*
G01X14286633Y-99604D01*
G01X14530981Y3266D02*
G01X14530981Y-116876D01*
G01X14530981Y-116876D02*
G01X14599561Y-116876D01*
G01X14715893Y-36866D02*
G01X14715893Y-116876D01*
G01X14715893Y-53884D02*
G01X14704463Y-42454D01*
G01X14693033Y-36866D01*
G01X14676015Y-36866D01*
G01X14664585Y-42454D01*
G01X14653155Y-53884D01*
G01X14647313Y-71156D01*
G01X14647313Y-82586D01*
G01X14653155Y-99604D01*
G01X14664585Y-111034D01*
G01X14676015Y-116876D01*
G01X14693033Y-116876D01*
G01X14704463Y-111034D01*
G01X14715893Y-99604D01*
G01X14769487Y-36866D02*
G01X14803777Y-116876D01*
G01X14838067Y-36866D02*
G01X14803777Y-116876D01*
G01X14792347Y-139736D01*
G01X14780917Y-151166D01*
G01X14769487Y-156754D01*
G01X14763645Y-156754D01*
G01X14885819Y-71156D02*
G01X14954399Y-71156D01*
G01X14954399Y-59726D01*
G01X14948811Y-48296D01*
G01X14942969Y-42454D01*
G01X14931539Y-36866D01*
G01X14914521Y-36866D01*
G01X14903091Y-42454D01*
G01X14891661Y-53884D01*
G01X14885819Y-71156D01*
G01X14885819Y-82586D01*
G01X14891661Y-99604D01*
G01X14903091Y-111034D01*
G01X14914521Y-116876D01*
G01X14931539Y-116876D01*
G01X14942969Y-111034D01*
G01X14954399Y-99604D01*
G01X15002151Y-36866D02*
G01X15002151Y-116876D01*
G01X15002151Y-71156D02*
G01X15007993Y-53884D01*
G01X15019423Y-42454D01*
G01X15030853Y-36866D01*
G01X15047871Y-36866D01*
G01X15095623Y-65314D02*
G01X15198493Y-65314D01*
G01X15246245Y3266D02*
G01X15246245Y-116876D01*
G01X15246245Y3266D02*
G01X15297807Y3266D01*
G01X15314825Y-2576D01*
G01X15320667Y-8164D01*
G01X15326255Y-19594D01*
G01X15326255Y-31024D01*
G01X15320667Y-42454D01*
G01X15314825Y-48296D01*
G01X15297807Y-53884D01*
G01X15246245Y-53884D02*
G01X15297807Y-53884D01*
G01X15314825Y-59726D01*
G01X15320667Y-65314D01*
G01X15326255Y-76744D01*
G01X15326255Y-94016D01*
G01X15320667Y-105446D01*
G01X15314825Y-111034D01*
G01X15297807Y-116876D01*
G01X15246245Y-116876D01*
G01X15402709Y-36866D02*
G01X15391279Y-42454D01*
G01X15379849Y-53884D01*
G01X15374007Y-71156D01*
G01X15374007Y-82586D01*
G01X15379849Y-99604D01*
G01X15391279Y-111034D01*
G01X15402709Y-116876D01*
G01X15419727Y-116876D01*
G01X15431157Y-111034D01*
G01X15442587Y-99604D01*
G01X15448429Y-82586D01*
G01X15448429Y-71156D01*
G01X15442587Y-53884D01*
G01X15431157Y-42454D01*
G01X15419727Y-36866D01*
G01X15402709Y-36866D01*
G01X15513453Y3266D02*
G01X15513453Y-94016D01*
G01X15519041Y-111034D01*
G01X15530471Y-116876D01*
G01X15541901Y-116876D01*
G01X15496181Y-36866D02*
G01X15536313Y-36866D01*
G01X15606925Y3266D02*
G01X15606925Y-94016D01*
G01X15612513Y-111034D01*
G01X15623943Y-116876D01*
G01X15635373Y-116876D01*
G01X15589653Y-36866D02*
G01X15629785Y-36866D01*
G01X15711827Y-36866D02*
G01X15700397Y-42454D01*
G01X15688967Y-53884D01*
G01X15683125Y-71156D01*
G01X15683125Y-82586D01*
G01X15688967Y-99604D01*
G01X15700397Y-111034D01*
G01X15711827Y-116876D01*
G01X15728845Y-116876D01*
G01X15740275Y-111034D01*
G01X15751705Y-99604D01*
G01X15757547Y-82586D01*
G01X15757547Y-71156D01*
G01X15751705Y-53884D01*
G01X15740275Y-42454D01*
G01X15728845Y-36866D01*
G01X15711827Y-36866D01*
G01X15805299Y-36866D02*
G01X15805299Y-116876D01*
G01X15805299Y-59726D02*
G01X15822571Y-42454D01*
G01X15834001Y-36866D01*
G01X15851019Y-36866D01*
G01X15862449Y-42454D01*
G01X15868291Y-59726D01*
G01X15868291Y-116876D01*
G01X15868291Y-59726D02*
G01X15885309Y-42454D01*
G01X15896739Y-36866D01*
G01X15914011Y-36866D01*
G01X15925441Y-42454D01*
G01X15931029Y-59726D01*
G01X15931029Y-116876D01*
G01X16106797Y3266D02*
G01X16106797Y-116876D01*
G01X16106797Y-116876D02*
G01X16175377Y-116876D01*
G01X16291709Y-36866D02*
G01X16291709Y-116876D01*
G01X16291709Y-53884D02*
G01X16280279Y-42454D01*
G01X16268849Y-36866D01*
G01X16251831Y-36866D01*
G01X16240401Y-42454D01*
G01X16228971Y-53884D01*
G01X16223129Y-71156D01*
G01X16223129Y-82586D01*
G01X16228971Y-99604D01*
G01X16240401Y-111034D01*
G01X16251831Y-116876D01*
G01X16268849Y-116876D01*
G01X16280279Y-111034D01*
G01X16291709Y-99604D01*
G01X16345303Y-36866D02*
G01X16379593Y-116876D01*
G01X16413883Y-36866D02*
G01X16379593Y-116876D01*
G01X16368163Y-139736D01*
G01X16356733Y-151166D01*
G01X16345303Y-156754D01*
G01X16339461Y-156754D01*
G01X16461635Y-71156D02*
G01X16530215Y-71156D01*
G01X16530215Y-59726D01*
G01X16524627Y-48296D01*
G01X16518785Y-42454D01*
G01X16507355Y-36866D01*
G01X16490337Y-36866D01*
G01X16478907Y-42454D01*
G01X16467477Y-53884D01*
G01X16461635Y-71156D01*
G01X16461635Y-82586D01*
G01X16467477Y-99604D01*
G01X16478907Y-111034D01*
G01X16490337Y-116876D01*
G01X16507355Y-116876D01*
G01X16518785Y-111034D01*
G01X16530215Y-99604D01*
G01X16577967Y-36866D02*
G01X16577967Y-116876D01*
G01X16577967Y-71156D02*
G01X16583809Y-53884D01*
G01X16595239Y-42454D01*
G01X16606669Y-36866D01*
G01X16623687Y-36866D01*

G04 Image Start*
G36*
G01X1088663Y983796D02*
G01X983049Y995277D01*
G01X940174Y898071D01*
G01X897299Y995277D01*
G01X791686Y983796D01*
G01X854449Y1069521D01*
G01X814727Y1123776D01*
G01X846220Y1123776D01*
G01X885920Y1069521D01*
G01X846220Y1015267D01*
G01X913047Y1022531D01*
G01X913047Y1022531D01*
G01X940174Y961038D01*
G01X967301Y1022531D01*
G01X1034129Y1015267D01*
G01X994429Y1069521D01*
G01X1034103Y1123750D01*
G01X967276Y1116486D01*
G01X940174Y1178005D01*
G01X913047Y1116511D01*
G01X846220Y1123776D01*
G01X814727Y1123776D01*
G01X791686Y1155246D01*
G01X897324Y1143766D01*
G01X940174Y1240971D01*
G01X983049Y1143766D01*
G01X1088663Y1155246D01*
G01X1025899Y1069521D01*
G01X1088663Y983796D01*
G37*
G36*
G01X959669Y2098101D02*
G01X951929Y2097513D01*
G01X944086Y2097314D01*
G01X936243Y2097513D01*
G01X928502Y2098101D01*
G01X920875Y2099070D01*
G01X913370Y2100410D01*
G01X898764Y2104165D01*
G01X884762Y2109290D01*
G01X871440Y2115707D01*
G01X858874Y2123340D01*
G01X847142Y2132113D01*
G01X836320Y2141948D01*
G01X826484Y2152771D01*
G01X817711Y2164503D01*
G01X810078Y2177068D01*
G01X803661Y2190390D01*
G01X798537Y2204392D01*
G01X794782Y2218998D01*
G01X793442Y2226504D01*
G01X792472Y2234131D01*
G01X791884Y2241871D01*
G01X791686Y2249714D01*
G01X817086Y2249714D01*
G01X817743Y2236748D01*
G01X819670Y2224152D01*
G01X822805Y2211990D01*
G01X827082Y2200328D01*
G01X832437Y2189228D01*
G01X838805Y2178757D01*
G01X846123Y2168977D01*
G01X854325Y2159954D01*
G01X863349Y2151751D01*
G01X873128Y2144434D01*
G01X883600Y2138065D01*
G01X894699Y2132710D01*
G01X906362Y2128434D01*
G01X918523Y2125299D01*
G01X918523Y2125299D01*
G01X931119Y2123371D01*
G01X944086Y2122714D01*
G01X957052Y2123371D01*
G01X969648Y2125299D01*
G01X981810Y2128434D01*
G01X993472Y2132710D01*
G01X1004572Y2138065D01*
G01X1015043Y2144434D01*
G01X1024823Y2151751D01*
G01X1033846Y2159954D01*
G01X1042049Y2168977D01*
G01X1049366Y2178757D01*
G01X1055735Y2189228D01*
G01X1061090Y2200328D01*
G01X1065366Y2211990D01*
G01X1068501Y2224152D01*
G01X1070429Y2236748D01*
G01X1071086Y2249714D01*
G01X1070429Y2262681D01*
G01X1068501Y2275277D01*
G01X1065366Y2287438D01*
G01X1061090Y2299101D01*
G01X1055735Y2310200D01*
G01X1049366Y2320672D01*
G01X1042049Y2330451D01*
G01X1033846Y2339475D01*
G01X1024823Y2347677D01*
G01X1015043Y2354995D01*
G01X1004572Y2361363D01*
G01X993472Y2366718D01*
G01X981810Y2370995D01*
G01X969648Y2374129D01*
G01X957052Y2376057D01*
G01X944086Y2376714D01*
G01X931119Y2376057D01*
G01X918523Y2374129D01*
G01X906362Y2370995D01*
G01X894699Y2366718D01*
G01X883600Y2361363D01*
G01X873128Y2354995D01*
G01X863349Y2347677D01*
G01X854325Y2339475D01*
G01X846123Y2330451D01*
G01X838805Y2320672D01*
G01X832437Y2310200D01*
G01X827082Y2299101D01*
G01X822805Y2287438D01*
G01X819670Y2275277D01*
G01X817743Y2262681D01*
G01X817086Y2249714D01*
G01X791686Y2249714D01*
G01X791884Y2257557D01*
G01X792472Y2265298D01*
G01X793442Y2272925D01*
G01X794782Y2280430D01*
G01X798537Y2295036D01*
G01X803661Y2309038D01*
G01X810078Y2322360D01*
G01X817711Y2334926D01*
G01X826484Y2346658D01*
G01X836320Y2357480D01*
G01X847142Y2367316D01*
G01X858874Y2376089D01*
G01X871440Y2383722D01*
G01X884762Y2390139D01*
G01X898764Y2395263D01*
G01X913370Y2399018D01*
G01X920875Y2400358D01*
G01X928502Y2401328D01*
G01X936243Y2401916D01*
G01X944086Y2402114D01*
G01X951929Y2401916D01*
G01X959669Y2401328D01*
G01X967296Y2400358D01*
G01X974802Y2399018D01*
G01X989408Y2395263D01*
G01X1003410Y2390139D01*
G01X1016732Y2383722D01*
G01X1029297Y2376089D01*
G01X1041029Y2367316D01*
G01X1051852Y2357480D01*
G01X1061687Y2346658D01*
G01X1070460Y2334926D01*
G01X1078093Y2322360D01*
G01X1084510Y2309038D01*
G01X1089635Y2295036D01*
G01X1093390Y2280430D01*
G01X1094730Y2272925D01*
G01X1095699Y2265298D01*
G01X1096287Y2257557D01*
G01X1096486Y2249714D01*
G01X1096287Y2241871D01*
G01X1095699Y2234131D01*
G01X1094730Y2226504D01*
G01X1093390Y2218998D01*
G01X1089635Y2204392D01*
G01X1084510Y2190390D01*
G01X1078093Y2177068D01*
G01X1070460Y2164503D01*
G01X1061687Y2152771D01*
G01X1051852Y2141948D01*
G01X1041029Y2132113D01*
G01X1029297Y2123340D01*
G01X1016732Y2115707D01*
G01X1003410Y2109290D01*
G01X989408Y2104165D01*
G01X974802Y2100410D01*
G01X967296Y2099070D01*
G01X959669Y2098101D01*
G37*
G36*
G01X1096486Y-141837D02*
G01X1013377Y-141837D01*
G01X1013377Y-224971D01*
G01X874820Y-224971D01*
G01X874820Y-141863D01*
G01X791686Y-141863D01*
G01X791686Y-28706D01*
G01X817086Y-28706D01*
G01X817086Y-116437D01*
G01X900220Y-116437D01*
G01X900220Y-199571D01*
G01X900220Y-199571D01*
G01X987952Y-199571D01*
G01X987952Y-116463D01*
G01X1071086Y-116463D01*
G01X1071086Y-28706D01*
G01X987952Y-28706D01*
G01X987952Y54429D01*
G01X900220Y54429D01*
G01X900220Y-28706D01*
G01X817086Y-28706D01*
G01X791686Y-28706D01*
G01X791686Y-3306D01*
G01X874820Y-3306D01*
G01X874820Y79829D01*
G01X1013352Y79829D01*
G01X1013352Y-3306D01*
G01X1096486Y-3306D01*
G01X1096486Y-141837D01*
G37*
G36*
G01X1096486Y660400D02*
G01X1026458Y508000D01*
G01X1096486Y355600D01*
G01X944086Y425628D01*
G01X791686Y355600D01*
G01X815448Y407314D01*
G01X843400Y407314D01*
G01X933469Y448716D01*
G01X944086Y453593D01*
G01X954703Y448716D01*
G01X1044771Y407314D01*
G01X1003369Y497383D01*
G01X998493Y508000D01*
G01X1003369Y518617D01*
G01X1044771Y608686D01*
G01X954703Y567284D01*
G01X944086Y562407D01*
G01X933469Y567284D01*
G01X843400Y608686D01*
G01X884802Y518617D01*
G01X889679Y508000D01*
G01X889679Y508000D01*
G01X884802Y497383D01*
G01X843400Y407314D01*
G01X815448Y407314D01*
G01X861714Y508000D01*
G01X791686Y660400D01*
G01X944086Y590372D01*
G01X1096486Y660400D01*
G37*
G36*
G01X791686Y1821543D02*
G01X1096486Y1821543D01*
G01X944086Y1557586D01*
G01X806351Y1796143D01*
G01X835679Y1796143D01*
G01X944086Y1608386D01*
G01X1052493Y1796143D01*
G01X1052493Y1796143D01*
G01X835679Y1796143D01*
G01X806351Y1796143D01*
G01X791686Y1821543D01*
G37*
G36*
G01X791686Y2982686D02*
G01X1071086Y2982686D01*
G01X1071086Y2703286D01*
G01X791686Y2703286D01*
G01X791686Y2957286D01*
G01X817086Y2957286D01*
G01X817086Y2728686D01*
G01X1045686Y2728686D01*
G01X1045686Y2957286D01*
G01X1045686Y2957286D01*
G01X817086Y2957286D01*
G01X791686Y2957286D01*
G01X791686Y2982686D01*
G37*

G04 PolygonModel Start*
G54D17*
G01X501400Y-355600D02*
G01X17214419Y-355600D01*
G01X501400Y224971D02*
G01X17214419Y224971D01*
G01X501400Y805543D02*
G01X17214419Y805543D01*
G01X501400Y1386114D02*
G01X17214419Y1386114D01*
G01X501400Y1966686D02*
G01X17214419Y1966686D01*
G01X501400Y2547257D02*
G01X17214419Y2547257D01*
G01X501400Y3127829D02*
G01X17214419Y3127829D01*
G01X501400Y3708400D02*
G01X17214419Y3708400D01*
G01X501400Y3708400D02*
G01X501400Y-330200D01*
G01X1952829Y3708400D02*
G01X1952829Y-330200D01*
G01X3366992Y3708400D02*
G01X3366992Y-330200D01*
G01X7255115Y3708400D02*
G01X7255115Y-330200D01*
G01X8716522Y3708400D02*
G01X8716522Y-330200D01*
G01X10147703Y3708400D02*
G01X10147703Y-330200D01*
G01X11816882Y3708400D02*
G01X11816882Y-330200D01*
G01X13736251Y3708400D02*
G01X13736251Y-330200D01*
G01X17214419Y3708400D02*
G01X17214419Y-330200D01*

M02*

