G04 Layer: TopSilkscreenLayer*
G04 EasyEDA Pro v3.2.148, 2026-07-09 22:58:16*
G04 Gerber Generator version 0.3*
G04 Scale: 100 percent, Rotated: No, Reflected: No*
G04 Dimensions in millimeters*
G04 Leading zeros omitted, absolute positions, 4 integers and 5 decimals*
G04 Generated by one-click*
G04 Object Configs: Pad,Via,Track,Text,Image,Dimension,BoardOutline,BoardCutout,CopperFilled,SolidRegion,FPCStiffener,Line,PlaneZone,ComponentProperty,ComponentSilkscreen,TearDrop*
G04 Layer Configs: 1,2,3,4,5,6,7,8,9,10,11,13,14,56*
G04 Copper Areas: 0*
%FSLAX45Y45*%
%MOMM*%
%ADD10C,0.1524*%
%ADD11C,0.254*%
%ADD12C,0.8108*%
G75*


G04 Text Start*
G54D10*
G01X-12122170Y2648374D02*
G01X-12125218Y2654724D01*
G01X-12131568Y2660820D01*
G01X-12137664Y2663868D01*
G01X-12150110Y2663868D01*
G01X-12156206Y2660820D01*
G01X-12162556Y2654724D01*
G01X-12165604Y2648374D01*
G01X-12168652Y2639230D01*
G01X-12168652Y2623736D01*
G01X-12165604Y2614338D01*
G01X-12162556Y2608242D01*
G01X-12156206Y2601892D01*
G01X-12150110Y2598844D01*
G01X-12137664Y2598844D01*
G01X-12131568Y2601892D01*
G01X-12125218Y2608242D01*
G01X-12122170Y2614338D01*
G01X-12091944Y2651422D02*
G01X-12085848Y2654724D01*
G01X-12076704Y2663868D01*
G01X-12076704Y2598844D01*
G01X-3614674Y2987040D02*
G01X-3617722Y2993390D01*
G01X-3624072Y2999486D01*
G01X-3630168Y3002534D01*
G01X-3642614Y3002534D01*
G01X-3648710Y2999486D01*
G01X-3655060Y2993390D01*
G01X-3658108Y2987040D01*
G01X-3661156Y2977896D01*
G01X-3661156Y2962402D01*
G01X-3658108Y2953004D01*
G01X-3655060Y2946908D01*
G01X-3648710Y2940558D01*
G01X-3642614Y2937510D01*
G01X-3630168Y2937510D01*
G01X-3624072Y2940558D01*
G01X-3617722Y2946908D01*
G01X-3614674Y2953004D01*
G01X-3553714Y3002534D02*
G01X-3584448Y2959354D01*
G01X-3538220Y2959354D01*
G01X-3553714Y3002534D02*
G01X-3553714Y2937510D01*
G01X-6670802Y2905760D02*
G01X-6667754Y2899410D01*
G01X-6661404Y2893314D01*
G01X-6655308Y2890266D01*
G01X-6642862Y2890266D01*
G01X-6636766Y2893314D01*
G01X-6630416Y2899410D01*
G01X-6627368Y2905760D01*
G01X-6624320Y2914904D01*
G01X-6624320Y2930398D01*
G01X-6627368Y2939796D01*
G01X-6630416Y2945892D01*
G01X-6636766Y2952242D01*
G01X-6642862Y2955290D01*
G01X-6655308Y2955290D01*
G01X-6661404Y2952242D01*
G01X-6667754Y2945892D01*
G01X-6670802Y2939796D01*
G01X-6738112Y2890266D02*
G01X-6707124Y2890266D01*
G01X-6704076Y2917952D01*
G01X-6707124Y2914904D01*
G01X-6716268Y2911856D01*
G01X-6725666Y2911856D01*
G01X-6735064Y2914904D01*
G01X-6741160Y2921254D01*
G01X-6744208Y2930398D01*
G01X-6744208Y2936748D01*
G01X-6741160Y2945892D01*
G01X-6735064Y2952242D01*
G01X-6725666Y2955290D01*
G01X-6716268Y2955290D01*
G01X-6707124Y2952242D01*
G01X-6704076Y2948940D01*
G01X-6701028Y2942844D01*
G01X-9648698Y2606040D02*
G01X-9651746Y2612390D01*
G01X-9658096Y2618486D01*
G01X-9664192Y2621534D01*
G01X-9676638Y2621534D01*
G01X-9682734Y2618486D01*
G01X-9689084Y2612390D01*
G01X-9692132Y2606040D01*
G01X-9695180Y2596896D01*
G01X-9695180Y2581402D01*
G01X-9692132Y2572004D01*
G01X-9689084Y2565908D01*
G01X-9682734Y2559558D01*
G01X-9676638Y2556510D01*
G01X-9664192Y2556510D01*
G01X-9658096Y2559558D01*
G01X-9651746Y2565908D01*
G01X-9648698Y2572004D01*
G01X-9581388Y2612390D02*
G01X-9584436Y2618486D01*
G01X-9593834Y2621534D01*
G01X-9599930Y2621534D01*
G01X-9609328Y2618486D01*
G01X-9615424Y2609088D01*
G01X-9618472Y2593848D01*
G01X-9618472Y2578354D01*
G01X-9615424Y2565908D01*
G01X-9609328Y2559558D01*
G01X-9599930Y2556510D01*
G01X-9596882Y2556510D01*
G01X-9587738Y2559558D01*
G01X-9581388Y2565908D01*
G01X-9578340Y2575052D01*
G01X-9578340Y2578354D01*
G01X-9581388Y2587498D01*
G01X-9587738Y2593848D01*
G01X-9596882Y2596896D01*
G01X-9599930Y2596896D01*
G01X-9609328Y2593848D01*
G01X-9615424Y2587498D01*
G01X-9618472Y2578354D01*
G01X-9635998Y2440940D02*
G01X-9639046Y2447290D01*
G01X-9645396Y2453386D01*
G01X-9651492Y2456434D01*
G01X-9663938Y2456434D01*
G01X-9670034Y2453386D01*
G01X-9676384Y2447290D01*
G01X-9679432Y2440940D01*
G01X-9682480Y2431796D01*
G01X-9682480Y2416302D01*
G01X-9679432Y2406904D01*
G01X-9676384Y2400808D01*
G01X-9670034Y2394458D01*
G01X-9663938Y2391410D01*
G01X-9651492Y2391410D01*
G01X-9645396Y2394458D01*
G01X-9639046Y2400808D01*
G01X-9635998Y2406904D01*
G01X-9562592Y2456434D02*
G01X-9593580Y2391410D01*
G01X-9605772Y2456434D02*
G01X-9562592Y2456434D01*
G01X-9648698Y2796540D02*
G01X-9651746Y2802890D01*
G01X-9658096Y2808986D01*
G01X-9664192Y2812034D01*
G01X-9676638Y2812034D01*
G01X-9682734Y2808986D01*
G01X-9689084Y2802890D01*
G01X-9692132Y2796540D01*
G01X-9695180Y2787396D01*
G01X-9695180Y2771902D01*
G01X-9692132Y2762504D01*
G01X-9689084Y2756408D01*
G01X-9682734Y2750058D01*
G01X-9676638Y2747010D01*
G01X-9664192Y2747010D01*
G01X-9658096Y2750058D01*
G01X-9651746Y2756408D01*
G01X-9648698Y2762504D01*
G01X-9603232Y2812034D02*
G01X-9612376Y2808986D01*
G01X-9615424Y2802890D01*
G01X-9615424Y2796540D01*
G01X-9612376Y2790444D01*
G01X-9606280Y2787396D01*
G01X-9593834Y2784348D01*
G01X-9584436Y2781046D01*
G01X-9578340Y2774950D01*
G01X-9575292Y2768854D01*
G01X-9575292Y2759456D01*
G01X-9578340Y2753360D01*
G01X-9581388Y2750058D01*
G01X-9590786Y2747010D01*
G01X-9603232Y2747010D01*
G01X-9612376Y2750058D01*
G01X-9615424Y2753360D01*
G01X-9618472Y2759456D01*
G01X-9618472Y2768854D01*
G01X-9615424Y2774950D01*
G01X-9609328Y2781046D01*
G01X-9599930Y2784348D01*
G01X-9587738Y2787396D01*
G01X-9581388Y2790444D01*
G01X-9578340Y2796540D01*
G01X-9578340Y2802890D01*
G01X-9581388Y2808986D01*
G01X-9590786Y2812034D01*
G01X-9603232Y2812034D01*
G01X-9648698Y2263140D02*
G01X-9651746Y2269490D01*
G01X-9658096Y2275586D01*
G01X-9664192Y2278634D01*
G01X-9676638Y2278634D01*
G01X-9682734Y2275586D01*
G01X-9689084Y2269490D01*
G01X-9692132Y2263140D01*
G01X-9695180Y2253996D01*
G01X-9695180Y2238502D01*
G01X-9692132Y2229104D01*
G01X-9689084Y2223008D01*
G01X-9682734Y2216658D01*
G01X-9676638Y2213610D01*
G01X-9664192Y2213610D01*
G01X-9658096Y2216658D01*
G01X-9651746Y2223008D01*
G01X-9648698Y2229104D01*
G01X-9578340Y2257044D02*
G01X-9581388Y2247646D01*
G01X-9587738Y2241550D01*
G01X-9596882Y2238502D01*
G01X-9599930Y2238502D01*
G01X-9609328Y2241550D01*
G01X-9615424Y2247646D01*
G01X-9618472Y2257044D01*
G01X-9618472Y2260092D01*
G01X-9615424Y2269490D01*
G01X-9609328Y2275586D01*
G01X-9599930Y2278634D01*
G01X-9596882Y2278634D01*
G01X-9587738Y2275586D01*
G01X-9581388Y2269490D01*
G01X-9578340Y2257044D01*
G01X-9578340Y2241550D01*
G01X-9581388Y2226056D01*
G01X-9587738Y2216658D01*
G01X-9596882Y2213610D01*
G01X-9603232Y2213610D01*
G01X-9612376Y2216658D01*
G01X-9615424Y2223008D01*
G01X-10595811Y2428349D02*
G01X-10592763Y2421999D01*
G01X-10586413Y2415903D01*
G01X-10580317Y2412855D01*
G01X-10567871Y2412855D01*
G01X-10561775Y2415903D01*
G01X-10555425Y2421999D01*
G01X-10552377Y2428349D01*
G01X-10549329Y2437493D01*
G01X-10549329Y2452987D01*
G01X-10552377Y2462385D01*
G01X-10555425Y2468481D01*
G01X-10561775Y2474831D01*
G01X-10567871Y2477879D01*
G01X-10580317Y2477879D01*
G01X-10586413Y2474831D01*
G01X-10592763Y2468481D01*
G01X-10595811Y2462385D01*
G01X-10626037Y2425301D02*
G01X-10632133Y2421999D01*
G01X-10641277Y2412855D01*
G01X-10641277Y2477879D01*
G01X-10690045Y2412855D02*
G01X-10680647Y2415903D01*
G01X-10674551Y2425301D01*
G01X-10671503Y2440541D01*
G01X-10671503Y2449939D01*
G01X-10674551Y2465433D01*
G01X-10680647Y2474831D01*
G01X-10690045Y2477879D01*
G01X-10696141Y2477879D01*
G01X-10705539Y2474831D01*
G01X-10711635Y2465433D01*
G01X-10714683Y2449939D01*
G01X-10714683Y2440541D01*
G01X-10711635Y2425301D01*
G01X-10705539Y2415903D01*
G01X-10696141Y2412855D01*
G01X-10690045Y2412855D01*
G01X-10938002Y2766060D02*
G01X-10934954Y2759710D01*
G01X-10928604Y2753614D01*
G01X-10922508Y2750566D01*
G01X-10910062Y2750566D01*
G01X-10903966Y2753614D01*
G01X-10897616Y2759710D01*
G01X-10894568Y2766060D01*
G01X-10891520Y2775204D01*
G01X-10891520Y2790698D01*
G01X-10894568Y2800096D01*
G01X-10897616Y2806192D01*
G01X-10903966Y2812542D01*
G01X-10910062Y2815590D01*
G01X-10922508Y2815590D01*
G01X-10928604Y2812542D01*
G01X-10934954Y2806192D01*
G01X-10938002Y2800096D01*
G01X-10968228Y2763012D02*
G01X-10974324Y2759710D01*
G01X-10983468Y2750566D01*
G01X-10983468Y2815590D01*
G01X-11013694Y2763012D02*
G01X-11019790Y2759710D01*
G01X-11028934Y2750566D01*
G01X-11028934Y2815590D01*
G01X-8118602Y2689860D02*
G01X-8115554Y2683510D01*
G01X-8109204Y2677414D01*
G01X-8103108Y2674366D01*
G01X-8090662Y2674366D01*
G01X-8084566Y2677414D01*
G01X-8078216Y2683510D01*
G01X-8075168Y2689860D01*
G01X-8072120Y2699004D01*
G01X-8072120Y2714498D01*
G01X-8075168Y2723896D01*
G01X-8078216Y2729992D01*
G01X-8084566Y2736342D01*
G01X-8090662Y2739390D01*
G01X-8103108Y2739390D01*
G01X-8109204Y2736342D01*
G01X-8115554Y2729992D01*
G01X-8118602Y2723896D01*
G01X-8148828Y2686812D02*
G01X-8154924Y2683510D01*
G01X-8164068Y2674366D01*
G01X-8164068Y2739390D01*
G01X-8197342Y2689860D02*
G01X-8197342Y2686812D01*
G01X-8200390Y2680462D01*
G01X-8203438Y2677414D01*
G01X-8209534Y2674366D01*
G01X-8221980Y2674366D01*
G01X-8228330Y2677414D01*
G01X-8231378Y2680462D01*
G01X-8234426Y2686812D01*
G01X-8234426Y2692908D01*
G01X-8231378Y2699004D01*
G01X-8225028Y2708402D01*
G01X-8194294Y2739390D01*
G01X-8237474Y2739390D01*
G01X-5121402Y2893060D02*
G01X-5118354Y2886710D01*
G01X-5112004Y2880614D01*
G01X-5105908Y2877566D01*
G01X-5093462Y2877566D01*
G01X-5087366Y2880614D01*
G01X-5081016Y2886710D01*
G01X-5077968Y2893060D01*
G01X-5074920Y2902204D01*
G01X-5074920Y2917698D01*
G01X-5077968Y2927096D01*
G01X-5081016Y2933192D01*
G01X-5087366Y2939542D01*
G01X-5093462Y2942590D01*
G01X-5105908Y2942590D01*
G01X-5112004Y2939542D01*
G01X-5118354Y2933192D01*
G01X-5121402Y2927096D01*
G01X-5151628Y2890012D02*
G01X-5157724Y2886710D01*
G01X-5166868Y2877566D01*
G01X-5166868Y2942590D01*
G01X-5203190Y2877566D02*
G01X-5237226Y2877566D01*
G01X-5218684Y2902204D01*
G01X-5227828Y2902204D01*
G01X-5234178Y2905252D01*
G01X-5237226Y2908554D01*
G01X-5240274Y2917698D01*
G01X-5240274Y2924048D01*
G01X-5237226Y2933192D01*
G01X-5231130Y2939542D01*
G01X-5221732Y2942590D01*
G01X-5212334Y2942590D01*
G01X-5203190Y2939542D01*
G01X-5200142Y2936240D01*
G01X-5197094Y2930144D01*
G01X-12098020Y2737866D02*
G01X-12098020Y2802890D01*
G01X-12098020Y2737866D02*
G01X-12125960Y2737866D01*
G01X-12135104Y2740914D01*
G01X-12138152Y2743962D01*
G01X-12141454Y2750312D01*
G01X-12141454Y2756408D01*
G01X-12138152Y2762504D01*
G01X-12135104Y2765552D01*
G01X-12125960Y2768854D01*
G01X-12098020Y2768854D01*
G01X-12119610Y2768854D02*
G01X-12141454Y2802890D01*
G01X-12171680Y2750312D02*
G01X-12177776Y2747010D01*
G01X-12186920Y2737866D01*
G01X-12186920Y2802890D01*
G01X-12085320Y3042666D02*
G01X-12085320Y3107690D01*
G01X-12085320Y3042666D02*
G01X-12113260Y3042666D01*
G01X-12122404Y3045714D01*
G01X-12125452Y3048762D01*
G01X-12128754Y3055112D01*
G01X-12128754Y3061208D01*
G01X-12125452Y3067304D01*
G01X-12122404Y3070352D01*
G01X-12113260Y3073654D01*
G01X-12085320Y3073654D01*
G01X-12106910Y3073654D02*
G01X-12128754Y3107690D01*
G01X-12162028Y3058160D02*
G01X-12162028Y3055112D01*
G01X-12165076Y3048762D01*
G01X-12168124Y3045714D01*
G01X-12174220Y3042666D01*
G01X-12186666Y3042666D01*
G01X-12193016Y3045714D01*
G01X-12196064Y3048762D01*
G01X-12199112Y3055112D01*
G01X-12199112Y3061208D01*
G01X-12196064Y3067304D01*
G01X-12189714Y3076702D01*
G01X-12158980Y3107690D01*
G01X-12202160Y3107690D01*
G01X-10078466Y3345180D02*
G01X-10124948Y3345180D01*
G01X-10134092Y3342132D01*
G01X-10140442Y3335782D01*
G01X-10143490Y3326638D01*
G01X-10143490Y3320288D01*
G01X-10140442Y3311144D01*
G01X-10134092Y3305048D01*
G01X-10124948Y3301746D01*
G01X-10078466Y3301746D01*
G01X-10090912Y3271520D02*
G01X-10087610Y3265424D01*
G01X-10078466Y3256280D01*
G01X-10143490Y3256280D01*
G01X-12593066Y3649980D02*
G01X-12639548Y3649980D01*
G01X-12648692Y3646932D01*
G01X-12655042Y3640582D01*
G01X-12658090Y3631438D01*
G01X-12658090Y3625088D01*
G01X-12655042Y3615944D01*
G01X-12648692Y3609848D01*
G01X-12639548Y3606546D01*
G01X-12593066Y3606546D01*
G01X-12602210Y3533140D02*
G01X-12596114Y3539236D01*
G01X-12593066Y3548634D01*
G01X-12593066Y3561080D01*
G01X-12596114Y3570224D01*
G01X-12602210Y3576320D01*
G01X-12608560Y3576320D01*
G01X-12614656Y3573272D01*
G01X-12617704Y3570224D01*
G01X-12620752Y3564128D01*
G01X-12627102Y3545586D01*
G01X-12630150Y3539236D01*
G01X-12633198Y3536188D01*
G01X-12639548Y3533140D01*
G01X-12648692Y3533140D01*
G01X-12655042Y3539236D01*
G01X-12658090Y3548634D01*
G01X-12658090Y3561080D01*
G01X-12655042Y3570224D01*
G01X-12648692Y3576320D01*
G01X-12593066Y3502914D02*
G01X-12658090Y3502914D01*
G01X-12593066Y3502914D02*
G01X-12593066Y3475228D01*
G01X-12596114Y3465830D01*
G01X-12599162Y3462782D01*
G01X-12605512Y3459734D01*
G01X-12611608Y3459734D01*
G01X-12617704Y3462782D01*
G01X-12620752Y3465830D01*
G01X-12624054Y3475228D01*
G01X-12624054Y3502914D02*
G01X-12624054Y3475228D01*
G01X-12627102Y3465830D01*
G01X-12630150Y3462782D01*
G01X-12636246Y3459734D01*
G01X-12645644Y3459734D01*
G01X-12651740Y3462782D01*
G01X-12655042Y3465830D01*
G01X-12658090Y3475228D01*
G01X-12658090Y3502914D01*
G01X-12605512Y3429508D02*
G01X-12602210Y3423412D01*
G01X-12593066Y3414268D01*
G01X-12658090Y3414268D01*
G01X-6583934Y2433320D02*
G01X-6537452Y2433320D01*
G01X-6528308Y2436368D01*
G01X-6521958Y2442718D01*
G01X-6518910Y2451862D01*
G01X-6518910Y2458212D01*
G01X-6521958Y2467356D01*
G01X-6528308Y2473452D01*
G01X-6537452Y2476754D01*
G01X-6583934Y2476754D01*
G01X-6574790Y2550160D02*
G01X-6580886Y2544064D01*
G01X-6583934Y2534666D01*
G01X-6583934Y2522220D01*
G01X-6580886Y2513076D01*
G01X-6574790Y2506980D01*
G01X-6568440Y2506980D01*
G01X-6562344Y2510028D01*
G01X-6559296Y2513076D01*
G01X-6556248Y2519172D01*
G01X-6549898Y2537714D01*
G01X-6546850Y2544064D01*
G01X-6543802Y2547112D01*
G01X-6537452Y2550160D01*
G01X-6528308Y2550160D01*
G01X-6521958Y2544064D01*
G01X-6518910Y2534666D01*
G01X-6518910Y2522220D01*
G01X-6521958Y2513076D01*
G01X-6528308Y2506980D01*
G01X-6583934Y2580386D02*
G01X-6518910Y2580386D01*
G01X-6583934Y2580386D02*
G01X-6583934Y2608072D01*
G01X-6580886Y2617470D01*
G01X-6577838Y2620518D01*
G01X-6571488Y2623566D01*
G01X-6565392Y2623566D01*
G01X-6559296Y2620518D01*
G01X-6556248Y2617470D01*
G01X-6552946Y2608072D01*
G01X-6552946Y2580386D02*
G01X-6552946Y2608072D01*
G01X-6549898Y2617470D01*
G01X-6546850Y2620518D01*
G01X-6540754Y2623566D01*
G01X-6531356Y2623566D01*
G01X-6525260Y2620518D01*
G01X-6521958Y2617470D01*
G01X-6518910Y2608072D01*
G01X-6518910Y2580386D01*
G01X-6583934Y2684526D02*
G01X-6540754Y2653792D01*
G01X-6540754Y2700020D01*
G01X-6583934Y2684526D02*
G01X-6518910Y2684526D01*
G01X-3517138Y2541524D02*
G01X-3470656Y2541524D01*
G01X-3461512Y2544572D01*
G01X-3455162Y2550922D01*
G01X-3452114Y2560066D01*
G01X-3452114Y2566416D01*
G01X-3455162Y2575560D01*
G01X-3461512Y2581656D01*
G01X-3470656Y2584958D01*
G01X-3517138Y2584958D01*
G01X-3507994Y2658364D02*
G01X-3514090Y2652268D01*
G01X-3517138Y2642870D01*
G01X-3517138Y2630424D01*
G01X-3514090Y2621280D01*
G01X-3507994Y2615184D01*
G01X-3501644Y2615184D01*
G01X-3495548Y2618232D01*
G01X-3492500Y2621280D01*
G01X-3489452Y2627376D01*
G01X-3483102Y2645918D01*
G01X-3480054Y2652268D01*
G01X-3477006Y2655316D01*
G01X-3470656Y2658364D01*
G01X-3461512Y2658364D01*
G01X-3455162Y2652268D01*
G01X-3452114Y2642870D01*
G01X-3452114Y2630424D01*
G01X-3455162Y2621280D01*
G01X-3461512Y2615184D01*
G01X-3517138Y2688590D02*
G01X-3452114Y2688590D01*
G01X-3517138Y2688590D02*
G01X-3517138Y2716276D01*
G01X-3514090Y2725674D01*
G01X-3511042Y2728722D01*
G01X-3504692Y2731770D01*
G01X-3498596Y2731770D01*
G01X-3492500Y2728722D01*
G01X-3489452Y2725674D01*
G01X-3486150Y2716276D01*
G01X-3486150Y2688590D02*
G01X-3486150Y2716276D01*
G01X-3483102Y2725674D01*
G01X-3480054Y2728722D01*
G01X-3473958Y2731770D01*
G01X-3464560Y2731770D01*
G01X-3458464Y2728722D01*
G01X-3455162Y2725674D01*
G01X-3452114Y2716276D01*
G01X-3452114Y2688590D01*
G01X-3517138Y2799080D02*
G01X-3517138Y2768092D01*
G01X-3489452Y2765044D01*
G01X-3492500Y2768092D01*
G01X-3495548Y2777236D01*
G01X-3495548Y2786634D01*
G01X-3492500Y2796032D01*
G01X-3486150Y2802128D01*
G01X-3477006Y2805176D01*
G01X-3470656Y2805176D01*
G01X-3461512Y2802128D01*
G01X-3455162Y2796032D01*
G01X-3452114Y2786634D01*
G01X-3452114Y2777236D01*
G01X-3455162Y2768092D01*
G01X-3458464Y2765044D01*
G01X-3464560Y2761996D01*
G01X-5085334Y2357120D02*
G01X-5038852Y2357120D01*
G01X-5029708Y2360168D01*
G01X-5023358Y2366518D01*
G01X-5020310Y2375662D01*
G01X-5020310Y2382012D01*
G01X-5023358Y2391156D01*
G01X-5029708Y2397252D01*
G01X-5038852Y2400554D01*
G01X-5085334Y2400554D01*
G01X-5076190Y2473960D02*
G01X-5082286Y2467864D01*
G01X-5085334Y2458466D01*
G01X-5085334Y2446020D01*
G01X-5082286Y2436876D01*
G01X-5076190Y2430780D01*
G01X-5069840Y2430780D01*
G01X-5063744Y2433828D01*
G01X-5060696Y2436876D01*
G01X-5057648Y2442972D01*
G01X-5051298Y2461514D01*
G01X-5048250Y2467864D01*
G01X-5045202Y2470912D01*
G01X-5038852Y2473960D01*
G01X-5029708Y2473960D01*
G01X-5023358Y2467864D01*
G01X-5020310Y2458466D01*
G01X-5020310Y2446020D01*
G01X-5023358Y2436876D01*
G01X-5029708Y2430780D01*
G01X-5085334Y2504186D02*
G01X-5020310Y2504186D01*
G01X-5085334Y2504186D02*
G01X-5085334Y2531872D01*
G01X-5082286Y2541270D01*
G01X-5079238Y2544318D01*
G01X-5072888Y2547366D01*
G01X-5066792Y2547366D01*
G01X-5060696Y2544318D01*
G01X-5057648Y2541270D01*
G01X-5054346Y2531872D01*
G01X-5054346Y2504186D02*
G01X-5054346Y2531872D01*
G01X-5051298Y2541270D01*
G01X-5048250Y2544318D01*
G01X-5042154Y2547366D01*
G01X-5032756Y2547366D01*
G01X-5026660Y2544318D01*
G01X-5023358Y2541270D01*
G01X-5020310Y2531872D01*
G01X-5020310Y2504186D01*
G01X-5076190Y2614676D02*
G01X-5082286Y2611628D01*
G01X-5085334Y2602230D01*
G01X-5085334Y2596134D01*
G01X-5082286Y2586736D01*
G01X-5072888Y2580640D01*
G01X-5057648Y2577592D01*
G01X-5042154Y2577592D01*
G01X-5029708Y2580640D01*
G01X-5023358Y2586736D01*
G01X-5020310Y2596134D01*
G01X-5020310Y2599182D01*
G01X-5023358Y2608326D01*
G01X-5029708Y2614676D01*
G01X-5038852Y2617724D01*
G01X-5042154Y2617724D01*
G01X-5051298Y2614676D01*
G01X-5057648Y2608326D01*
G01X-5060696Y2599182D01*
G01X-5060696Y2596134D01*
G01X-5057648Y2586736D01*
G01X-5051298Y2580640D01*
G01X-5042154Y2577592D01*
G01X-8336280Y2634234D02*
G01X-8336280Y2587752D01*
G01X-8333232Y2578608D01*
G01X-8326882Y2572258D01*
G01X-8317738Y2569210D01*
G01X-8311388Y2569210D01*
G01X-8302244Y2572258D01*
G01X-8296148Y2578608D01*
G01X-8292846Y2587752D01*
G01X-8292846Y2634234D01*
G01X-8219440Y2625090D02*
G01X-8225536Y2631186D01*
G01X-8234934Y2634234D01*
G01X-8247380Y2634234D01*
G01X-8256524Y2631186D01*
G01X-8262620Y2625090D01*
G01X-8262620Y2618740D01*
G01X-8259572Y2612644D01*
G01X-8256524Y2609596D01*
G01X-8250428Y2606548D01*
G01X-8231886Y2600198D01*
G01X-8225536Y2597150D01*
G01X-8222488Y2594102D01*
G01X-8219440Y2587752D01*
G01X-8219440Y2578608D01*
G01X-8225536Y2572258D01*
G01X-8234934Y2569210D01*
G01X-8247380Y2569210D01*
G01X-8256524Y2572258D01*
G01X-8262620Y2578608D01*
G01X-8189214Y2634234D02*
G01X-8189214Y2569210D01*
G01X-8189214Y2634234D02*
G01X-8161528Y2634234D01*
G01X-8152130Y2631186D01*
G01X-8149082Y2628138D01*
G01X-8146034Y2621788D01*
G01X-8146034Y2615692D01*
G01X-8149082Y2609596D01*
G01X-8152130Y2606548D01*
G01X-8161528Y2603246D01*
G01X-8189214Y2603246D02*
G01X-8161528Y2603246D01*
G01X-8152130Y2600198D01*
G01X-8149082Y2597150D01*
G01X-8146034Y2591054D01*
G01X-8146034Y2581656D01*
G01X-8149082Y2575560D01*
G01X-8152130Y2572258D01*
G01X-8161528Y2569210D01*
G01X-8189214Y2569210D01*
G01X-8072628Y2634234D02*
G01X-8103616Y2569210D01*
G01X-8115808Y2634234D02*
G01X-8072628Y2634234D01*
G01X-11625580Y2291334D02*
G01X-11625580Y2226310D01*
G01X-11625580Y2291334D02*
G01X-11603990Y2291334D01*
G01X-11594592Y2288286D01*
G01X-11588496Y2282190D01*
G01X-11585448Y2275840D01*
G01X-11582146Y2266696D01*
G01X-11582146Y2251202D01*
G01X-11585448Y2241804D01*
G01X-11588496Y2235708D01*
G01X-11594592Y2229358D01*
G01X-11603990Y2226310D01*
G01X-11625580Y2226310D01*
G01X-11551920Y2278888D02*
G01X-11545824Y2282190D01*
G01X-11536680Y2291334D01*
G01X-11536680Y2226310D01*
G01X-12809891Y2443734D02*
G01X-12809891Y2397252D01*
G01X-12806843Y2388108D01*
G01X-12800493Y2381758D01*
G01X-12791349Y2378710D01*
G01X-12784999Y2378710D01*
G01X-12775855Y2381758D01*
G01X-12769759Y2388108D01*
G01X-12766457Y2397252D01*
G01X-12766457Y2443734D01*
G01X-12733183Y2428240D02*
G01X-12733183Y2431288D01*
G01X-12730135Y2437638D01*
G01X-12727087Y2440686D01*
G01X-12720991Y2443734D01*
G01X-12708545Y2443734D01*
G01X-12702195Y2440686D01*
G01X-12699147Y2437638D01*
G01X-12696099Y2431288D01*
G01X-12696099Y2425192D01*
G01X-12699147Y2419096D01*
G01X-12705497Y2409698D01*
G01X-12736231Y2378710D01*
G01X-12693051Y2378710D01*
G04 Text End*

G04 PolygonModel Start*
G54D11*
G01X-12397819Y2545243D02*
G01X-12477816Y2545243D01*
G01X-12341774Y2545197D02*
G01X-12261776Y2545197D01*
G01X-12397819Y2687211D02*
G01X-12477816Y2687211D01*
G01X-12341774Y2687163D02*
G01X-12261776Y2687163D01*
G01X-12508791Y2576225D02*
G01X-12508791Y2656230D01*
G01X-12230798Y2656177D02*
G01X-12230798Y2576175D01*
G01X-12261781Y2687163D02*
G02X-12230798Y2656177I0J-30983D01*
G01X-12230798Y2576180D02*
G02X-12261781Y2545197I-30983J0D01*
G01X-12477811Y2545243D02*
G02X-12508791Y2576225I3J30983D01*
G01X-12508791Y2656223D02*
G02X-12477811Y2687211I30983J5D01*
G01X-3337481Y3017357D02*
G01X-3257484Y3017357D01*
G01X-3393526Y3017403D02*
G01X-3473524Y3017403D01*
G01X-3337481Y2875389D02*
G01X-3257484Y2875389D01*
G01X-3393526Y2875437D02*
G01X-3473524Y2875437D01*
G01X-3226509Y2986375D02*
G01X-3226509Y2906370D01*
G01X-3504501Y2906423D02*
G01X-3504501Y2986425D01*
G01X-3473519Y2875437D02*
G02X-3504501Y2906423I0J30983D01*
G01X-3504501Y2986420D02*
G02X-3473519Y3017403I30983J0D01*
G01X-3257489Y3017357D02*
G02X-3226509Y2986375I-3J-30983D01*
G01X-3226509Y2906377D02*
G02X-3257489Y2875389I-30983J-5D01*
G01X-6398181Y3017357D02*
G01X-6318184Y3017357D01*
G01X-6454226Y3017403D02*
G01X-6534224Y3017403D01*
G01X-6398181Y2875389D02*
G01X-6318184Y2875389D01*
G01X-6454226Y2875437D02*
G01X-6534224Y2875437D01*
G01X-6287209Y2986375D02*
G01X-6287209Y2906370D01*
G01X-6565201Y2906423D02*
G01X-6565201Y2986425D01*
G01X-6534219Y2875437D02*
G02X-6565201Y2906423I0J30983D01*
G01X-6565201Y2986420D02*
G02X-6534219Y3017403I30983J0D01*
G01X-6318189Y3017357D02*
G02X-6287209Y2986375I-3J-30983D01*
G01X-6287209Y2906377D02*
G02X-6318189Y2875389I-30983J-5D01*
G01X-9895919Y2519843D02*
G01X-9975916Y2519843D01*
G01X-9839874Y2519797D02*
G01X-9759876Y2519797D01*
G01X-9895919Y2661811D02*
G01X-9975916Y2661811D01*
G01X-9839874Y2661763D02*
G01X-9759876Y2661763D01*
G01X-10006891Y2550825D02*
G01X-10006891Y2630830D01*
G01X-9728898Y2630777D02*
G01X-9728898Y2550775D01*
G01X-9759881Y2661763D02*
G02X-9728898Y2630777I0J-30983D01*
G01X-9728898Y2550780D02*
G02X-9759881Y2519797I-30983J0D01*
G01X-9975911Y2519843D02*
G02X-10006891Y2550825I3J30983D01*
G01X-10006891Y2630823D02*
G02X-9975911Y2661811I30983J5D01*
G01X-9895919Y2342043D02*
G01X-9975916Y2342043D01*
G01X-9839874Y2341997D02*
G01X-9759876Y2341997D01*
G01X-9895919Y2484011D02*
G01X-9975916Y2484011D01*
G01X-9839874Y2483963D02*
G01X-9759876Y2483963D01*
G01X-10006891Y2373025D02*
G01X-10006891Y2453030D01*
G01X-9728898Y2452977D02*
G01X-9728898Y2372975D01*
G01X-9759881Y2483963D02*
G02X-9728898Y2452977I0J-30983D01*
G01X-9728898Y2372980D02*
G02X-9759881Y2341997I-30983J0D01*
G01X-9975911Y2342043D02*
G02X-10006891Y2373025I3J30983D01*
G01X-10006891Y2453023D02*
G02X-9975911Y2484011I30983J5D01*
G01X-9895919Y2684943D02*
G01X-9975916Y2684943D01*
G01X-9839874Y2684897D02*
G01X-9759876Y2684897D01*
G01X-9895919Y2826911D02*
G01X-9975916Y2826911D01*
G01X-9839874Y2826863D02*
G01X-9759876Y2826863D01*
G01X-10006891Y2715925D02*
G01X-10006891Y2795930D01*
G01X-9728898Y2795877D02*
G01X-9728898Y2715875D01*
G01X-9759881Y2826863D02*
G02X-9728898Y2795877I0J-30983D01*
G01X-9728898Y2715880D02*
G02X-9759881Y2684897I-30983J0D01*
G01X-9975911Y2684943D02*
G02X-10006891Y2715925I3J30983D01*
G01X-10006891Y2795923D02*
G02X-9975911Y2826911I30983J5D01*
G01X-9895919Y2164243D02*
G01X-9975916Y2164243D01*
G01X-9839874Y2164197D02*
G01X-9759876Y2164197D01*
G01X-9895919Y2306211D02*
G01X-9975916Y2306211D01*
G01X-9839874Y2306163D02*
G01X-9759876Y2306163D01*
G01X-10006891Y2195225D02*
G01X-10006891Y2275230D01*
G01X-9728898Y2275177D02*
G01X-9728898Y2195175D01*
G01X-9759881Y2306163D02*
G02X-9728898Y2275177I0J-30983D01*
G01X-9728898Y2195180D02*
G02X-9759881Y2164197I-30983J0D01*
G01X-9975911Y2164243D02*
G02X-10006891Y2195225I3J30983D01*
G01X-10006891Y2275223D02*
G02X-9975911Y2306211I30983J5D01*
G01X-10665381Y2674457D02*
G01X-10585384Y2674457D01*
G01X-10721426Y2674503D02*
G01X-10801424Y2674503D01*
G01X-10665381Y2532489D02*
G01X-10585384Y2532489D01*
G01X-10721426Y2532537D02*
G01X-10801424Y2532537D01*
G01X-10554409Y2643475D02*
G01X-10554409Y2563470D01*
G01X-10832401Y2563523D02*
G01X-10832401Y2643525D01*
G01X-10801419Y2532537D02*
G02X-10832401Y2563523I0J30983D01*
G01X-10832401Y2643520D02*
G02X-10801419Y2674503I30983J0D01*
G01X-10585389Y2674457D02*
G02X-10554409Y2643475I-3J-30983D01*
G01X-10554409Y2563477D02*
G02X-10585389Y2532489I-30983J-5D01*
G01X-10665381Y2852257D02*
G01X-10585384Y2852257D01*
G01X-10721426Y2852303D02*
G01X-10801424Y2852303D01*
G01X-10665381Y2710289D02*
G01X-10585384Y2710289D01*
G01X-10721426Y2710337D02*
G01X-10801424Y2710337D01*
G01X-10554409Y2821275D02*
G01X-10554409Y2741270D01*
G01X-10832401Y2741323D02*
G01X-10832401Y2821325D01*
G01X-10801419Y2710337D02*
G02X-10832401Y2741323I0J30983D01*
G01X-10832401Y2821320D02*
G02X-10801419Y2852303I30983J0D01*
G01X-10585389Y2852257D02*
G02X-10554409Y2821275I-3J-30983D01*
G01X-10554409Y2741277D02*
G02X-10585389Y2710289I-30983J-5D01*
G01X-7960281Y3017357D02*
G01X-7880284Y3017357D01*
G01X-8016326Y3017403D02*
G01X-8096324Y3017403D01*
G01X-7960281Y2875389D02*
G01X-7880284Y2875389D01*
G01X-8016326Y2875437D02*
G01X-8096324Y2875437D01*
G01X-7849309Y2986375D02*
G01X-7849309Y2906370D01*
G01X-8127301Y2906423D02*
G01X-8127301Y2986425D01*
G01X-8096319Y2875437D02*
G02X-8127301Y2906423I0J30983D01*
G01X-8127301Y2986420D02*
G02X-8096319Y3017403I30983J0D01*
G01X-7880289Y3017357D02*
G02X-7849309Y2986375I-3J-30983D01*
G01X-7849309Y2906377D02*
G02X-7880289Y2875389I-30983J-5D01*
G01X-4836081Y3004657D02*
G01X-4756084Y3004657D01*
G01X-4892126Y3004703D02*
G01X-4972124Y3004703D01*
G01X-4836081Y2862689D02*
G01X-4756084Y2862689D01*
G01X-4892126Y2862737D02*
G01X-4972124Y2862737D01*
G01X-4725109Y2973675D02*
G01X-4725109Y2893670D01*
G01X-5003101Y2893723D02*
G01X-5003101Y2973725D01*
G01X-4972119Y2862737D02*
G02X-5003101Y2893723I0J30983D01*
G01X-5003101Y2973720D02*
G02X-4972119Y3004703I30983J0D01*
G01X-4756089Y3004657D02*
G02X-4725109Y2973675I-3J-30983D01*
G01X-4725109Y2893677D02*
G02X-4756089Y2862689I-30983J-5D01*
G54D10*
G01X-12399721Y2834660D02*
G01X-12495609Y2834660D01*
G01X-12495609Y2834660D02*
G01X-12495609Y2702540D01*
G01X-12495609Y2702540D02*
G01X-12399721Y2702540D01*
G01X-12314479Y2834660D02*
G01X-12218591Y2834660D01*
G01X-12218591Y2834660D02*
G01X-12218591Y2702540D01*
G01X-12218591Y2702540D02*
G01X-12314479Y2702540D01*
G01X-12425121Y3139460D02*
G01X-12521009Y3139460D01*
G01X-12521009Y3139460D02*
G01X-12521009Y3007340D01*
G01X-12521009Y3007340D02*
G01X-12425121Y3007340D01*
G01X-12339879Y3139460D02*
G01X-12243991Y3139460D01*
G01X-12243991Y3139460D02*
G01X-12243991Y3007340D01*
G01X-12243991Y3007340D02*
G01X-12339879Y3007340D01*
G54D11*
G01X-10417000Y3196801D02*
G01X-10337000Y3196801D01*
G01X-10157000Y3196801D02*
G01X-10237000Y3196801D01*
G01X-10417000Y2746799D02*
G01X-10417000Y2750688D01*
G01X-10417000Y3196801D02*
G01X-10417000Y3192915D01*
G01X-10157000Y2750688D02*
G01X-10157000Y2746799D01*
G01X-10157000Y3196801D02*
G01X-10157000Y3192912D01*
G01X-10157000Y2746799D02*
G01X-10417000Y2746799D01*
G01X-10337000Y3196801D02*
G03X-10236962Y3196844I50019J377D01*
G01X-12992095Y2425692D02*
G01X-12792700Y2425692D01*
G01X-13334997Y2425692D02*
G01X-13187700Y2425692D01*
G01X-12991782Y3332891D02*
G01X-12793010Y3332891D01*
G01X-13349897Y3332891D02*
G01X-13188013Y3332891D01*
G01X-13349897Y2432893D02*
G01X-13349897Y3332891D01*
G01X-5143500Y2213676D02*
G01X-5143500Y2781300D01*
G01X-5143500Y2781300D02*
G01X-5374787Y2781300D01*
G01X-6464300Y1860332D02*
G01X-6464300Y1778000D01*
G01X-6464300Y1778000D02*
G01X-5143500Y1778000D01*
G01X-5143500Y1778000D02*
G01X-5143500Y1860332D01*
G01X-6233013Y2781297D02*
G01X-6464300Y2781297D01*
G01X-6464300Y2781297D02*
G01X-6464300Y2213676D01*
G01X-5624787Y2781297D02*
G01X-5533014Y2781297D01*
G01X-5824786Y2781297D02*
G01X-5783014Y2781297D01*
G01X-6074786Y2781297D02*
G01X-5983013Y2781297D01*
G01X-5546093Y2189457D02*
G01X-5343091Y2189457D01*
G01X-5560090Y2310473D02*
G01X-5334076Y2310473D01*
G01X-6234199Y2199366D02*
G01X-6031205Y2199366D01*
G01X-6248197Y2320364D02*
G01X-6022188Y2320364D01*
G01X-5953379Y2546891D02*
G01X-5988936Y1972838D01*
G01X-5988936Y1972838D02*
G01X-6278502Y1972838D01*
G01X-6278502Y1972838D02*
G01X-6326759Y2546891D01*
G01X-6326759Y2546891D02*
G01X-6275959Y2546891D01*
G01X-6275959Y2546891D02*
G01X-6225438Y2033374D01*
G01X-6225438Y2033374D02*
G01X-6050410Y2033374D01*
G01X-6050410Y2033374D02*
G01X-5991479Y2546891D01*
G01X-5991479Y2546891D02*
G01X-5953379Y2546891D01*
G01X-5270500Y2539997D02*
G01X-5305301Y1966338D01*
G01X-5305301Y1966338D02*
G01X-5593824Y1966834D01*
G01X-5593824Y1966834D02*
G01X-5643321Y2540338D01*
G01X-5643321Y2540338D02*
G01X-5592448Y2539947D01*
G01X-5592448Y2539947D02*
G01X-5541416Y2085922D01*
G01X-5541416Y2085922D02*
G01X-5533901Y2018099D01*
G01X-5533901Y2018099D02*
G01X-5358917Y2019178D01*
G01X-5358917Y2019178D02*
G01X-5311521Y2496998D01*
G01X-5311521Y2496998D02*
G01X-5308526Y2539997D01*
G01X-5308526Y2539997D02*
G01X-5270500Y2539997D01*
G01X-2070100Y2213676D02*
G01X-2070100Y2781300D01*
G01X-2070100Y2781300D02*
G01X-2301387Y2781300D01*
G01X-3390900Y1860332D02*
G01X-3390900Y1778000D01*
G01X-3390900Y1778000D02*
G01X-2070100Y1778000D01*
G01X-2070100Y1778000D02*
G01X-2070100Y1860332D01*
G01X-3159613Y2781297D02*
G01X-3390900Y2781297D01*
G01X-3390900Y2781297D02*
G01X-3390900Y2213676D01*
G01X-2551387Y2781297D02*
G01X-2459614Y2781297D01*
G01X-2751386Y2781297D02*
G01X-2709614Y2781297D01*
G01X-3001386Y2781297D02*
G01X-2909613Y2781297D01*
G01X-2472693Y2189457D02*
G01X-2269691Y2189457D01*
G01X-2486690Y2310473D02*
G01X-2260676Y2310473D01*
G01X-3160799Y2199366D02*
G01X-2957805Y2199366D01*
G01X-3174797Y2320364D02*
G01X-2948788Y2320364D01*
G01X-2879979Y2546891D02*
G01X-2915536Y1972838D01*
G01X-2915536Y1972838D02*
G01X-3205102Y1972838D01*
G01X-3205102Y1972838D02*
G01X-3253359Y2546891D01*
G01X-3253359Y2546891D02*
G01X-3202559Y2546891D01*
G01X-3202559Y2546891D02*
G01X-3152038Y2033374D01*
G01X-3152038Y2033374D02*
G01X-2977010Y2033374D01*
G01X-2977010Y2033374D02*
G01X-2918079Y2546891D01*
G01X-2918079Y2546891D02*
G01X-2879979Y2546891D01*
G01X-2197100Y2539997D02*
G01X-2231901Y1966338D01*
G01X-2231901Y1966338D02*
G01X-2520424Y1966834D01*
G01X-2520424Y1966834D02*
G01X-2569921Y2540338D01*
G01X-2569921Y2540338D02*
G01X-2519048Y2539947D01*
G01X-2519048Y2539947D02*
G01X-2468016Y2085922D01*
G01X-2468016Y2085922D02*
G01X-2460501Y2018099D01*
G01X-2460501Y2018099D02*
G01X-2285517Y2019178D01*
G01X-2285517Y2019178D02*
G01X-2238121Y2496998D01*
G01X-2238121Y2496998D02*
G01X-2235126Y2539997D01*
G01X-2235126Y2539997D02*
G01X-2197100Y2539997D01*
G01X-3606800Y2213676D02*
G01X-3606800Y2781300D01*
G01X-3606800Y2781300D02*
G01X-3838087Y2781300D01*
G01X-4927600Y1860332D02*
G01X-4927600Y1778000D01*
G01X-4927600Y1778000D02*
G01X-3606800Y1778000D01*
G01X-3606800Y1778000D02*
G01X-3606800Y1860332D01*
G01X-4696313Y2781297D02*
G01X-4927600Y2781297D01*
G01X-4927600Y2781297D02*
G01X-4927600Y2213676D01*
G01X-4088087Y2781297D02*
G01X-3996314Y2781297D01*
G01X-4288086Y2781297D02*
G01X-4246314Y2781297D01*
G01X-4538086Y2781297D02*
G01X-4446313Y2781297D01*
G01X-4009393Y2189457D02*
G01X-3806391Y2189457D01*
G01X-4023390Y2310473D02*
G01X-3797376Y2310473D01*
G01X-4697499Y2199366D02*
G01X-4494505Y2199366D01*
G01X-4711497Y2320364D02*
G01X-4485488Y2320364D01*
G01X-4416679Y2546891D02*
G01X-4452236Y1972838D01*
G01X-4452236Y1972838D02*
G01X-4741802Y1972838D01*
G01X-4741802Y1972838D02*
G01X-4790059Y2546891D01*
G01X-4790059Y2546891D02*
G01X-4739259Y2546891D01*
G01X-4739259Y2546891D02*
G01X-4688738Y2033374D01*
G01X-4688738Y2033374D02*
G01X-4513710Y2033374D01*
G01X-4513710Y2033374D02*
G01X-4454779Y2546891D01*
G01X-4454779Y2546891D02*
G01X-4416679Y2546891D01*
G01X-3733800Y2539997D02*
G01X-3768601Y1966338D01*
G01X-3768601Y1966338D02*
G01X-4057124Y1966834D01*
G01X-4057124Y1966834D02*
G01X-4106621Y2540338D01*
G01X-4106621Y2540338D02*
G01X-4055748Y2539947D01*
G01X-4055748Y2539947D02*
G01X-4004716Y2085922D01*
G01X-4004716Y2085922D02*
G01X-3997201Y2018099D01*
G01X-3997201Y2018099D02*
G01X-3822217Y2019178D01*
G01X-3822217Y2019178D02*
G01X-3774821Y2496998D01*
G01X-3774821Y2496998D02*
G01X-3771826Y2539997D01*
G01X-3771826Y2539997D02*
G01X-3733800Y2539997D01*
G01X-6680200Y2213676D02*
G01X-6680200Y2781300D01*
G01X-6680200Y2781300D02*
G01X-6911487Y2781300D01*
G01X-8001000Y1860332D02*
G01X-8001000Y1778000D01*
G01X-8001000Y1778000D02*
G01X-6680200Y1778000D01*
G01X-6680200Y1778000D02*
G01X-6680200Y1860332D01*
G01X-7769713Y2781297D02*
G01X-8001000Y2781297D01*
G01X-8001000Y2781297D02*
G01X-8001000Y2213676D01*
G01X-7161487Y2781297D02*
G01X-7069714Y2781297D01*
G01X-7361486Y2781297D02*
G01X-7319714Y2781297D01*
G01X-7611486Y2781297D02*
G01X-7519713Y2781297D01*
G01X-7082793Y2189457D02*
G01X-6879791Y2189457D01*
G01X-7096790Y2310473D02*
G01X-6870776Y2310473D01*
G01X-7770899Y2199366D02*
G01X-7567905Y2199366D01*
G01X-7784897Y2320364D02*
G01X-7558888Y2320364D01*
G01X-7490079Y2546891D02*
G01X-7525636Y1972838D01*
G01X-7525636Y1972838D02*
G01X-7815202Y1972838D01*
G01X-7815202Y1972838D02*
G01X-7863459Y2546891D01*
G01X-7863459Y2546891D02*
G01X-7812659Y2546891D01*
G01X-7812659Y2546891D02*
G01X-7762138Y2033374D01*
G01X-7762138Y2033374D02*
G01X-7587110Y2033374D01*
G01X-7587110Y2033374D02*
G01X-7528179Y2546891D01*
G01X-7528179Y2546891D02*
G01X-7490079Y2546891D01*
G01X-6807200Y2539997D02*
G01X-6842001Y1966338D01*
G01X-6842001Y1966338D02*
G01X-7130524Y1966834D01*
G01X-7130524Y1966834D02*
G01X-7180021Y2540338D01*
G01X-7180021Y2540338D02*
G01X-7129148Y2539947D01*
G01X-7129148Y2539947D02*
G01X-7078116Y2085922D01*
G01X-7078116Y2085922D02*
G01X-7070601Y2018099D01*
G01X-7070601Y2018099D02*
G01X-6895617Y2019178D01*
G01X-6895617Y2019178D02*
G01X-6848221Y2496998D01*
G01X-6848221Y2496998D02*
G01X-6845226Y2539997D01*
G01X-6845226Y2539997D02*
G01X-6807200Y2539997D01*
G54D10*
G01X-12195414Y2282668D02*
G01X-11655181Y2282668D01*
G01X-12195414Y2009927D02*
G01X-11655181Y2009927D01*
G01X-12059194Y2282668D02*
G01X-12059194Y2009927D01*
G01X-11655181Y2282668D02*
G01X-11655181Y2247618D01*
G01X-11655181Y2009927D02*
G01X-11655181Y2044977D01*
G36*
G01X-12187796Y2290288D02*
G01X-12187796Y2242538D01*
G01X-12233516Y2242538D01*
G01X-12233516Y2290288D01*
G01X-12187796Y2290288D01*
G37*
G36*
G01X-12187796Y2002307D02*
G01X-12233516Y2002307D01*
G01X-12233516Y2050057D01*
G01X-12187796Y2050057D01*
G01X-12187796Y2002307D01*
G37*
G54D11*
G01X-12417481Y2024847D02*
G01X-12417859Y1995383D01*
G01X-12415355Y2222688D02*
G01X-12415355Y2190135D01*
G01X-12478108Y2197705D02*
G03X-12712995Y2204890I-120291J-89504D01*
G01X-12715725Y2014593D02*
G03X-12483536Y2011591I117324J93607D01*
G01X-12415355Y2222688D02*
G03X-12804811Y2171502I-183044J-114488D01*
G01X-12801600Y2044700D02*
G03X-12417859Y1995383I203200J63498D01*

G04 Circle Start*
G01X-10485526Y3203804D02*
G03X-10460482Y3203804I12522J0D01*
G03X-10485526Y3203804I-12522J0D01*
G04 Circle End*

M02*

