G04 Layer: TopSolderMaskLayer*
G04 EasyEDA Pro v3.2.148, 2026-07-09 22:58:16*
G04 Gerber Generator version 0.3*
G04 Scale: 100 percent, Rotated: No, Reflected: No*
G04 Dimensions in millimeters*
G04 Leading zeros omitted, absolute positions, 4 integers and 5 decimals*
G04 Generated by one-click*
G04 Object Configs: Pad,Via,Track,Text,Image,Dimension,BoardOutline,BoardCutout,CopperFilled,SolidRegion,FPCStiffener,Line,PlaneZone,ComponentProperty,ComponentSilkscreen,TearDrop*
G04 Layer Configs: 1,2,3,4,5,6,7,8,9,10,11,13,14,56*
G04 Copper Areas: 0*
%FSLAX45Y45*%
%MOMM*%
%AMRoundRect*1,1,$1,$2,$3*1,1,$1,$4,$5*1,1,$1,0-$2,0-$3*1,1,$1,0-$4,0-$5*20,1,$1,$2,$3,$4,$5,0*20,1,$1,$4,$5,0-$2,0-$3,0*20,1,$1,0-$2,0-$3,0-$4,0-$5,0*20,1,$1,0-$4,0-$5,$2,$3,0*4,1,4,$2,$3,$4,$5,0-$2,0-$3,0-$4,0-$5,$2,$3,0*%
%ADD10RoundRect,0.1016X-0.4X0.45X0.4X0.45*%
%ADD11RoundRect,0.1016X-0.40324X0.432X0.40324X0.432*%
%ADD12RoundRect,0.10003X-0.6X0.12501X0.6X0.12501*%
%ADD13RoundRect,0.10003X-0.55X-0.27501X-0.55X0.27501*%
%ADD14RoundRect,0.10003X-0.55X-0.15X-0.55X0.15*%
%ADD15O,2.10002X1.20002*%
%ADD16O,1.90002X1.30002*%
%ADD17RoundRect,0.1035X-0.55999X1.44X0.55999X1.44*%
%ADD18RoundRect,0.1016X-0.55999X1.44X0.55999X1.44*%
%ADD19O,1.3016X3.20159*%
%ADD20RoundRect,0.1016X-1.02319X0.81001X1.02319X0.81001*%
%ADD21C,1.624*%
G75*


G04 Pad Start*
G54D10*
G01X-12299798Y2616200D03*
G01X-12439802Y2616200D03*
G01X-3435502Y2946400D03*
G01X-3295498Y2946400D03*
G01X-6496202Y2946400D03*
G01X-6356198Y2946400D03*
G01X-9797898Y2590800D03*
G01X-9937902Y2590800D03*
G01X-9797898Y2413000D03*
G01X-9937902Y2413000D03*
G01X-9797898Y2755900D03*
G01X-9937902Y2755900D03*
G01X-9797898Y2235200D03*
G01X-9937902Y2235200D03*
G01X-10763402Y2603500D03*
G01X-10623398Y2603500D03*
G01X-10763402Y2781300D03*
G01X-10623398Y2781300D03*
G01X-8058302Y2946400D03*
G01X-7918298Y2946400D03*
G01X-4934102Y2933700D03*
G01X-4794098Y2933700D03*
G54D11*
G01X-12432436Y2768600D03*
G01X-12281764Y2768600D03*
G01X-12457836Y3073400D03*
G01X-12307164Y3073400D03*
G54D12*
G01X-10467010Y3157296D03*
G01X-10467010Y3104286D03*
G01X-10467010Y3051302D03*
G01X-10467010Y2998292D03*
G01X-10467010Y2945308D03*
G01X-10467010Y2892298D03*
G01X-10467010Y2839288D03*
G01X-10467010Y2786304D03*
G01X-10106990Y2786304D03*
G01X-10106990Y2839288D03*
G01X-10106990Y2892298D03*
G01X-10106990Y2945308D03*
G01X-10106990Y2998292D03*
G01X-10106990Y3051302D03*
G01X-10106990Y3104286D03*
G01X-10106990Y3157296D03*
G54D13*
G01X-12614897Y3202902D03*
G01X-12614897Y3122892D03*
G54D14*
G01X-12614897Y3057893D03*
G01X-12614897Y3007881D03*
G01X-12614897Y2957894D03*
G01X-12614897Y2907906D03*
G01X-12614897Y2857894D03*
G01X-12614897Y2807907D03*
G01X-12614897Y2757894D03*
G01X-12614897Y2707881D03*
G54D13*
G01X-12614897Y2642883D03*
G01X-12614897Y2562898D03*
G54D15*
G01X-12669888Y3315399D03*
G01X-12669888Y2450402D03*
G54D16*
G01X-13089903Y3315399D03*
G01X-13089903Y2450402D03*
G54D18*
G01X-5453913Y2915996D03*
G01X-5703900Y2915996D03*
G01X-5903900Y2915996D03*
G01X-6153887Y2915996D03*
G54D19*
G01X-5158892Y2037004D03*
G01X-6448908Y2037004D03*
G54D18*
G01X-2380513Y2915996D03*
G01X-2630500Y2915996D03*
G01X-2830500Y2915996D03*
G01X-3080487Y2915996D03*
G54D19*
G01X-2085492Y2037004D03*
G01X-3375508Y2037004D03*
G54D18*
G01X-3917213Y2915996D03*
G01X-4167200Y2915996D03*
G01X-4367200Y2915996D03*
G01X-4617187Y2915996D03*
G54D19*
G01X-3622192Y2037004D03*
G01X-4912208Y2037004D03*
G54D18*
G01X-6990613Y2915996D03*
G01X-7240600Y2915996D03*
G01X-7440600Y2915996D03*
G01X-7690587Y2915996D03*
G54D19*
G01X-6695592Y2037004D03*
G01X-7985608Y2037004D03*
G54D20*
G01X-11668760Y2146300D03*
G01X-12181840Y2146300D03*
G54D21*
G01X-12725400Y2108200D03*
G01X-12471400Y2108200D03*
G04 Pad End*

M02*

