G04 Layer: TopLayer*
G04 EasyEDA Pro v3.2.148, 2026-07-09 22:58:16*
G04 Gerber Generator version 0.3*
G04 Scale: 100 percent, Rotated: No, Reflected: No*
G04 Dimensions in millimeters*
G04 Leading zeros omitted, absolute positions, 4 integers and 5 decimals*
G04 Generated by one-click*
G04 Object Configs: Pad,Via,Track,Text,Image,Dimension,BoardOutline,BoardCutout,CopperFilled,SolidRegion,FPCStiffener,Line,PlaneZone,ComponentProperty,ComponentSilkscreen,TearDrop*
G04 Layer Configs: 1,2,3,4,5,6,7,8,9,10,11,13,14,56*
G04 Copper Areas: 1*
%FSLAX45Y45*%
%MOMM*%
%ADD10C,0.2032*%
%ADD11R,0.8X0.9*%
%ADD12R,0.80648X0.86401*%
%ADD13R,1.2X0.25001*%
%ADD14R,1.1X0.55001*%
%ADD15R,1.1X0.3*%
%ADD16O,2.0024X1.1*%
%ADD17O,2.0X1.1*%
%ADD18O,1.8X1.2*%
%ADD19R,1.11999X2.88*%
%ADD20O,1.2X3.09999*%
%ADD21R,2.04638X1.62001*%
%ADD22C,1.524*%
%ADD23C,0.61*%
%ADD24C,0.254*%
G75*


G04 Copper Start*
G36*
G01X-13282930Y1842770D02*
G01X-13282930Y3707130D01*
G01X-1499870Y3707130D01*
G01X-1499870Y1842770D01*
G01X-13282930Y1842770D01*
G37*
G54D10*
G01X-13282930Y1842770D02*
G01X-13282930Y3707130D01*
G01X-1499870Y3707130D01*
G01X-1499870Y1842770D01*
G01X-13282930Y1842770D01*
G04 Copper End*

G04 Pad Start*
G54D11*
G01X-12299798Y2616200D03*
G01X-12439802Y2616200D03*
G01X-3435502Y2946400D03*
G01X-3295498Y2946400D03*
G01X-6496202Y2946400D03*
G01X-6356198Y2946400D03*
G01X-9797898Y2590800D03*
G01X-9937902Y2590800D03*
G01X-9797898Y2413000D03*
G01X-9937902Y2413000D03*
G01X-9797898Y2755900D03*
G01X-9937902Y2755900D03*
G01X-9797898Y2235200D03*
G01X-9937902Y2235200D03*
G01X-10763402Y2603500D03*
G01X-10623398Y2603500D03*
G01X-10763402Y2781300D03*
G01X-10623398Y2781300D03*
G01X-8058302Y2946400D03*
G01X-7918298Y2946400D03*
G01X-4934102Y2933700D03*
G01X-4794098Y2933700D03*
G54D12*
G01X-12432436Y2768600D03*
G01X-12281764Y2768600D03*
G01X-12457836Y3073400D03*
G01X-12307164Y3073400D03*
G54D13*
G01X-10467010Y3157296D03*
G01X-10467010Y3104286D03*
G01X-10467010Y3051302D03*
G01X-10467010Y2998292D03*
G01X-10467010Y2945308D03*
G01X-10467010Y2892298D03*
G01X-10467010Y2839288D03*
G01X-10467010Y2786304D03*
G01X-10106990Y2786304D03*
G01X-10106990Y2839288D03*
G01X-10106990Y2892298D03*
G01X-10106990Y2945308D03*
G01X-10106990Y2998292D03*
G01X-10106990Y3051302D03*
G01X-10106990Y3104286D03*
G01X-10106990Y3157296D03*
G54D14*
G01X-12614897Y3202902D03*
G01X-12614897Y3122892D03*
G54D15*
G01X-12614897Y3057893D03*
G01X-12614897Y3007881D03*
G01X-12614897Y2957894D03*
G01X-12614897Y2907906D03*
G01X-12614897Y2857894D03*
G01X-12614897Y2807907D03*
G01X-12614897Y2757894D03*
G01X-12614897Y2707881D03*
G54D14*
G01X-12614897Y2642883D03*
G01X-12614897Y2562898D03*
G54D17*
G01X-12669888Y3315399D03*
G01X-12669888Y2450402D03*
G54D18*
G01X-13089903Y3315399D03*
G01X-13089903Y2450402D03*
G54D19*
G01X-5453913Y2915996D03*
G01X-5703900Y2915996D03*
G01X-5903900Y2915996D03*
G01X-6153887Y2915996D03*
G54D20*
G01X-5158892Y2037004D03*
G01X-6448908Y2037004D03*
G54D19*
G01X-2380513Y2915996D03*
G01X-2630500Y2915996D03*
G01X-2830500Y2915996D03*
G01X-3080487Y2915996D03*
G54D20*
G01X-2085492Y2037004D03*
G01X-3375508Y2037004D03*
G54D19*
G01X-3917213Y2915996D03*
G01X-4167200Y2915996D03*
G01X-4367200Y2915996D03*
G01X-4617187Y2915996D03*
G54D20*
G01X-3622192Y2037004D03*
G01X-4912208Y2037004D03*
G54D19*
G01X-6990613Y2915996D03*
G01X-7240600Y2915996D03*
G01X-7440600Y2915996D03*
G01X-7690587Y2915996D03*
G54D20*
G01X-6695592Y2037004D03*
G01X-7985608Y2037004D03*
G54D21*
G01X-11668760Y2146300D03*
G01X-12181840Y2146300D03*
G54D22*
G01X-12725400Y2108200D03*
G01X-12471400Y2108200D03*
G04 Pad End*

G04 Via Start*
G54D23*
G01X-7520920Y3518081D03*
G01X-7520920Y3441880D03*
G01X-7035800Y3518081D03*
G01X-7035800Y3441880D03*
G01X-7774920Y3370580D03*
G01X-7774920Y3294380D03*
G01X-6781800Y3370580D03*
G01X-6781800Y3294380D03*
G01X-6096000Y3213100D03*
G01X-5702300Y3213100D03*
G01X-7593173Y3253760D03*
G01X-7533635Y3205534D03*
G01X-7012920Y3253760D03*
G01X-7012920Y3177560D03*
G01X-6350000Y3250800D03*
G01X-6350000Y3174600D03*
G01X-5361920Y3250800D03*
G01X-5361920Y3174600D03*
G01X-4495800Y3250800D03*
G01X-4495800Y3174600D03*
G01X-3939520Y3250800D03*
G01X-2768600Y3302000D03*
G01X-9499600Y2679700D03*
G01X-8394700Y2959100D03*
G01X-6680200Y3073400D03*
G01X-5130800Y3073400D03*
G01X-3695700Y3098800D03*
G01X-1993900Y3048000D03*
G04 Via End*

G04 Track Start*
G54D24*
G01X-12457836Y3073400D02*
G01X-12523356Y3007881D01*
G01X-12614897Y3007881D01*
G01X-12439802Y2616200D02*
G01X-12546242Y2616200D01*
G01X-12548341Y2618299D01*
G01X-12590313Y2618299D01*
G01X-12614897Y2642883D01*
G01X-12614897Y2562898D02*
G01X-12598438Y2562898D01*
G01X-12471400Y2108200D02*
G01X-12219940Y2108200D01*
G01X-12181840Y2146300D01*
G01X-12727394Y2450402D02*
G01X-13089903Y2450402D01*
G01X-12727394Y3315399D02*
G01X-13089903Y3315399D01*
G01X-12614897Y3202902D02*
G01X-12614897Y3260408D01*
G01X-12669888Y3315399D01*
G01X-12614897Y2562898D02*
G01X-12614897Y2505393D01*
G01X-12669888Y2450402D01*
G01X-12614897Y2707881D02*
G01X-12493155Y2707881D01*
G01X-12432436Y2768600D01*
G01X-10467010Y2892298D02*
G01X-10552410Y2892298D01*
G01X-12490327Y2898483D02*
G01X-12504424Y2912580D01*
G01X-10467010Y2945308D02*
G01X-10552410Y2945308D01*
G01X-12473493Y2939123D02*
G01X-12487590Y2953220D01*
G01X-12534497Y2907906D02*
G01X-12614897Y2907906D01*
G01X-12534497Y2957894D02*
G01X-12614897Y2957894D01*
G01X-10552410Y2892298D02*
G01X-10558595Y2898483D01*
G01X-12504424Y2912580D02*
G01X-12529824Y2912580D01*
G01X-12534497Y2907906D01*
G01X-10552410Y2945308D02*
G01X-10558595Y2939123D01*
G01X-12529824Y2953220D02*
G01X-12534497Y2957894D01*
G01X-10558595Y2898483D02*
G01X-12490327Y2898483D01*
G01X-10558595Y2939123D02*
G01X-12473493Y2939123D01*
G01X-12487590Y2953220D02*
G01X-12529824Y2953220D01*
G01X-12614897Y2957894D02*
G01X-12621984Y2950806D01*
G01X-12681454Y2950806D01*
G01X-12697797Y2934463D01*
G01X-12697797Y2881350D01*
G01X-12681454Y2865006D01*
G01X-12622010Y2865006D01*
G01X-12614897Y2857894D01*
G01X-12614897Y2907906D02*
G01X-12612637Y2905646D01*
G01X-12605176Y2905646D01*
G01X-12600324Y2900794D01*
G01X-12548341Y2900794D01*
G01X-12531997Y2884450D01*
G01X-12531997Y2831337D01*
G01X-12548341Y2814994D01*
G01X-12607810Y2814994D01*
G01X-12614897Y2807907D01*
G01X-10467010Y2998292D02*
G01X-10552410Y2998292D01*
G01X-10467010Y3051302D02*
G01X-10552410Y3051302D01*
G01X-10552410Y2998292D02*
G01X-10558595Y3004477D01*
G01X-10552410Y3051302D02*
G01X-10558595Y3045117D01*
G01X-11049000Y3045117D01*
G01X-11065834Y3004477D02*
G01X-11107601Y3046244D01*
G01X-11049000Y3045117D02*
G01X-11066961Y3063078D01*
G01X-11066961Y3619500D01*
G01X-11107601Y3636334D02*
G01X-11078234Y3665700D01*
G01X-11066961Y3619500D02*
G01X-11061401Y3625060D01*
G01X-7336466Y3665700D02*
G01X-7294699Y3623933D01*
G01X-7294699Y3232890D01*
G01X-7320280Y3207310D01*
G01X-7240600Y3085396D02*
G01X-7240600Y2915996D01*
G01X-7320280Y3165076D02*
G01X-7240600Y3085396D01*
G01X-11061401Y3625060D02*
G01X-7458560Y3625060D01*
G01X-7440600Y3607099D01*
G01X-7440600Y2915996D01*
G01X-7320280Y3207310D02*
G01X-7320280Y3165076D01*
G01X-10558595Y3004477D02*
G01X-11065834Y3004477D01*
G01X-11107601Y3046244D02*
G01X-11107601Y3636334D01*
G01X-11078234Y3665700D02*
G01X-7336466Y3665700D01*
G01X-10467010Y3104286D02*
G01X-10552410Y3104286D01*
G01X-10600828Y3110471D02*
G01X-10642595Y3152238D01*
G01X-10467010Y3157296D02*
G01X-10552410Y3157296D01*
G01X-10583995Y3151111D02*
G01X-10601955Y3169072D01*
G01X-10601955Y3441700D01*
G01X-10552410Y3104286D02*
G01X-10558595Y3110471D01*
G01X-10552410Y3157296D02*
G01X-10558595Y3151111D01*
G01X-10583995Y3151111D01*
G01X-10558595Y3110471D02*
G01X-10600828Y3110471D01*
G01X-10642595Y3458534D02*
G01X-10600828Y3500301D01*
G01X-10601955Y3441700D02*
G01X-10583995Y3459661D01*
G01X-10600828Y3500301D02*
G01X-7594600Y3500301D01*
G01X-10583995Y3459661D02*
G01X-7594600Y3459661D01*
G01X-7576820Y3518081D02*
G01X-7520920Y3518081D01*
G01X-7576820Y3441880D02*
G01X-7520920Y3441880D01*
G01X-7594600Y3500301D02*
G01X-7576820Y3518081D01*
G01X-7594600Y3459661D02*
G01X-7576820Y3441880D01*
G01X-7035800Y3518081D02*
G01X-6979900Y3518081D01*
G01X-7035800Y3441880D02*
G01X-6979900Y3441880D01*
G01X-6979900Y3518081D02*
G01X-6962120Y3500301D01*
G01X-6979900Y3441880D02*
G01X-6962120Y3459661D01*
G01X-4279900Y3459661D01*
G01X-4263066Y3500301D02*
G01X-4221299Y3458534D01*
G01X-4221299Y3399466D01*
G01X-4229100Y3391666D01*
G01X-4279900Y3459661D02*
G01X-4261939Y3441700D01*
G01X-4261939Y3416300D01*
G01X-4269740Y3408499D01*
G01X-4269740Y2959100D01*
G01X-4229100Y3391666D02*
G01X-4229100Y2959100D01*
G01X-4224464Y2959100D01*
G01X-4208967Y2974597D01*
G01X-4269740Y2959100D02*
G01X-4309936Y2959100D01*
G01X-4325433Y2974597D01*
G01X-4208967Y2974597D02*
G01X-4167200Y2932830D01*
G01X-4167200Y2915996D01*
G01X-4325433Y2974597D02*
G01X-4367200Y2932830D01*
G01X-4367200Y2915996D01*
G01X-10642595Y3152238D02*
G01X-10642595Y3458534D01*
G01X-6962120Y3500301D02*
G01X-4263066Y3500301D01*
G01X-10106990Y3157296D02*
G01X-10021590Y3157296D01*
G01X-9990005Y3151111D02*
G01X-9788317Y3352800D01*
G01X-10106990Y3104286D02*
G01X-10021590Y3104286D01*
G01X-9973172Y3110471D02*
G01X-9771483Y3312160D01*
G01X-10021590Y3157296D02*
G01X-10015405Y3151111D01*
G01X-9990005Y3151111D01*
G01X-10021590Y3104286D02*
G01X-10015405Y3110471D01*
G01X-9973172Y3110471D01*
G01X-9788317Y3352800D02*
G01X-7848600Y3352800D01*
G01X-9771483Y3312160D02*
G01X-7848600Y3312160D01*
G01X-7830820Y3370580D02*
G01X-7774920Y3370580D01*
G01X-7830820Y3294380D02*
G01X-7774920Y3294380D01*
G01X-7848600Y3352800D02*
G01X-7830820Y3370580D01*
G01X-7848600Y3312160D02*
G01X-7830820Y3294380D01*
G01X-6781800Y3370580D02*
G01X-6725900Y3370580D01*
G01X-6708120Y3352800D01*
G01X-5921860Y3352800D01*
G01X-5903900Y3334839D01*
G01X-5903900Y2915996D01*
G01X-6778840Y3291420D02*
G01X-6742919Y3291420D01*
G01X-6725139Y3309200D01*
G01X-6245426Y3309200D01*
G01X-6781800Y3294380D02*
G01X-6778840Y3291420D01*
G01X-6245426Y3309200D02*
G01X-6149326Y3213100D01*
G01X-6096000Y3213100D01*
G01X-5702300Y3213100D02*
G01X-5702300Y2917596D01*
G01X-5703900Y2915996D01*
G01X-10106990Y3051302D02*
G01X-10021590Y3051302D01*
G01X-10106990Y2998292D02*
G01X-10021590Y2998292D01*
G01X-10021590Y3051302D02*
G01X-10015405Y3045117D01*
G01X-10021590Y2998292D02*
G01X-10015405Y3004477D01*
G01X-10015405Y3045117D02*
G01X-9896183Y3045117D01*
G01X-10015405Y3004477D02*
G01X-9879349Y3004477D01*
G01X-9674063Y3209763D01*
G01X-9690897Y3250403D02*
G01X-8089103Y3250403D01*
G01X-7988300Y3149600D01*
G01X-9674063Y3209763D02*
G01X-8105937Y3209763D01*
G01X-7988300Y3149600D02*
G01X-7683500Y3149600D01*
G01X-7632700Y3200400D01*
G01X-8005134Y3108960D02*
G01X-7666666Y3108960D01*
G01X-7603963Y3171663D01*
G01X-7632700Y3200400D02*
G01X-7632700Y3214233D01*
G01X-7593173Y3253760D01*
G01X-7603963Y3171663D02*
G01X-7567506Y3171663D01*
G01X-7533635Y3205534D01*
G01X-7012920Y3253760D02*
G01X-6957020Y3253760D01*
G01X-7012920Y3177560D02*
G01X-6957020Y3177560D01*
G01X-6957020Y3253760D02*
G01X-6939240Y3235980D01*
G01X-6957020Y3177560D02*
G01X-6939240Y3195340D01*
G01X-6423680Y3235980D02*
G01X-6408860Y3250800D01*
G01X-6350000Y3250800D01*
G01X-6423680Y3195340D02*
G01X-6402940Y3174600D01*
G01X-6350000Y3174600D01*
G01X-5361920Y3250800D02*
G01X-5306020Y3250800D01*
G01X-5361920Y3174600D02*
G01X-5306020Y3174600D01*
G01X-4551700Y3250800D02*
G01X-4495800Y3250800D01*
G01X-4551700Y3174600D02*
G01X-4495800Y3174600D01*
G01X-5306020Y3250800D02*
G01X-5288240Y3233020D01*
G01X-4569480Y3233020D02*
G01X-4551700Y3250800D01*
G01X-5306020Y3174600D02*
G01X-5288240Y3192380D01*
G01X-4569480Y3192380D02*
G01X-4551700Y3174600D01*
G01X-5288240Y3233020D02*
G01X-4569480Y3233020D01*
G01X-5288240Y3192380D02*
G01X-4569480Y3192380D01*
G01X-3939520Y3250800D02*
G01X-3883620Y3250800D01*
G01X-3865840Y3233020D01*
G01X-2990417Y3233020D01*
G01X-2873759Y3116362D01*
G01X-2873759Y2923335D01*
G01X-2861110Y2910685D01*
G01X-2835811Y2910685D01*
G01X-2830500Y2915996D01*
G01X-9896183Y3045117D02*
G01X-9690897Y3250403D01*
G01X-8105937Y3209763D02*
G01X-8005134Y3108960D01*
G01X-6939240Y3235980D02*
G01X-6423680Y3235980D01*
G01X-6939240Y3195340D02*
G01X-6423680Y3195340D01*
G01X-2768600Y3302000D02*
G01X-2630500Y3163900D01*
G01X-2630500Y2915996D01*
G01X-7918298Y2946400D02*
G01X-7720990Y2946400D01*
G01X-7690587Y2915996D01*
G01X-3295498Y2946400D02*
G01X-3110890Y2946400D01*
G01X-3080487Y2915996D01*
G01X-6356198Y2946400D02*
G01X-6184290Y2946400D01*
G01X-6153887Y2915996D01*
G01X-4794098Y2933700D02*
G01X-4634890Y2933700D01*
G01X-4617187Y2915996D01*
G01X-10763402Y2781300D02*
G01X-10763402Y2603500D01*
G01X-10623398Y2781300D02*
G01X-10583971Y2781300D01*
G01X-10538566Y2826705D01*
G01X-10479593Y2826705D01*
G01X-10467010Y2839288D01*
G01X-10623398Y2781300D02*
G01X-10623398Y2603500D01*
G01X-10106990Y2786304D02*
G01X-9968306Y2786304D01*
G01X-9937902Y2755900D01*
G01X-9797898Y2755900D02*
G01X-9797898Y2715256D01*
G01X-9729998Y2647356D01*
G01X-9729998Y2534244D01*
G01X-9746341Y2517900D01*
G01X-9765898Y2517900D01*
G01X-9797898Y2485900D01*
G01X-9849454Y2485900D01*
G01X-9865798Y2469556D01*
G01X-9865798Y2356444D01*
G01X-9797898Y2288544D01*
G01X-9797898Y2235200D01*
G01X-9937902Y2590800D02*
G01X-9937902Y2413000D01*
G01X-9937902Y2235200D01*
G01X-9937902Y2755900D02*
G01X-9937902Y2590800D01*
G01X-11668760Y2146300D02*
G01X-12138660Y2616200D01*
G01X-12299798Y2616200D01*
G01X-12614897Y3202902D02*
G01X-12436665Y3202902D01*
G01X-12307164Y3073400D01*
G01X-12281764Y2246224D02*
G01X-12181840Y2146300D01*
G01X-12281764Y2768600D02*
G01X-12281764Y2758690D01*
G01X-12367698Y2672756D01*
G01X-12367698Y2559644D01*
G01X-12281764Y2473710D01*
G01X-12281764Y2246224D01*
G01X-12598438Y2562898D02*
G01X-12281764Y2246224D01*
G01X-12614897Y2642883D02*
G01X-12636996Y2664981D01*
G01X-12681454Y2664981D01*
G01X-12681454Y3100793D02*
G01X-12636996Y3100793D01*
G01X-12614897Y3122892D01*
G01X-12681454Y2664981D02*
G01X-12733397Y2716925D01*
G01X-12733397Y3048850D01*
G01X-12681454Y3100793D01*
G01X-9865798Y2699344D02*
G01X-9865798Y2812456D01*
G01X-9849454Y2828800D01*
G01X-9746341Y2828800D01*
G01X-9694398Y2519498D02*
G01X-9731595Y2482300D01*
G01X-9751152Y2482300D01*
G01X-9797898Y2435554D01*
G01X-9797898Y2413000D01*
G01X-9797898Y2590800D02*
G01X-9797898Y2631444D01*
G01X-9865798Y2699344D01*
G01X-9746341Y2828800D02*
G01X-9694398Y2776857D01*
G01X-9501909Y2677391D02*
G01X-9499600Y2679700D01*
G01X-9694398Y2776857D02*
G01X-9694398Y2677391D01*
G01X-9694398Y2519498D01*
G01X-10467010Y2786304D02*
G01X-10265994Y2786304D01*
G01X-10194890Y2857408D01*
G01X-10194890Y2916355D01*
G01X-10178547Y2932699D01*
G01X-10119599Y2932699D01*
G01X-10106990Y2945308D01*
G01X-9860034Y2945308D01*
G01X-9861441Y2943900D02*
G01X-9746341Y2828800D01*
G01X-9694398Y2776857D02*
G01X-9594932Y2677391D01*
G01X-9593524Y2675983D01*
G01X-9694398Y2677391D02*
G01X-9594932Y2677391D01*
G01X-9501909Y2677391D01*
G01X-8058302Y2946400D02*
G01X-8071002Y2959100D01*
G01X-8394700Y2959100D01*
G01X-6496202Y2946400D02*
G01X-6623202Y3073400D01*
G01X-6680200Y3073400D01*
G01X-4934102Y2933700D02*
G01X-5073802Y3073400D01*
G01X-5130800Y3073400D01*
G01X-3435502Y2946400D02*
G01X-3587902Y3098800D01*
G01X-3695700Y3098800D01*
G01X-3917213Y2915996D02*
G01X-3734410Y3098800D01*
G01X-3695700Y3098800D01*
G01X-2380513Y2915996D02*
G01X-2125904Y2915996D01*
G01X-1993900Y3048000D01*
G01X-6990613Y2915996D02*
G01X-6837604Y2915996D01*
G01X-6680200Y3073400D01*
G01X-5453913Y2915996D02*
G01X-5288204Y2915996D01*
G01X-5130800Y3073400D01*
G04 Track End*

M02*

